<svg width="399" height="426" viewBox="0 0 399 426" fill="none" xmlns="http://www.w3.org/2000/svg">
<g clip-path="url(#clip0_180_1058)">
<mask id="mask0_180_1058" style="mask-type:luminance" maskUnits="userSpaceOnUse" x="0" y="0" width="399" height="426">
<path d="M217.41 0L216.01 0.428052C207.83 9.07063 210.031 17.4822 217.084 25.7986C217.933 25.7783 223.844 13.9898 223.899 12.5766C224.062 7.93595 219.428 3.70299 217.41 0ZM238.391 19.1129C234.24 19.3779 228.662 17.3327 224.694 18.481C221.113 19.5205 220.923 26.5732 217.077 26.5596C213.306 26.546 212.932 20.6077 209.426 19.1944C205.098 17.455 199.459 19.1944 195.002 17.6589C195.165 22.2247 193.745 26.8926 198.052 29.8753C200.675 27.3138 200.689 24.4329 204.888 23.8214C215.338 22.2995 208.815 30.086 211.308 31.9341L219.448 29.8889C220.067 32.498 215.888 31.1935 215.358 32.3757C214.923 34.5635 213.619 40.0874 217.077 40.0942C219.38 40.0942 219.584 36.3369 220.427 34.5907C220.997 33.4017 222.445 32.3417 222.71 31.4381C223.267 29.5152 222.146 24.9969 223.491 24.066C228.104 23.1012 233.873 23.5429 234.471 29.1347C240.226 29.7666 239.866 23.0944 238.391 19.1061V19.1129ZM282.644 35.3245V107.346H284.682V35.3245C285.592 35.3585 286.184 37.1454 286.523 37.8996C295.764 58.1675 301.858 80.7999 310.848 101.224C311.724 103.215 312.791 106.035 314.571 107.346L286.17 32.7834C284.974 29.0736 291.076 27.0149 289.853 23.0808C289.635 22.3742 287.488 19.7448 287.06 19.7108C284.825 19.5205 288.1 22.4218 286.734 22.7683L279.246 23.7671L281.618 19.011C276.923 21.4434 278.615 25.9345 272.146 26.5256C260.371 27.5992 251.661 21.1852 240.518 19.6972C240.233 26.7091 242.882 24.5077 246.64 25.3978C251.416 26.5324 257.511 29.6919 262.084 30.4053C268.783 31.4516 275.367 29.8889 281.964 29.2163L254.114 108.025C255.86 106.721 257.001 103.874 257.83 101.897C266.385 81.5881 271.888 57.6851 280.762 37.8588C281.19 36.9076 281.441 35.5963 282.644 35.3245ZM165.779 114.14H128.069C127.77 114.14 123.422 112.863 123.143 112.612C119.766 109.541 124.808 102.42 126.201 98.683C134.062 77.6201 140.653 55.9933 149.485 35.3313C150.953 35.8477 149.499 39.0343 149.445 40.3932C148.602 62.5092 149.689 84.9378 150.151 107.02L151.51 108.025V35.3245C153.956 37.6278 155.247 41.7045 156.599 44.8436C164.515 63.2906 169.95 84.5709 178.573 102.366C179.429 104.139 180.197 106.456 182.079 107.346L152.822 30.3102C155.41 27.7826 157.517 30.7994 160.044 31.207C171.758 33.0891 181.78 25.9889 192.923 24.4262L192.95 19.6972C185.972 21.7627 179.116 24.5213 172.043 26.3014C166.907 27.5924 162.184 29.9569 157.938 25.8462C156.531 24.4805 155.791 22.1092 154.88 21.4298C153.087 20.0845 148.256 19.1468 146.455 21.1037C141.665 26.2878 149.214 29.3589 148.684 32.797C137.588 58.5888 130.277 85.9638 119.046 111.66C131.011 139.674 164.984 146.666 182.099 118.584C183.295 116.62 185.537 113.121 186.135 111.063C186.624 109.364 183.628 109.996 182.765 110.417C181.949 110.818 176.208 119.535 174.598 121.275C169.828 126.418 163.36 130.773 156.273 131.82C160.411 126.758 165.439 120.942 165.785 114.161L165.779 114.14ZM207.001 33.3541C203.427 34.5363 206.681 40.135 210.643 37.723C212.695 36.3641 209.467 32.5388 207.001 33.3541ZM223.967 33.3677C222.214 33.9588 221.915 38.1238 225.23 38.1102C230.102 38.0899 228.451 31.8593 223.967 33.3677ZM213 105.308C216.119 105.729 219.971 105.002 223.192 105.308L224.082 106.836C222.166 116.926 220.005 127.981 220.794 138.288C221.534 147.997 228.132 150.62 232.365 158.658L230.34 159.324L233.051 161.702C229.042 161.58 224.232 159.004 223.138 154.914C222.954 154.241 224.143 148.901 222.2 150.837C222.003 151.028 220.209 155.267 220.121 155.899C219.407 160.907 222.084 167.307 221.527 170.84C220.828 175.304 200.58 183.988 195.715 184.81C191.475 173.959 196.49 169.135 205.88 165.106L206.94 169.828L209.956 173.252C209.8 170.677 208.455 168.85 208.543 166.118C208.631 163.387 210.48 162.13 210.303 159.67C205.852 167.035 193.453 164.637 192.277 174.258C191.801 178.165 192.712 182.289 192.977 186.162L195.002 184.13C194.22 186.563 193.697 191.074 197.04 191.598C196.992 189.879 196.925 187.745 198.44 186.542C200.757 184.715 208.346 182.724 211.764 180.842C214.386 179.401 222.716 171.826 223.885 171.921C226.236 172.104 223.817 178.369 223.375 179.544C222.594 181.603 217.457 190.843 215.786 190.884C210.262 188.995 205.737 190.796 200.607 192.114C199.547 192.386 198.351 192.053 197.509 192.257C196.809 192.426 196.449 195.185 194.58 196.265C188.676 199.683 189.036 190.449 187.344 186.678C185.245 181.997 176.99 174.007 172.899 170.548C171.846 169.658 166.064 164.773 165.106 165.779C164.134 168.428 167.892 170.018 167.681 172.125C167.43 174.632 161.641 179.931 161.036 185.822C158.984 205.825 174.958 217.675 193.901 215.29C199.309 214.61 197.685 213.673 199.411 209.256C202.048 212.198 203.352 214.814 201.796 218.762C204.833 218.769 206.389 216.228 208.577 214.692C210.921 220.08 205.098 226.46 201.776 230.639C196.911 236.76 187.215 246.993 180.693 251.002C179.483 251.749 177.642 251.661 177.336 252.727C182.378 252.299 188.01 247.244 191.74 243.895C198.827 237.528 204.167 229.613 210.493 223.042C211.159 222.349 211.159 221.12 212.661 221.48C213.109 221.935 208.081 229.103 207.381 230.122C201.484 238.602 190.015 252.204 181.746 258.163C181.141 258.598 180.19 259.59 179.361 259.216C177.859 257.361 175.169 256.118 175.291 253.414C173.253 253.815 171.078 253.957 171.214 256.417C171.404 259.882 178.267 263.32 177.995 264.584C176.025 267.648 166.648 271.202 166.696 274.68C166.75 278.784 170.528 286.713 172.723 290.321C174.265 292.862 177.574 295.981 178.62 298.013C180.991 302.626 175.943 319.449 175.311 325.788C175.101 327.915 174.387 334.784 175.488 336.136C177.948 339.153 190.782 339.819 194.594 340.465C203.468 341.966 204.555 350.466 210.432 355.936C213.523 355.725 216.173 354.094 219.299 353.476C225.224 352.307 237.943 352.131 240.695 358.905C241.394 360.631 242.651 369.232 242.611 371.312C242.529 375.939 241.177 382.747 239.179 386.932L243.31 388.896C246.708 392.925 236.421 402.07 234.063 404.931C233.615 405.474 232.263 406.296 233.397 406.983C259.488 395.085 289.791 373.153 279.742 340.24C277.697 333.534 269.836 323.424 264.659 318.634C263.911 317.941 263.476 317.037 262.267 317.295C269.666 328.228 276.427 342.102 275.163 355.664C274.144 366.61 266.31 377.012 258.197 383.874C265.094 369.361 261.397 358.524 249.677 348.564C242.278 342.272 233.275 338.827 225.631 333.201C199.255 313.776 193.228 292.319 200.893 260.337C201.307 258.605 204.691 247.136 205.2 246.633C205.533 246.3 206.654 246.123 206.403 247.489C205.696 251.335 205.649 255.35 205.846 259.23C206.348 269.211 208.027 280.34 211.295 289.791C212.165 292.312 213.17 296.233 215.378 297.591C211.41 279.613 209.243 261.356 214.522 243.392C217.036 234.844 221.222 224.163 226.929 217.417C225.373 221.283 223.117 224.857 221.656 228.784C211.261 256.729 222.417 286.347 243.908 305.412L261.581 316.609L250.03 307.437L251.627 305.826L260.208 311.187L259.529 271.779C255.846 276.298 253.543 281.291 247.149 281.495C246.816 281.509 245.213 282.175 245.281 280.945C245.342 279.858 257.137 267.193 259.012 264.115C266.609 251.64 266.018 228.104 260.344 214.916C258.972 211.73 256.831 209.032 255.452 205.873L254.1 206.212C254.086 208.38 255.004 210.405 255.282 212.504C255.377 213.245 256.037 214.841 254.793 214.692L251.729 204.507C249.269 207.816 247.435 211.492 245.159 214.923C244.255 216.282 242.597 217.308 241.931 218.551C240.348 221.507 242.78 226.222 236.795 226.929L236.434 224.211L233.044 224.884C238.235 218.823 248.366 208.19 249.364 200.104C250.438 191.428 249.344 177.146 247.672 168.469C245.043 154.799 240.851 151.476 244.391 136.698C246.443 128.137 242.38 120.126 241.272 111.674C240.769 107.815 239.798 99.0703 239.811 95.4285C239.811 93.2067 243.059 89.3474 243.942 86.65C245.818 80.9358 245.573 71.9535 242.93 66.5248C241.408 63.4061 235.157 57.0057 232.004 55.7011C231.692 55.5721 230.89 55.5245 230.999 56.0273C234.58 59.2071 239.485 62.1967 240.504 67.2382C233.846 62.55 228.526 55.4497 219.448 55.6943C223.681 66.6674 234.804 75.4119 233.03 88.3011C232.29 89.0824 219.706 82.4034 215.82 83.6468C210.045 85.4949 223.919 91.773 224.435 92.3438C226.793 94.9461 221.133 95.1907 219.095 95.1567C213.347 95.0548 205.893 93.0096 204.623 86.4394C203.678 81.5405 209.793 74.583 213.32 71.6546C213.795 71.2605 219.36 66.5927 218.694 69.5483C217.634 74.3112 211.397 83.3139 222.023 82.0501C225.869 76.8184 223.776 72.2525 221.398 66.9936L215.623 55.7895C210.106 53.853 205.717 62.4888 201.361 59.112C200.363 58.3374 201.606 56.3194 200.084 57.0668C195.172 59.4925 190.68 71.2469 190.3 76.5126C189.355 89.6667 199.751 103.507 212.987 105.301L213 105.308ZM254.25 109.88C253.903 109.663 254.365 108.494 253.774 108.712C252.123 110.003 251.804 110.73 252.367 112.795C252.952 114.922 258.897 123.945 260.568 125.691C262.94 128.171 268.797 131.833 271.997 133.287C292.367 142.541 311.941 130.338 318.668 110.417L275.177 110.757C275.02 111.946 276.719 111.395 277.541 111.429C284.954 111.735 292.564 111.416 299.997 111.402C301.607 111.402 303.075 112.156 304.692 112.136C306.309 112.116 314.211 110.41 314.571 110.757C309.781 121.927 300.241 129.061 288.766 132.492L296.586 121.635C297.918 119.1 299.249 116.437 298.95 113.475C287.991 114.039 275.605 114.935 264.645 114.147C262.627 114.005 256.247 113.413 255.473 111.769L256.825 110.084C255.982 110.037 255.017 110.37 254.25 109.887V109.88ZM192.957 165.106L173.932 167.144C181.195 172.947 189.016 179.632 191.604 188.88L192.943 188.554C189.892 181.202 188.995 172.328 192.957 165.106ZM219.448 280.612C217.634 278.832 218.028 284.967 218.076 285.728C219.401 306.248 238.663 322.452 256.152 330.198C251.674 326.318 246.314 323.662 241.877 319.68C230.102 309.128 224.32 295.288 219.455 280.605L219.448 280.612ZM311.86 328.839C308.021 327.304 304.583 324.803 300.676 323.383C292.659 320.475 283.989 320.074 275.856 317.628C270.903 316.14 266.418 313.599 261.588 311.86C265.535 316.82 271.107 320.251 275.197 325.082C280.85 331.768 284.227 340.431 284.696 349.216C291.524 347.313 292.659 337.944 298.957 334.954C296.837 340.526 292.74 345.071 290.485 350.595C286.972 359.19 285.565 370.299 287.468 379.411C288.079 382.332 290.009 385.362 290.512 388.597C292.183 399.346 285.559 407.995 286.034 418.499C276.203 418.309 266.31 418.234 256.478 417.874C217.444 416.447 180.686 416.699 141.685 417.854C132.567 418.125 117.708 420.49 109.629 416.604C104.764 414.259 98.6627 410.339 95.1364 406.303L99.8789 405.277L97.2291 402.464L98.8937 400.195C110.601 395.425 126.805 380.946 138.132 377.61C142.793 376.238 147.732 377.793 152.393 376.924C157.054 376.054 160.798 372.079 164.766 370.272C171.459 367.221 180.679 365.951 187.915 363.525C190.361 362.703 204.759 357.179 205.587 356.038L197.733 343.801C196.014 343.957 198.304 347.144 197.733 347.871C194.275 346.43 190.178 347.531 186.502 347.218C180.808 346.729 175.4 345.092 169.882 343.787C172.709 340.186 169.713 335.328 172.593 331.897L171.588 331.571L145.076 353.293L144.057 351.961C147.997 349.732 151.7 346.05 154.935 342.781C155.75 341.959 155.94 340.546 156.674 339.765C157.931 338.426 160.438 336.823 161.947 335.525C162.544 335.015 164.155 334.193 162.076 334.288C159.052 336.687 155.567 338.698 152.563 341.09C145.252 346.892 138.954 355.732 129.788 358.069C130.305 359.53 130.454 359.265 131.596 358.871C134.456 357.892 137.731 355.616 140.32 353.986C140.843 353.877 140.245 356.574 142.005 356.038C136.562 361.657 128.124 361.82 121.166 364.734C105.24 371.4 99.8314 383.114 88.3419 393.74C82.3764 399.264 74.3589 403.429 68.2778 409.007C65.3154 409.884 70.0784 404.469 70.6559 403.905C77.1446 397.552 86.3647 393.815 93.1116 386.952C98.4181 381.551 100.973 374.743 106.463 369.728C111.953 364.714 119.264 360.95 127.064 360.094C127.186 358.823 124.862 359.442 124.176 359.584C116.24 361.222 109.065 365.054 102.97 370.313C95.4829 376.767 91.7392 386.11 83.9391 392.728C77.7765 397.959 65.9609 402.94 63.1752 410.692C62.5908 412.309 61.2387 416.583 62.1424 417.881C62.7471 418.751 64.9825 418.35 65.2339 419.878L44.8572 420.571L50.6597 421.278L61.8367 420.571C61.8367 421.72 59.5741 421.862 58.7859 421.93C40.964 423.323 22.9382 422.236 5.18427 424.723L0.0136719 425.993H398.163L379.472 423.296C358.851 421.767 344.698 425.627 325.449 415.489C322.976 414.185 311.221 407.234 310.168 405.63C309.726 404.965 309.794 404.326 309.842 403.585L315.271 404.937C311.147 401.33 311.643 397.484 311.88 392.381C312.363 382.122 315.57 371.699 317.112 361.602C318.838 350.323 322.058 336.599 314.931 326.808L314.265 328.167L308.823 325.435L311.874 328.832L311.86 328.839ZM268.375 360.101C268.871 351.567 269.204 343.121 262.274 337.006C263.898 342.945 266.018 348.224 266.942 354.414C267.037 355.052 266.636 362.384 268.382 360.101H268.375Z" fill="white"/>
</mask>
<g mask="url(#mask0_180_1058)">
<path d="M217.41 0L216.01 0.428052C207.83 9.07063 210.031 17.4822 217.084 25.7986C217.933 25.7783 223.844 13.9898 223.899 12.5766C224.062 7.93595 219.428 3.70299 217.41 0ZM238.391 19.1129C234.24 19.3779 228.662 17.3327 224.694 18.481C221.113 19.5205 220.923 26.5732 217.077 26.5596C213.306 26.546 212.932 20.6077 209.426 19.1944C205.098 17.455 199.459 19.1944 195.002 17.6589C195.165 22.2247 193.745 26.8926 198.052 29.8753C200.675 27.3138 200.689 24.4329 204.888 23.8214C215.338 22.2995 208.815 30.086 211.308 31.9341L219.448 29.8889C220.067 32.498 215.888 31.1935 215.358 32.3757C214.923 34.5635 213.619 40.0874 217.077 40.0942C219.38 40.0942 219.584 36.3369 220.427 34.5907C220.997 33.4017 222.445 32.3417 222.71 31.4381C223.267 29.5152 222.146 24.9969 223.491 24.066C228.104 23.1012 233.873 23.5429 234.471 29.1347C240.226 29.7666 239.866 23.0944 238.391 19.1061V19.1129ZM282.644 35.3245V107.346H284.682V35.3245C285.592 35.3585 286.184 37.1454 286.523 37.8996C295.764 58.1675 301.858 80.7999 310.848 101.224C311.724 103.215 312.791 106.035 314.571 107.346L286.17 32.7834C284.974 29.0736 291.076 27.0149 289.853 23.0808C289.635 22.3742 287.488 19.7448 287.06 19.7108C284.825 19.5205 288.1 22.4218 286.734 22.7683L279.246 23.7671L281.618 19.011C276.923 21.4434 278.615 25.9345 272.146 26.5256C260.371 27.5992 251.661 21.1852 240.518 19.6972C240.233 26.7091 242.882 24.5077 246.64 25.3978C251.416 26.5324 257.511 29.6919 262.084 30.4053C268.783 31.4516 275.367 29.8889 281.964 29.2163L254.114 108.025C255.86 106.721 257.001 103.874 257.83 101.897C266.385 81.5881 271.888 57.6851 280.762 37.8588C281.19 36.9076 281.441 35.5963 282.644 35.3245ZM165.779 114.14H128.069C127.77 114.14 123.422 112.863 123.143 112.612C119.766 109.541 124.808 102.42 126.201 98.683C134.062 77.6201 140.653 55.9933 149.485 35.3313C150.953 35.8477 149.499 39.0343 149.445 40.3932C148.602 62.5092 149.689 84.9378 150.151 107.02L151.51 108.025V35.3245C153.956 37.6278 155.247 41.7045 156.599 44.8436C164.515 63.2906 169.95 84.5709 178.573 102.366C179.429 104.139 180.197 106.456 182.079 107.346L152.822 30.3102C155.41 27.7826 157.517 30.7994 160.044 31.207C171.758 33.0891 181.78 25.9889 192.923 24.4262L192.95 19.6972C185.972 21.7627 179.116 24.5213 172.043 26.3014C166.907 27.5924 162.184 29.9569 157.938 25.8462C156.531 24.4805 155.791 22.1092 154.88 21.4298C153.087 20.0845 148.256 19.1468 146.455 21.1037C141.665 26.2878 149.214 29.3589 148.684 32.797C137.588 58.5888 130.277 85.9638 119.046 111.66C131.011 139.674 164.984 146.666 182.099 118.584C183.295 116.62 185.537 113.121 186.135 111.063C186.624 109.364 183.628 109.996 182.765 110.417C181.949 110.818 176.208 119.535 174.598 121.275C169.828 126.418 163.36 130.773 156.273 131.82C160.411 126.758 165.439 120.942 165.785 114.161L165.779 114.14ZM207.001 33.3541C203.427 34.5363 206.681 40.135 210.643 37.723C212.695 36.3641 209.467 32.5388 207.001 33.3541ZM223.967 33.3677C222.214 33.9588 221.915 38.1238 225.23 38.1102C230.102 38.0899 228.451 31.8593 223.967 33.3677ZM213 105.308C216.119 105.729 219.971 105.002 223.192 105.308L224.082 106.836C222.166 116.926 220.005 127.981 220.794 138.288C221.534 147.997 228.132 150.62 232.365 158.658L230.34 159.324L233.051 161.702C229.042 161.58 224.232 159.004 223.138 154.914C222.954 154.241 224.143 148.901 222.2 150.837C222.003 151.028 220.209 155.267 220.121 155.899C219.407 160.907 222.084 167.307 221.527 170.84C220.828 175.304 200.58 183.988 195.715 184.81C191.475 173.959 196.49 169.135 205.88 165.106L206.94 169.828L209.956 173.252C209.8 170.677 208.455 168.85 208.543 166.118C208.631 163.387 210.48 162.13 210.303 159.67C205.852 167.035 193.453 164.637 192.277 174.258C191.801 178.165 192.712 182.289 192.977 186.162L195.002 184.13C194.22 186.563 193.697 191.074 197.04 191.598C196.992 189.879 196.925 187.745 198.44 186.542C200.757 184.715 208.346 182.724 211.764 180.842C214.386 179.401 222.716 171.826 223.885 171.921C226.236 172.104 223.817 178.369 223.375 179.544C222.594 181.603 217.457 190.843 215.786 190.884C210.262 188.995 205.737 190.796 200.607 192.114C199.547 192.386 198.351 192.053 197.509 192.257C196.809 192.426 196.449 195.185 194.58 196.265C188.676 199.683 189.036 190.449 187.344 186.678C185.245 181.997 176.99 174.007 172.899 170.548C171.846 169.658 166.064 164.773 165.106 165.779C164.134 168.428 167.892 170.018 167.681 172.125C167.43 174.632 161.641 179.931 161.036 185.822C158.984 205.825 174.958 217.675 193.901 215.29C199.309 214.61 197.685 213.673 199.411 209.256C202.048 212.198 203.352 214.814 201.796 218.762C204.833 218.769 206.389 216.228 208.577 214.692C210.921 220.08 205.098 226.46 201.776 230.639C196.911 236.76 187.215 246.993 180.693 251.002C179.483 251.749 177.642 251.661 177.336 252.727C182.378 252.299 188.01 247.244 191.74 243.895C198.827 237.528 204.167 229.613 210.493 223.042C211.159 222.349 211.159 221.12 212.661 221.48C213.109 221.935 208.081 229.103 207.381 230.122C201.484 238.602 190.015 252.204 181.746 258.163C181.141 258.598 180.19 259.59 179.361 259.216C177.859 257.361 175.169 256.118 175.291 253.414C173.253 253.815 171.078 253.957 171.214 256.417C171.404 259.882 178.267 263.32 177.995 264.584C176.025 267.648 166.648 271.202 166.696 274.68C166.75 278.784 170.528 286.713 172.723 290.321C174.265 292.862 177.574 295.981 178.62 298.013C180.991 302.626 175.943 319.449 175.311 325.788C175.101 327.915 174.387 334.784 175.488 336.136C177.948 339.153 190.782 339.819 194.594 340.465C203.468 341.966 204.555 350.466 210.432 355.936C213.523 355.725 216.173 354.094 219.299 353.476C225.224 352.307 237.943 352.131 240.695 358.905C241.394 360.631 242.651 369.232 242.611 371.312C242.529 375.939 241.177 382.747 239.179 386.932L243.31 388.896C246.708 392.925 236.421 402.07 234.063 404.931C233.615 405.474 232.263 406.296 233.397 406.983C259.488 395.085 289.791 373.153 279.742 340.24C277.697 333.534 269.836 323.424 264.659 318.634C263.911 317.941 263.476 317.037 262.267 317.295C269.666 328.228 276.427 342.102 275.163 355.664C274.144 366.61 266.31 377.012 258.197 383.874C265.094 369.361 261.397 358.524 249.677 348.564C242.278 342.272 233.275 338.827 225.631 333.201C199.255 313.776 193.228 292.319 200.893 260.337C201.307 258.605 204.691 247.136 205.2 246.633C205.533 246.3 206.654 246.123 206.403 247.489C205.696 251.335 205.649 255.35 205.846 259.23C206.348 269.211 208.027 280.34 211.295 289.791C212.165 292.312 213.17 296.233 215.378 297.591C211.41 279.613 209.243 261.356 214.522 243.392C217.036 234.844 221.222 224.163 226.929 217.417C225.373 221.283 223.117 224.857 221.656 228.784C211.261 256.729 222.417 286.347 243.908 305.412L261.581 316.609L250.03 307.437L251.627 305.826L260.208 311.187L259.529 271.779C255.846 276.298 253.543 281.291 247.149 281.495C246.816 281.509 245.213 282.175 245.281 280.945C245.342 279.858 257.137 267.193 259.012 264.115C266.609 251.64 266.018 228.104 260.344 214.916C258.972 211.73 256.831 209.032 255.452 205.873L254.1 206.212C254.086 208.38 255.004 210.405 255.282 212.504C255.377 213.245 256.037 214.841 254.793 214.692L251.729 204.507C249.269 207.816 247.435 211.492 245.159 214.923C244.255 216.282 242.597 217.308 241.931 218.551C240.348 221.507 242.78 226.222 236.795 226.929L236.434 224.211L233.044 224.884C238.235 218.823 248.366 208.19 249.364 200.104C250.438 191.428 249.344 177.146 247.672 168.469C245.043 154.799 240.851 151.476 244.391 136.698C246.443 128.137 242.38 120.126 241.272 111.674C240.769 107.815 239.798 99.0703 239.811 95.4285C239.811 93.2067 243.059 89.3474 243.942 86.65C245.818 80.9358 245.573 71.9535 242.93 66.5248C241.408 63.4061 235.157 57.0057 232.004 55.7011C231.692 55.5721 230.89 55.5245 230.999 56.0273C234.58 59.2071 239.485 62.1967 240.504 67.2382C233.846 62.55 228.526 55.4497 219.448 55.6943C223.681 66.6674 234.804 75.4119 233.03 88.3011C232.29 89.0824 219.706 82.4034 215.82 83.6468C210.045 85.4949 223.919 91.773 224.435 92.3438C226.793 94.9461 221.133 95.1907 219.095 95.1567C213.347 95.0548 205.893 93.0096 204.623 86.4394C203.678 81.5405 209.793 74.583 213.32 71.6546C213.795 71.2605 219.36 66.5927 218.694 69.5483C217.634 74.3112 211.397 83.3139 222.023 82.0501C225.869 76.8184 223.776 72.2525 221.398 66.9936L215.623 55.7895C210.106 53.853 205.717 62.4888 201.361 59.112C200.363 58.3374 201.606 56.3194 200.084 57.0668C195.172 59.4925 190.68 71.2469 190.3 76.5126C189.355 89.6667 199.751 103.507 212.987 105.301L213 105.308ZM254.25 109.88C253.903 109.663 254.365 108.494 253.774 108.712C252.123 110.003 251.804 110.73 252.367 112.795C252.952 114.922 258.897 123.945 260.568 125.691C262.94 128.171 268.797 131.833 271.997 133.287C292.367 142.541 311.941 130.338 318.668 110.417L275.177 110.757C275.02 111.946 276.719 111.395 277.541 111.429C284.954 111.735 292.564 111.416 299.997 111.402C301.607 111.402 303.075 112.156 304.692 112.136C306.309 112.116 314.211 110.41 314.571 110.757C309.781 121.927 300.241 129.061 288.766 132.492L296.586 121.635C297.918 119.1 299.249 116.437 298.95 113.475C287.991 114.039 275.605 114.935 264.645 114.147C262.627 114.005 256.247 113.413 255.473 111.769L256.825 110.084C255.982 110.037 255.017 110.37 254.25 109.887V109.88ZM192.957 165.106L173.932 167.144C181.195 172.947 189.016 179.632 191.604 188.88L192.943 188.554C189.892 181.202 188.995 172.328 192.957 165.106ZM219.448 280.612C217.634 278.832 218.028 284.967 218.076 285.728C219.401 306.248 238.663 322.452 256.152 330.198C251.674 326.318 246.314 323.662 241.877 319.68C230.102 309.128 224.32 295.288 219.455 280.605L219.448 280.612ZM311.86 328.839C308.021 327.304 304.583 324.803 300.676 323.383C292.659 320.475 283.989 320.074 275.856 317.628C270.903 316.14 266.418 313.599 261.588 311.86C265.535 316.82 271.107 320.251 275.197 325.082C280.85 331.768 284.227 340.431 284.696 349.216C291.524 347.313 292.659 337.944 298.957 334.954C296.837 340.526 292.74 345.071 290.485 350.595C286.972 359.19 285.565 370.299 287.468 379.411C288.079 382.332 290.009 385.362 290.512 388.597C292.183 399.346 285.559 407.995 286.034 418.499C276.203 418.309 266.31 418.234 256.478 417.874C217.444 416.447 180.686 416.699 141.685 417.854C132.567 418.125 117.708 420.49 109.629 416.604C104.764 414.259 98.6627 410.339 95.1364 406.303L99.8789 405.277L97.2291 402.464L98.8937 400.195C110.601 395.425 126.805 380.946 138.132 377.61C142.793 376.238 147.732 377.793 152.393 376.924C157.054 376.054 160.798 372.079 164.766 370.272C171.459 367.221 180.679 365.951 187.915 363.525C190.361 362.703 204.759 357.179 205.587 356.038L197.733 343.801C196.014 343.957 198.304 347.144 197.733 347.871C194.275 346.43 190.178 347.531 186.502 347.218C180.808 346.729 175.4 345.092 169.882 343.787C172.709 340.186 169.713 335.328 172.593 331.897L171.588 331.571L145.076 353.293L144.057 351.961C147.997 349.732 151.7 346.05 154.935 342.781C155.75 341.959 155.94 340.546 156.674 339.765C157.931 338.426 160.438 336.823 161.947 335.525C162.544 335.015 164.155 334.193 162.076 334.288C159.052 336.687 155.567 338.698 152.563 341.09C145.252 346.892 138.954 355.732 129.788 358.069C130.305 359.53 130.454 359.265 131.596 358.871C134.456 357.892 137.731 355.616 140.32 353.986C140.843 353.877 140.245 356.574 142.005 356.038C136.562 361.657 128.124 361.82 121.166 364.734C105.24 371.4 99.8314 383.114 88.3419 393.74C82.3764 399.264 74.3589 403.429 68.2778 409.007C65.3154 409.884 70.0784 404.469 70.6559 403.905C77.1446 397.552 86.3647 393.815 93.1116 386.952C98.4181 381.551 100.973 374.743 106.463 369.728C111.953 364.714 119.264 360.95 127.064 360.094C127.186 358.823 124.862 359.442 124.176 359.584C116.24 361.222 109.065 365.054 102.97 370.313C95.4829 376.767 91.7392 386.11 83.9391 392.728C77.7765 397.959 65.9609 402.94 63.1752 410.692C62.5908 412.309 61.2387 416.583 62.1424 417.881C62.7471 418.751 64.9825 418.35 65.2339 419.878L44.8572 420.571L50.6597 421.278L61.8367 420.571C61.8367 421.72 59.5741 421.862 58.7859 421.93C40.964 423.323 22.9382 422.236 5.18427 424.723L0.0136719 425.993H398.163L379.472 423.296C358.851 421.767 344.698 425.627 325.449 415.489C322.976 414.185 311.221 407.234 310.168 405.63C309.726 404.965 309.794 404.326 309.842 403.585L315.271 404.937C311.147 401.33 311.643 397.484 311.88 392.381C312.363 382.122 315.57 371.699 317.112 361.602C318.838 350.323 322.058 336.599 314.931 326.808L314.265 328.167L308.823 325.435L311.874 328.832L311.86 328.839ZM268.375 360.101C268.871 351.567 269.204 343.121 262.274 337.006C263.898 342.945 266.018 348.224 266.942 354.414C267.037 355.052 266.636 362.384 268.382 360.101H268.375Z" fill="white" stroke="white" stroke-width="2"/>
</g>
<mask id="mask1_180_1058" style="mask-type:luminance" maskUnits="userSpaceOnUse" x="160" y="55" width="122" height="352">
<path d="M213 105.308C199.764 103.521 189.369 89.6737 190.313 76.5196C190.694 71.2538 195.185 59.4993 200.097 57.0737C201.619 56.3263 200.376 58.3443 201.375 59.1188C205.723 62.4957 210.119 53.8599 215.636 55.7963L221.412 67.0005C223.79 72.2594 225.882 76.8253 222.037 82.0571C211.41 83.3276 217.647 74.3181 218.707 69.5552C219.366 66.5996 213.808 71.2674 213.333 71.6615C209.807 74.5899 203.691 81.5475 204.636 86.4463C205.9 93.0166 213.36 95.0617 219.108 95.1637C221.147 95.1976 226.806 94.953 224.449 92.3507C223.932 91.78 210.051 85.5019 215.833 83.6538C219.72 82.4104 232.303 89.0894 233.044 88.308C234.817 75.4188 223.694 66.6743 219.461 55.7012C228.539 55.4566 233.859 62.5636 240.518 67.2451C239.505 62.2035 234.593 59.2072 231.012 56.0341C230.903 55.5313 231.705 55.5789 232.018 55.708C235.17 57.0057 241.421 63.4062 242.943 66.5316C245.586 71.9536 245.831 80.936 243.956 86.657C243.072 89.3544 239.831 93.2136 239.825 95.4355C239.818 99.0773 240.783 107.815 241.285 111.681C242.393 120.133 246.456 128.144 244.404 136.705C240.864 151.483 245.05 154.806 247.686 168.476C249.357 177.153 250.451 191.435 249.378 200.112C248.379 208.19 238.242 218.83 233.057 224.891L236.448 224.218L236.808 226.936C242.794 226.236 240.361 221.521 241.945 218.559C242.61 217.315 244.268 216.282 245.172 214.93C247.455 211.499 249.289 207.823 251.742 204.514L254.806 214.699C256.05 214.856 255.398 213.252 255.296 212.512C255.017 210.412 254.1 208.38 254.113 206.22L255.466 205.88C256.838 209.04 258.985 211.737 260.358 214.924C266.038 228.112 266.629 251.641 259.026 264.123C257.151 267.2 245.355 279.872 245.294 280.953C245.226 282.176 246.837 281.51 247.163 281.503C253.556 281.292 255.853 276.298 259.542 271.787L260.222 311.195L251.64 305.834L250.044 307.444L261.594 316.617L243.922 305.42C222.431 286.361 211.274 256.737 221.67 228.791C223.131 224.864 225.38 221.29 226.942 217.424C221.242 224.178 217.049 234.852 214.535 243.399C209.256 261.357 211.424 279.621 215.392 297.599C213.183 296.24 212.185 292.313 211.308 289.799C208.04 280.348 206.355 269.225 205.859 259.237C205.662 255.358 205.709 251.342 206.416 247.496C206.667 246.131 205.546 246.307 205.213 246.64C204.704 247.15 201.32 258.612 200.906 260.345C193.242 292.333 199.268 313.784 225.644 333.209C233.288 338.835 242.291 342.28 249.69 348.571C261.411 358.532 265.107 369.369 258.211 383.882C266.33 377.02 274.164 366.618 275.176 355.672C276.44 342.103 269.68 328.235 262.28 317.303C263.497 317.038 263.932 317.949 264.672 318.642C269.843 323.432 277.704 333.542 279.756 340.248C289.812 373.161 259.502 395.093 233.411 406.991C232.283 406.304 233.628 405.482 234.076 404.939C236.434 402.078 246.721 392.933 243.324 388.904L239.193 386.94C241.19 382.755 242.542 375.94 242.624 371.319C242.658 369.24 241.408 360.638 240.708 358.913C237.956 352.139 225.237 352.315 219.312 353.484C216.187 354.095 213.537 355.733 210.445 355.943C204.568 350.481 203.481 341.974 194.607 340.472C190.796 339.827 177.961 339.161 175.501 336.144C174.4 334.792 175.114 327.923 175.324 325.796C175.956 319.457 181.005 302.627 178.633 298.02C177.587 295.989 174.278 292.87 172.736 290.329C170.548 286.721 166.77 278.792 166.709 274.688C166.661 271.216 176.038 267.663 178.008 264.591C178.28 263.328 171.418 259.89 171.227 256.424C171.091 253.965 173.272 253.829 175.304 253.421C175.182 256.125 177.879 257.376 179.374 259.224C180.203 259.597 181.154 258.605 181.759 258.171C190.028 252.212 201.497 238.609 207.394 230.13C208.101 229.117 213.122 221.942 212.674 221.487C211.172 221.127 211.172 222.357 210.506 223.05C204.181 229.613 198.84 237.536 191.754 243.902C188.023 247.252 182.391 252.307 177.349 252.735C177.655 251.668 179.496 251.75 180.706 251.009C187.228 247 196.924 236.768 201.789 230.646C205.112 226.467 210.934 220.087 208.59 214.699C206.402 216.242 204.847 218.776 201.809 218.769C203.365 214.822 202.061 212.206 199.425 209.264C197.692 213.68 199.323 214.618 193.914 215.297C174.971 217.682 158.997 205.833 161.049 185.83C161.654 179.939 167.45 174.632 167.694 172.132C167.905 170.019 164.147 168.436 165.119 165.786C166.077 164.787 171.859 169.665 172.912 170.555C177.003 174.014 185.258 182.004 187.357 186.686C189.049 190.457 188.689 199.69 194.594 196.273C196.462 195.192 196.822 192.427 197.522 192.264C198.365 192.06 199.56 192.393 200.62 192.121C205.75 190.796 210.275 189.003 215.799 190.891C217.471 190.851 222.607 181.603 223.389 179.551C223.837 178.376 226.256 172.105 223.898 171.928C222.723 171.84 214.393 179.409 211.777 180.849C208.359 182.731 200.77 184.722 198.453 186.55C196.938 187.752 197.006 189.886 197.053 191.605C193.71 191.082 194.234 186.563 195.015 184.138L192.99 186.169C192.725 182.303 191.815 178.179 192.29 174.265C193.466 164.644 205.866 167.043 210.316 159.677C210.493 162.137 208.645 163.258 208.556 166.125C208.468 168.993 209.813 170.691 209.97 173.26L206.953 169.835L205.893 165.113C196.503 169.135 191.495 173.966 195.728 184.817C200.593 184.002 220.841 175.312 221.541 170.848C222.098 167.308 219.421 160.914 220.134 155.907C220.222 155.275 222.023 151.035 222.213 150.845C224.163 148.908 222.974 154.249 223.151 154.921C224.245 159.012 229.062 161.58 233.064 161.709L230.353 159.331L232.378 158.665C228.145 150.627 221.547 148.005 220.807 138.295C220.025 127.995 222.186 116.94 224.095 106.843L223.205 105.315C219.985 105.009 216.132 105.736 213.014 105.315L213 105.308ZM167.13 198.393C167.626 196.116 165.928 193.249 166.091 191.238C166.288 188.839 166.356 186.91 166.485 184.498C166.593 182.453 169.44 180.041 168.496 177.336L163.346 189.234L167.137 198.399L167.13 198.393ZM201.789 193.636C199.73 193.303 200.709 194.16 200.417 195.287C199.017 200.709 201.952 206.227 205.859 209.943C204.616 204.501 201.544 199.371 201.782 193.636H201.789ZM227.601 211.982C221.948 213.408 214.515 213.218 209.949 209.264C210.241 214.971 222.635 215.766 226.073 214.183C227.031 213.741 227.853 213.177 227.601 211.982ZM241.19 295.554C238.54 288.175 234.158 281.632 231.658 274.178C227.316 261.208 226.073 246.335 228.451 232.868C229.083 229.301 231.264 225.231 231.352 221.501C226.684 232.392 223.192 244.412 224.299 256.404C225.515 269.538 233.71 284.955 241.19 295.561V295.554ZM180.651 286.64C181.501 286.11 183.94 276.523 184.674 274.702C187.262 268.328 191.291 262.607 193.629 256.146C188.859 257.715 186.128 263.131 182.316 265.549C178.661 267.866 173.34 268.131 170.154 271.753C169.868 273.22 171.044 273.988 172.246 274.477L172.579 271.773C172.742 271.569 173.388 272.12 173.599 272.446C174.693 274.124 178.097 286.273 178.735 286.687L180.645 286.64H180.651ZM197.033 332.924C194.675 323.941 191.06 316.087 189.64 306.69C189.287 304.332 190.415 300.432 188.214 298.965L180.774 329.119C181.161 330.383 196.258 333.657 197.04 332.93L197.033 332.924ZM226.249 345.826L203.155 326.809L213.448 347.083C217.742 347.593 222.057 346.642 226.249 345.826ZM249.357 376.409C251.715 375.056 254.256 369.41 253.821 366.855C253.468 364.81 246.673 355.284 245.281 356.711C248.291 363.146 251.81 369.043 249.357 376.409Z" fill="white"/>
</mask>
<g mask="url(#mask1_180_1058)">
<path d="M213 105.308C199.764 103.521 189.369 89.6737 190.313 76.5196C190.694 71.2538 195.185 59.4993 200.097 57.0737C201.619 56.3263 200.376 58.3443 201.375 59.1188C205.723 62.4957 210.119 53.8599 215.636 55.7963L221.412 67.0005C223.79 72.2594 225.882 76.8253 222.037 82.0571C211.41 83.3276 217.647 74.3181 218.707 69.5552C219.366 66.5996 213.808 71.2674 213.333 71.6615C209.807 74.5899 203.691 81.5475 204.636 86.4463C205.9 93.0166 213.36 95.0617 219.108 95.1637C221.147 95.1976 226.806 94.953 224.449 92.3507C223.932 91.78 210.051 85.5019 215.833 83.6538C219.72 82.4104 232.303 89.0894 233.044 88.308C234.817 75.4188 223.694 66.6743 219.461 55.7012C228.539 55.4566 233.859 62.5636 240.518 67.2451C239.505 62.2035 234.593 59.2072 231.012 56.0341C230.903 55.5313 231.705 55.5789 232.018 55.708C235.17 57.0057 241.421 63.4062 242.943 66.5316C245.586 71.9536 245.831 80.936 243.956 86.657C243.072 89.3544 239.831 93.2136 239.825 95.4355C239.818 99.0773 240.783 107.815 241.285 111.681C242.393 120.133 246.456 128.144 244.404 136.705C240.864 151.483 245.05 154.806 247.686 168.476C249.357 177.153 250.451 191.435 249.378 200.112C248.379 208.19 238.242 218.83 233.057 224.891L236.448 224.218L236.808 226.936C242.794 226.236 240.361 221.521 241.945 218.559C242.61 217.315 244.268 216.282 245.172 214.93C247.455 211.499 249.289 207.823 251.742 204.514L254.806 214.699C256.05 214.856 255.398 213.252 255.296 212.512C255.017 210.412 254.1 208.38 254.113 206.22L255.466 205.88C256.838 209.04 258.985 211.737 260.358 214.924C266.038 228.112 266.629 251.641 259.026 264.123C257.151 267.2 245.355 279.872 245.294 280.953C245.226 282.176 246.837 281.51 247.163 281.503C253.556 281.292 255.853 276.298 259.542 271.787L260.222 311.195L251.64 305.834L250.044 307.444L261.594 316.617L243.922 305.42C222.431 286.361 211.274 256.737 221.67 228.791C223.131 224.864 225.38 221.29 226.942 217.424C221.242 224.178 217.049 234.852 214.535 243.399C209.256 261.357 211.424 279.621 215.392 297.599C213.183 296.24 212.185 292.313 211.308 289.799C208.04 280.348 206.355 269.225 205.859 259.237C205.662 255.358 205.709 251.342 206.416 247.496C206.667 246.131 205.546 246.307 205.213 246.64C204.704 247.15 201.32 258.612 200.906 260.345C193.242 292.333 199.268 313.784 225.644 333.209C233.288 338.835 242.291 342.28 249.69 348.571C261.411 358.532 265.107 369.369 258.211 383.882C266.33 377.02 274.164 366.618 275.176 355.672C276.44 342.103 269.68 328.235 262.28 317.303C263.497 317.038 263.932 317.949 264.672 318.642C269.843 323.432 277.704 333.542 279.756 340.248C289.812 373.161 259.502 395.093 233.411 406.991C232.283 406.304 233.628 405.482 234.076 404.939C236.434 402.078 246.721 392.933 243.324 388.904L239.193 386.94C241.19 382.755 242.542 375.94 242.624 371.319C242.658 369.24 241.408 360.638 240.708 358.913C237.956 352.139 225.237 352.315 219.312 353.484C216.187 354.095 213.537 355.733 210.445 355.943C204.568 350.481 203.481 341.974 194.607 340.472C190.796 339.827 177.961 339.161 175.501 336.144C174.4 334.792 175.114 327.923 175.324 325.796C175.956 319.457 181.005 302.627 178.633 298.02C177.587 295.989 174.278 292.87 172.736 290.329C170.548 286.721 166.77 278.792 166.709 274.688C166.661 271.216 176.038 267.663 178.008 264.591C178.28 263.328 171.418 259.89 171.227 256.424C171.091 253.965 173.272 253.829 175.304 253.421C175.182 256.125 177.879 257.376 179.374 259.224C180.203 259.597 181.154 258.605 181.759 258.171C190.028 252.212 201.497 238.609 207.394 230.13C208.101 229.117 213.122 221.942 212.674 221.487C211.172 221.127 211.172 222.357 210.506 223.05C204.181 229.613 198.84 237.536 191.754 243.902C188.023 247.252 182.391 252.307 177.349 252.735C177.655 251.668 179.496 251.75 180.706 251.009C187.228 247 196.924 236.768 201.789 230.646C205.112 226.467 210.934 220.087 208.59 214.699C206.402 216.242 204.847 218.776 201.809 218.769C203.365 214.822 202.061 212.206 199.425 209.264C197.692 213.68 199.323 214.618 193.914 215.297C174.971 217.682 158.997 205.833 161.049 185.83C161.654 179.939 167.45 174.632 167.694 172.132C167.905 170.019 164.147 168.436 165.119 165.786C166.077 164.787 171.859 169.665 172.912 170.555C177.003 174.014 185.258 182.004 187.357 186.686C189.049 190.457 188.689 199.69 194.594 196.273C196.462 195.192 196.822 192.427 197.522 192.264C198.365 192.06 199.56 192.393 200.62 192.121C205.75 190.796 210.275 189.003 215.799 190.891C217.471 190.851 222.607 181.603 223.389 179.551C223.837 178.376 226.256 172.105 223.898 171.928C222.723 171.84 214.393 179.409 211.777 180.849C208.359 182.731 200.77 184.722 198.453 186.55C196.938 187.752 197.006 189.886 197.053 191.605C193.71 191.082 194.234 186.563 195.015 184.138L192.99 186.169C192.725 182.303 191.815 178.179 192.29 174.265C193.466 164.644 205.866 167.043 210.316 159.677C210.493 162.137 208.645 163.258 208.556 166.125C208.468 168.993 209.813 170.691 209.97 173.26L206.953 169.835L205.893 165.113C196.503 169.135 191.495 173.966 195.728 184.817C200.593 184.002 220.841 175.312 221.541 170.848C222.098 167.308 219.421 160.914 220.134 155.907C220.222 155.275 222.023 151.035 222.213 150.845C224.163 148.908 222.974 154.249 223.151 154.921C224.245 159.012 229.062 161.58 233.064 161.709L230.353 159.331L232.378 158.665C228.145 150.627 221.547 148.005 220.807 138.295C220.025 127.995 222.186 116.94 224.095 106.843L223.205 105.315C219.985 105.009 216.132 105.736 213.014 105.315L213 105.308ZM167.13 198.393C167.626 196.116 165.928 193.249 166.091 191.238C166.288 188.839 166.356 186.91 166.485 184.498C166.593 182.453 169.44 180.041 168.496 177.336L163.346 189.234L167.137 198.399L167.13 198.393ZM201.789 193.636C199.73 193.303 200.709 194.16 200.417 195.287C199.017 200.709 201.952 206.227 205.859 209.943C204.616 204.501 201.544 199.371 201.782 193.636H201.789ZM227.601 211.982C221.948 213.408 214.515 213.218 209.949 209.264C210.241 214.971 222.635 215.766 226.073 214.183C227.031 213.741 227.853 213.177 227.601 211.982ZM241.19 295.554C238.54 288.175 234.158 281.632 231.658 274.178C227.316 261.208 226.073 246.335 228.451 232.868C229.083 229.301 231.264 225.231 231.352 221.501C226.684 232.392 223.192 244.412 224.299 256.404C225.515 269.538 233.71 284.955 241.19 295.561V295.554ZM180.651 286.64C181.501 286.11 183.94 276.523 184.674 274.702C187.262 268.328 191.291 262.607 193.629 256.146C188.859 257.715 186.128 263.131 182.316 265.549C178.661 267.866 173.34 268.131 170.154 271.753C169.868 273.22 171.044 273.988 172.246 274.477L172.579 271.773C172.742 271.569 173.388 272.12 173.599 272.446C174.693 274.124 178.097 286.273 178.735 286.687L180.645 286.64H180.651ZM197.033 332.924C194.675 323.941 191.06 316.087 189.64 306.69C189.287 304.332 190.415 300.432 188.214 298.965L180.774 329.119C181.161 330.383 196.258 333.657 197.04 332.93L197.033 332.924ZM226.249 345.826L203.155 326.809L213.448 347.083C217.742 347.593 222.057 346.642 226.249 345.826ZM249.357 376.409C251.715 375.056 254.256 369.41 253.821 366.855C253.468 364.81 246.673 355.284 245.281 356.711C248.291 363.146 251.81 369.043 249.357 376.409Z" fill="white" stroke="white" stroke-width="2"/>
</g>
<path d="M263.229 313.033C264.985 313.74 266.711 314.526 268.461 315.302C270.805 316.341 273.188 317.36 275.697 318.113C279.797 319.346 284.03 320.062 288.204 320.828C292.39 321.597 296.526 322.418 300.491 323.859C302.405 324.555 304.21 325.518 306.04 326.514C307.859 327.504 309.707 328.529 311.659 329.31L311.868 329.394L312.068 329.293L312.082 329.286L312.669 328.993L312.23 328.505L310.945 327.074L314.026 328.62L314.478 328.847L314.699 328.393L314.99 327.798C318.077 332.429 318.953 337.918 318.829 343.643C318.699 349.665 317.471 355.863 316.603 361.533C315.835 366.565 314.653 371.67 313.595 376.837C312.605 381.67 311.726 386.544 311.42 391.395L311.366 392.364C311.249 394.882 311.058 397.194 311.433 399.314C311.727 400.984 312.372 402.538 313.644 404.026L309.948 403.107L309.372 402.963L309.329 403.555C309.277 404.27 309.187 405.084 309.736 405.913C309.916 406.186 310.274 406.513 310.696 406.856C311.137 407.212 311.703 407.629 312.353 408.081C313.652 408.986 315.307 410.05 317 411.103C320.384 413.206 323.952 415.277 325.2 415.938L325.201 415.939C334.904 421.048 343.326 422.63 351.899 423.126C356.177 423.374 360.498 423.352 365.02 423.363C369.541 423.375 374.274 423.42 379.406 423.8L391.184 425.5H4.12891L5.26075 425.221C14.0966 423.984 23.0097 423.636 31.9541 423.423C40.8975 423.21 49.8812 423.132 58.8095 422.435C59.193 422.405 60.0064 422.35 60.7265 422.146C61.0852 422.044 61.4634 421.893 61.7617 421.659C62.0726 421.415 62.3193 421.059 62.3222 420.581V420.484L65.2363 420.385L65.8076 420.365L65.7119 419.802C65.529 418.719 64.617 418.361 63.9472 418.16C63.5664 418.046 63.2851 417.985 63.001 417.882C62.7293 417.783 62.5986 417.689 62.5381 417.602L62.4902 417.522C62.385 417.315 62.3178 416.964 62.3252 416.451C62.3333 415.888 62.4293 415.216 62.5752 414.515C62.8665 413.115 63.3427 411.667 63.6308 410.869C64.9659 407.154 68.4939 404.047 72.5644 401.18C73.8314 400.288 75.1381 399.428 76.4345 398.583C74.252 400.109 72.1603 401.724 70.291 403.554C69.9778 403.86 68.6223 405.379 67.7109 406.722C67.4814 407.06 67.2738 407.396 67.1162 407.706C66.9642 408.005 66.8355 408.325 66.8066 408.616C66.7918 408.766 66.7989 408.945 66.876 409.119C66.9593 409.307 67.1065 409.448 67.2939 409.528C67.62 409.668 68.0217 409.607 68.4052 409.493L68.5156 409.46L68.6015 409.382C71.6122 406.62 75.1072 404.204 78.623 401.771C81.9083 399.497 85.2127 397.209 88.0957 394.633L88.667 394.113C91.5564 391.438 94.0609 388.698 96.4355 385.996C98.8153 383.289 101.052 380.634 103.435 378.098C108.185 373.039 113.465 368.499 121.345 365.202C124.795 363.757 128.557 363.013 132.284 361.885C135.968 360.77 139.539 359.294 142.35 356.392L141.843 355.567C141.515 355.668 141.419 355.59 141.388 355.563C141.313 355.497 141.234 355.349 141.171 355.072C141.156 355.008 141.144 354.942 141.132 354.874L141.032 354.25C141.009 354.132 140.97 353.962 140.886 353.819C140.84 353.742 140.763 353.641 140.637 353.569C140.499 353.492 140.348 353.474 140.209 353.501L140.117 353.52L140.038 353.569C137.574 355.121 134.605 357.169 131.945 358.21L131.418 358.404C131.089 358.518 130.923 358.589 130.739 358.647C130.663 358.671 130.616 358.679 130.591 358.683C130.58 358.669 130.562 358.649 130.542 358.615C130.511 358.563 130.478 358.496 130.44 358.411C134.903 357.137 138.678 354.376 142.188 351.259C144.014 349.637 145.785 347.906 147.54 346.231C149.3 344.551 151.051 342.923 152.859 341.487C154.344 340.309 155.95 339.221 157.578 338.117C158.138 337.738 158.699 337.354 159.259 336.967C159.139 337.056 159.019 337.146 158.898 337.236C157.931 337.964 156.957 338.723 156.295 339.429C155.857 339.896 155.59 340.534 155.359 341.062C155.112 341.627 154.894 342.098 154.564 342.437C151.321 345.714 147.672 349.344 143.796 351.532L143.296 351.815L143.645 352.272L144.664 353.603L144.978 354.014L145.378 353.686L171.678 332.137L171.765 332.164C170.627 333.919 170.672 335.938 170.703 337.791C170.739 339.913 170.762 341.842 169.475 343.485L168.992 344.1L169.753 344.28C175.223 345.575 180.703 347.236 186.445 347.723C188.324 347.882 190.337 347.683 192.201 347.628C194.102 347.572 195.9 347.662 197.526 348.339L197.881 348.486L198.115 348.182C198.288 347.956 198.316 347.688 198.31 347.482C198.303 347.268 198.255 347.04 198.197 346.824C198.087 346.413 197.89 345.882 197.762 345.476C197.625 345.041 197.555 344.712 197.567 344.497L204.911 355.939C204.786 356.019 204.629 356.116 204.436 356.222C203.973 356.475 203.345 356.781 202.597 357.125C201.102 357.812 199.157 358.632 197.155 359.444C193.149 361.07 188.949 362.652 187.741 363.058C184.149 364.265 180.067 365.182 176.005 366.188C171.96 367.189 167.94 368.277 164.544 369.823C162.517 370.748 160.497 372.24 158.5 373.548C156.472 374.876 154.441 376.037 152.287 376.439C150.098 376.847 147.768 376.682 145.323 376.575C142.907 376.47 140.394 376.425 137.976 377.137C132.224 378.834 125.274 383.339 118.363 387.958C111.41 392.606 104.484 397.378 98.6904 399.738L98.5595 399.792L98.4756 399.905L96.8115 402.175L96.5654 402.511L96.8506 402.814L98.8926 404.982L95.0156 405.82L94.1875 406L94.7451 406.639C98.11 410.49 103.742 414.207 108.466 416.6L109.397 417.061C113.554 419.06 119.397 419.433 125.265 419.294C128.21 419.224 131.185 419.023 133.986 418.824C136.442 418.65 138.76 418.477 140.819 418.391L141.686 418.36C180.678 417.206 217.418 416.954 256.445 418.38C266.283 418.74 276.186 418.816 286.01 419.006L286.543 419.016L286.519 418.484C286.285 413.331 287.792 408.63 289.187 403.784C290.575 398.965 291.845 394.02 290.991 388.526C290.73 386.845 290.099 385.228 289.478 383.702C288.928 382.349 288.39 381.078 288.067 379.842L287.942 379.315C286.063 370.314 287.459 359.307 290.933 350.791C292.041 348.076 293.605 345.595 295.182 343.064C296.75 340.545 298.33 337.976 299.41 335.139L299.853 333.976L298.728 334.509C295.424 336.077 293.49 339.316 291.594 342.227C289.781 345.01 287.999 347.51 285.139 348.55C284.537 339.881 281.151 331.373 275.564 324.766C273.489 322.312 271.042 320.218 268.652 318.143C266.752 316.493 264.887 314.853 263.229 313.033ZM116.892 362.309C112.944 364.026 109.312 366.439 106.11 369.366C103.203 372.025 101.162 375.028 99.2021 378.006C97.3574 380.808 95.588 383.58 93.2217 386.107L92.7402 386.609C89.4605 389.944 85.5818 392.538 81.6787 395.089C82.6014 394.433 83.4683 393.777 84.248 393.115C88.2018 389.761 91.121 385.721 93.9638 381.757C96.8174 377.778 99.5916 373.88 103.282 370.698V370.697C107.366 367.173 111.936 364.3 116.892 362.309ZM294.112 352.35C291.732 356.062 290.259 361.21 290.066 366.303C289.874 371.391 290.959 376.508 293.793 380.113L294.892 381.511L294.683 379.745L293.282 367.912L295.029 352.677L294.112 352.35Z" stroke="white"/>
<path d="M192.418 23.9728C186.945 24.8105 181.715 26.939 176.536 28.6154C171.192 30.3455 165.852 31.6181 160.117 30.6935C159.565 30.6044 159.015 30.3687 158.432 30.0734C157.873 29.7907 157.244 29.4303 156.64 29.1769C156.02 28.917 155.343 28.7302 154.622 28.8097C153.89 28.8905 153.174 29.2385 152.465 29.9327L152.23 30.1613L152.347 30.4679L180.944 105.766C180.737 105.507 180.545 105.222 180.365 104.914C179.843 104.023 179.466 103.062 179.016 102.128L178.219 100.454C174.278 92.0408 170.996 82.9003 167.784 73.6652C164.362 63.8235 161.018 53.8701 157.052 44.6261C156.397 43.0985 155.715 41.2386 154.916 39.5353C154.11 37.8165 153.141 36.1532 151.845 34.9396L151.003 34.1515V107.013L150.639 106.743C150.173 84.7226 149.099 62.4069 149.938 40.3927C149.949 40.1113 150.035 39.7068 150.158 39.1993C150.276 38.7131 150.422 38.1489 150.519 37.6144C150.614 37.0866 150.674 36.5252 150.589 36.0421C150.5 35.5359 150.234 35.0482 149.646 34.84L149.203 34.6837L149.019 35.1144C140.182 55.7855 133.577 77.4686 125.726 98.4874C125.387 99.3916 124.825 100.509 124.203 101.762C123.588 103.001 122.923 104.357 122.407 105.697C121.894 107.033 121.513 108.392 121.492 109.637C121.472 110.896 121.821 112.072 122.8 112.962L122.801 112.963C122.875 113.03 122.966 113.075 123.014 113.099C123.076 113.129 123.15 113.162 123.229 113.193C123.387 113.257 123.59 113.331 123.819 113.409C124.279 113.567 124.864 113.753 125.446 113.929C126.029 114.105 126.615 114.274 127.074 114.4C127.303 114.462 127.505 114.514 127.66 114.551C127.737 114.569 127.807 114.585 127.865 114.597C127.908 114.605 127.989 114.62 128.062 114.62H165.242C164.974 117.705 163.72 120.605 162.019 123.352C160.222 126.252 157.956 128.942 155.879 131.484L155.062 132.483L156.339 132.294C163.581 131.226 170.139 126.789 174.957 121.594C175.384 121.135 176.063 120.24 176.836 119.178C177.616 118.107 178.512 116.838 179.38 115.616C180.25 114.392 181.09 113.214 181.764 112.319C182.101 111.871 182.392 111.501 182.62 111.232C182.735 111.097 182.829 110.993 182.901 110.921C182.977 110.846 183.002 110.834 182.986 110.842C183.356 110.664 184.238 110.423 184.949 110.425C185.319 110.426 185.534 110.493 185.625 110.563C185.656 110.587 185.668 110.606 185.675 110.633C185.681 110.659 185.688 110.712 185.672 110.802L185.647 110.904C185.37 111.87 184.69 113.214 183.905 114.592C183.126 115.96 182.272 117.314 181.666 118.303L181.665 118.304C173.2 132.187 160.616 137.352 148.7 135.643C136.82 133.939 125.525 125.389 119.584 111.639C125.166 98.8361 129.784 85.6214 134.379 72.4132C138.999 59.13 143.596 45.8536 149.136 32.9738L149.161 32.9161L149.171 32.8527C149.333 31.8018 148.869 30.8304 148.298 29.9581C148.008 29.5156 147.671 29.0716 147.342 28.6359C147.008 28.1951 146.68 27.7596 146.385 27.3136C145.792 26.4175 145.375 25.5361 145.353 24.6056C145.33 23.695 145.684 22.6499 146.815 21.422C147.548 20.6257 148.994 20.3513 150.616 20.506C152.115 20.6489 153.578 21.1419 154.414 21.6974L154.573 21.8097C154.727 21.9263 154.905 22.1407 155.117 22.4689C155.326 22.7922 155.538 23.1782 155.779 23.6095C156.249 24.449 156.819 25.4463 157.583 26.1847C159.834 28.3632 162.233 28.8265 164.7 28.5763C165.92 28.4526 167.157 28.1555 168.396 27.8146C169.65 27.4691 170.878 27.0874 172.158 26.7657C175.715 25.8739 179.213 24.7354 182.685 23.5646C185.946 22.4646 189.18 21.3395 192.438 20.3517L192.418 23.9728Z" fill="white" stroke="white"/>
<path d="M253.615 109.622C253.625 109.717 253.651 109.891 253.749 110.054V110.157L253.983 110.304C254.496 110.626 255.054 110.66 255.528 110.642C255.599 110.639 255.671 110.631 255.742 110.626L255.082 111.45L254.888 111.693L255.02 111.975C255.168 112.292 255.431 112.543 255.723 112.745C256.018 112.948 256.377 113.123 256.767 113.276C257.547 113.581 258.515 113.821 259.499 114.008C260.979 114.29 262.542 114.463 263.66 114.563L264.609 114.639C275.444 115.418 287.665 114.558 298.485 113.994C298.59 116.59 297.415 118.979 296.156 121.369L288.359 132.194L287.501 133.386L288.909 132.964C300.501 129.493 310.177 122.281 315.03 110.947L315.033 110.939L317.961 110.915C314.57 120.46 308.185 128.123 300.215 132.342C292.07 136.654 282.246 137.385 272.203 132.826C270.633 132.112 268.392 130.847 266.244 129.449C264.091 128.046 262.074 126.536 260.93 125.339C260.133 124.507 258.254 121.856 256.48 119.108C255.6 117.743 254.754 116.37 254.095 115.208C253.508 114.175 253.092 113.349 252.912 112.85L252.85 112.656C252.57 111.644 252.547 111.074 252.708 110.625C252.837 110.268 253.104 109.927 253.608 109.488C253.61 109.534 253.611 109.58 253.615 109.622ZM309.012 110.986C308.223 111.123 307.451 111.257 306.768 111.367C305.784 111.525 305.034 111.626 304.688 111.629C303.975 111.635 303.264 111.467 302.477 111.279C302.137 111.197 301.781 111.115 301.416 111.045L309.012 110.986Z" fill="white" stroke="white"/>
<path d="M286.949 20.2057C286.96 20.2128 286.973 20.2212 286.988 20.233C287.064 20.2913 287.167 20.3831 287.292 20.5074C287.54 20.754 287.843 21.0944 288.146 21.4615C288.447 21.828 288.741 22.213 288.971 22.5455C289.214 22.8981 289.347 23.1367 289.377 23.232C289.895 24.9 288.898 26.1826 287.639 27.6969C287.038 28.4188 286.382 29.1943 285.966 30.0338C285.538 30.8963 285.347 31.8569 285.695 32.9371L285.699 32.9498L285.704 32.9615L313.021 104.676C312.95 104.554 312.88 104.429 312.813 104.302C312.519 103.754 312.254 103.187 312.007 102.63L311.307 101.023C306.821 90.8316 303.057 80.0866 299.253 69.3375C295.689 59.2667 292.09 49.1929 287.839 39.6041L286.98 37.693C286.832 37.3661 286.571 36.6659 286.255 36.0992C286.092 35.8076 285.894 35.5103 285.656 35.2779C285.418 35.0459 285.1 34.8397 284.702 34.8248L284.184 34.8063V106.846H283.145V34.6998L282.535 34.8375C281.743 35.0165 281.282 35.5448 280.977 36.0943C280.826 36.3651 280.707 36.6531 280.604 36.9176C280.495 37.1926 280.407 37.4308 280.307 37.6539C275.857 47.5955 272.257 58.554 268.704 69.5436C265.148 80.5428 261.641 91.5735 257.371 101.704H257.37C256.952 102.697 256.47 103.877 255.877 104.973C255.749 105.209 255.616 105.438 255.48 105.659L282.437 29.3834L282.7 28.6393L281.915 28.7193C280.256 28.8885 278.599 29.1129 276.951 29.3375C275.301 29.5624 273.659 29.7876 272.015 29.9586C268.727 30.3006 265.454 30.4253 262.162 29.9117C259.936 29.5644 257.317 28.6165 254.616 27.5924C251.94 26.5777 249.185 25.4885 246.757 24.9117C245.763 24.6764 244.845 24.6469 244.077 24.6188C243.28 24.5895 242.701 24.5596 242.249 24.3795C241.852 24.2211 241.526 23.9322 241.301 23.2623C241.09 22.6357 240.975 21.6944 241.002 20.274C246.291 21.0591 251.03 22.9317 255.94 24.5445C261 26.2063 266.201 27.5703 272.193 27.024C273.872 26.8707 275.064 26.4599 275.974 25.8619C276.882 25.2645 277.469 24.5057 277.971 23.7311C278.694 22.6136 279.244 21.4876 280.308 20.5191L278.8 23.5445L278.38 24.3873L279.313 24.2633L286.802 23.2643L286.83 23.2604L286.858 23.2535C287.142 23.1816 287.393 23.0132 287.513 22.7184C287.618 22.4596 287.583 22.1921 287.533 21.9957C287.436 21.6105 287.185 21.1503 287.021 20.817C286.929 20.6328 286.856 20.4737 286.808 20.3375C286.79 20.2861 286.778 20.2425 286.77 20.2066C286.815 20.2024 286.874 20.2017 286.949 20.2057Z" fill="white" stroke="white"/>
<path d="M195.513 18.3411C197.664 18.9226 200.021 18.8758 202.267 18.8538C204.792 18.829 207.183 18.8379 209.239 19.6643L209.24 19.6653C210.005 19.9716 210.621 20.5329 211.179 21.2502C211.742 21.9751 212.214 22.8126 212.727 23.6633C213.706 25.29 214.873 27.0577 217.075 27.0657C218.215 27.0696 219.073 26.5398 219.753 25.7922C220.418 25.0612 220.941 24.0901 221.426 23.1506C221.923 22.1875 222.383 21.2518 222.938 20.4827C223.488 19.7194 224.09 19.1839 224.833 18.968V18.967C226.697 18.4234 228.983 18.6284 231.401 18.9651C233.634 19.2758 235.99 19.7008 238.046 19.635C238.689 21.5303 239.046 23.9096 238.652 25.7551C238.445 26.7273 238.04 27.506 237.407 28.01C236.844 28.4585 236.045 28.7319 234.911 28.6741C234.708 27.3839 234.229 26.3446 233.531 25.5315C232.763 24.6358 231.756 24.0429 230.643 23.676C228.43 22.9472 225.735 23.0926 223.389 23.5833L223.289 23.6038L223.205 23.6624C222.692 24.019 222.485 24.6593 222.389 25.2698C222.288 25.9042 222.286 26.657 222.307 27.4026C222.328 28.1711 222.373 28.9134 222.378 29.6184C222.383 30.3226 222.347 30.9016 222.229 31.3049V31.3069C222.188 31.447 222.091 31.626 221.922 31.8538C221.756 32.0781 221.546 32.3165 221.311 32.5823C220.915 33.0285 220.436 33.5574 220.106 34.1321L219.976 34.3801C219.744 34.8607 219.563 35.4645 219.392 36.0559C219.215 36.6638 219.045 37.2727 218.832 37.8274C218.618 38.3845 218.379 38.8377 218.089 39.1467C217.813 39.4401 217.496 39.602 217.078 39.6008H217.076C216.37 39.6007 215.965 39.3328 215.705 38.9309C215.421 38.4915 215.278 37.8401 215.254 37.0461C215.206 35.5003 215.604 33.6915 215.83 32.5637C215.846 32.5458 215.876 32.519 215.937 32.4885C216.039 32.4369 216.19 32.3918 216.399 32.3528C216.606 32.3142 216.841 32.2865 217.102 32.259C217.356 32.2322 217.637 32.2051 217.907 32.1663C218.426 32.0917 219.037 31.9603 219.469 31.5979C219.699 31.4048 219.873 31.1496 219.957 30.8254C220.039 30.5089 220.025 30.1584 219.934 29.7786L219.816 29.2874L219.326 29.4104L211.45 31.3879C211.201 31.0777 211.136 30.5573 211.22 29.7297C211.267 29.262 211.352 28.7692 211.431 28.2336C211.508 27.7105 211.578 27.1573 211.581 26.6233C211.588 25.5518 211.323 24.4433 210.208 23.7659C209.153 23.1253 207.449 22.9497 204.815 23.3333C203.708 23.4945 202.852 23.809 202.151 24.2473C201.452 24.6852 200.932 25.2317 200.481 25.8196C200.043 26.3916 199.639 27.0482 199.223 27.6594C198.866 28.1831 198.477 28.7081 197.997 29.2209C196.26 27.8767 195.652 26.2098 195.47 24.3196C195.371 23.3014 195.398 22.2266 195.44 21.0999C195.475 20.2049 195.518 19.2748 195.513 18.3411Z" fill="white" stroke="white"/>
<path d="M217.171 0.595703C217.66 1.43896 218.263 2.30014 218.89 3.16797C219.611 4.16699 220.365 5.17362 221.053 6.21289C222.434 8.29917 223.475 10.4044 223.399 12.5586C223.399 12.5837 223.387 12.6657 223.343 12.8223C223.301 12.9692 223.24 13.155 223.158 13.377C222.995 13.8207 222.761 14.3867 222.476 15.0342C221.905 16.3278 221.139 17.9262 220.347 19.4834C219.554 21.0413 218.738 22.5503 218.071 23.667C217.737 24.2269 217.446 24.6775 217.218 24.9844C217.191 25.0204 217.164 25.0524 217.14 25.083C213.83 21.0918 211.715 17.1354 211.332 13.1875C210.942 9.16777 212.34 5.07271 216.285 0.866211L217.171 0.595703Z" fill="white" stroke="white"/>
<path d="M192.085 165.702C188.62 172.761 189.466 181.158 192.262 188.204L191.949 188.28C189.305 179.501 182.048 173.039 175.188 167.512L192.085 165.702Z" stroke="white"/>
<path d="M224.125 33.8407C225.133 33.5016 225.934 33.6117 226.509 33.913C227.091 34.2184 227.478 34.7402 227.626 35.2948C227.773 35.8487 227.679 36.4114 227.334 36.8329C226.992 37.2508 226.341 37.6066 225.228 37.6112C224.51 37.6141 224.038 37.3937 223.734 37.0995C223.424 36.7989 223.245 36.3776 223.194 35.912C223.144 35.4446 223.227 34.9614 223.41 34.5731C223.595 34.1809 223.855 33.933 224.126 33.8417L224.125 33.8407Z" fill="white" stroke="white"/>
<path d="M207.157 33.8285C207.63 33.673 208.166 33.7298 208.704 33.9603C209.243 34.1912 209.751 34.5847 210.135 35.0424C210.522 35.5048 210.75 35.9923 210.789 36.3978C210.825 36.7699 210.709 37.0745 210.371 37.3021C209.491 37.8362 208.686 37.9112 208.021 37.7435C207.342 37.5726 206.774 37.1403 206.404 36.6068C206.032 36.0686 205.889 35.471 205.991 34.9808C206.087 34.5201 206.412 34.0759 207.157 33.8285Z" fill="white" stroke="white"/>
<path d="M188.485 299.913C188.93 300.536 189.089 301.422 189.116 302.498C189.134 303.206 189.095 303.937 189.072 304.672C189.053 305.301 189.045 305.936 189.107 306.513L189.139 306.757C189.855 311.499 191.124 315.843 192.502 320.11C193.83 324.222 195.252 328.246 196.403 332.524C196.328 332.524 196.243 332.525 196.148 332.521C195.684 332.499 195.047 332.428 194.288 332.316C192.773 332.094 190.814 331.716 188.862 331.275C186.91 330.834 184.977 330.333 183.514 329.865C182.78 329.631 182.178 329.41 181.755 329.214C181.556 329.122 181.412 329.04 181.314 328.975L188.485 299.913Z" stroke="white"/>
<path d="M192.762 257.037C191.654 259.841 190.25 262.523 188.809 265.22C187.191 268.246 185.524 271.296 184.218 274.512C184.021 274.995 183.722 275.964 183.379 277.118C183.031 278.289 182.633 279.663 182.229 281.01C181.825 282.355 181.421 283.649 181.067 284.637C180.89 285.133 180.729 285.54 180.59 285.835C180.527 285.97 180.472 286.071 180.427 286.144L179.001 286.179C178.958 286.093 178.905 285.978 178.845 285.833C178.694 285.473 178.508 284.971 178.296 284.362C177.872 283.146 177.355 281.543 176.82 279.891C176.287 278.243 175.737 276.547 175.252 275.159C175.009 274.465 174.781 273.842 174.578 273.337C174.379 272.844 174.19 272.428 174.024 272.172C173.878 271.947 173.618 271.687 173.374 271.507C173.253 271.418 173.1 271.322 172.938 271.27C172.809 271.228 172.445 271.149 172.196 271.46L172.107 271.571L172.09 271.711L171.84 273.736C171.512 273.562 171.228 273.366 171.017 273.14C170.731 272.835 170.574 272.47 170.634 271.975C172.126 270.332 174.109 269.417 176.234 268.63C178.368 267.841 180.7 267.167 182.59 265.971H182.591C184.569 264.718 186.267 262.687 187.985 260.873C189.462 259.314 190.973 257.89 192.762 257.037Z" stroke="white"/>
<path d="M229.475 227.549C228.888 229.303 228.257 231.094 227.959 232.774C225.566 246.326 226.818 261.284 231.185 274.331C232.447 278.098 234.184 281.629 235.922 285.116C236.94 287.158 237.955 289.187 238.888 291.248C232.277 281.023 225.857 267.787 224.798 256.351C223.896 246.586 226.079 236.773 229.475 227.549Z" stroke="white"/>
<path d="M225.114 345.538C221.329 346.281 217.539 347.008 213.771 346.614L204.684 328.714L225.114 345.538Z" stroke="white"/>
<path d="M246.086 357.237C246.292 357.357 246.542 357.538 246.827 357.784C247.629 358.477 248.596 359.568 249.547 360.788C250.494 362.003 251.409 363.325 252.107 364.467C252.457 365.038 252.749 365.558 252.962 365.993C253.181 366.44 253.298 366.759 253.329 366.939C253.423 367.484 253.362 368.242 253.155 369.123C252.951 369.995 252.612 370.951 252.186 371.875C251.759 372.799 251.25 373.68 250.711 374.406C250.569 374.597 250.426 374.775 250.284 374.939C251.765 368.37 248.762 362.874 246.086 357.237Z" stroke="white"/>
<path d="M165.98 184.464C165.851 186.886 165.784 188.801 165.588 191.19C165.541 191.766 165.628 192.38 165.761 192.985C165.893 193.588 166.081 194.228 166.248 194.841C166.275 194.941 166.301 195.041 166.327 195.14L163.883 189.231L165.989 184.367L165.98 184.464Z" stroke="white"/>
<path d="M210.787 210.532C215.375 213.645 221.939 213.788 227.123 212.608C227.088 212.78 227.012 212.919 226.908 213.041C226.744 213.233 226.502 213.402 226.193 213.566L225.862 213.728C225.094 214.082 223.754 214.326 222.125 214.384C220.512 214.442 218.67 214.315 216.929 213.966C215.181 213.616 213.568 213.05 212.388 212.249C211.66 211.755 211.113 211.185 210.787 210.532Z" stroke="white"/>
<path d="M201.276 194.075C201.239 196.865 201.939 199.502 202.791 202.057C203.489 204.15 204.276 206.162 204.884 208.202C201.757 204.65 199.731 199.964 200.906 195.412C201 195.05 200.989 194.719 200.969 194.467C200.957 194.314 200.948 194.256 200.94 194.146C200.938 194.116 200.94 194.091 200.939 194.07C201.01 194.062 201.117 194.062 201.276 194.075Z" stroke="white"/>
<path d="M292.284 367.857L292.277 367.915L292.284 367.974L293.446 377.798C291.639 374.606 290.909 370.51 291.066 366.341C291.217 362.338 292.185 358.323 293.75 355.062L292.284 367.857Z" stroke="white"/>
<path d="M218.887 280.814C218.916 280.829 218.959 280.861 219.021 280.915C223.881 295.558 229.697 309.451 241.536 320.06C243.784 322.077 246.262 323.755 248.714 325.4C249.863 326.171 251.005 326.935 252.122 327.725C244.764 323.938 237.377 318.731 231.408 312.414C224.516 305.12 219.539 296.374 218.642 286.648L218.567 285.703C218.543 285.313 218.436 283.627 218.555 282.265C218.584 281.927 218.627 281.619 218.685 281.364C218.744 281.1 218.812 280.927 218.874 280.831C218.878 280.825 218.883 280.819 218.887 280.814Z" stroke="white"/>
<path d="M263.262 338.677C268.587 344.444 268.341 352.007 267.878 359.915C267.863 359.932 267.85 359.947 267.837 359.96C267.781 359.835 267.722 359.642 267.671 359.377C267.612 359.072 267.568 358.707 267.536 358.31C267.472 357.516 267.459 356.627 267.455 355.887C267.453 355.526 267.454 355.184 267.452 354.93C267.451 354.691 267.447 354.463 267.429 354.34C266.595 348.757 264.784 343.86 263.262 338.677Z" stroke="white"/>
</g>
<defs>
<clipPath id="clip0_180_1058">
<rect width="399" height="426" fill="white"/>
</clipPath>
</defs>
</svg>
