<svg width="399" height="426" viewBox="0 0 399 426" fill="none" xmlns="http://www.w3.org/2000/svg">
<mask id="path-1-inside-1_143_810" fill="white">
<path d="M217.41 0L216.01 0.428052C207.83 9.07063 210.031 17.4822 217.084 25.7986C217.933 25.7783 223.844 13.9898 223.899 12.5766C224.062 7.93595 219.428 3.70299 217.41 0ZM238.391 19.1129C234.24 19.3779 228.662 17.3327 224.694 18.481C221.113 19.5205 220.923 26.5732 217.077 26.5596C213.306 26.546 212.932 20.6077 209.426 19.1944C205.098 17.455 199.459 19.1944 195.002 17.6589C195.165 22.2247 193.745 26.8926 198.052 29.8753C200.675 27.3138 200.689 24.4329 204.888 23.8214C215.338 22.2995 208.815 30.086 211.308 31.9341L219.448 29.8889C220.067 32.498 215.888 31.1935 215.358 32.3757C214.923 34.5635 213.619 40.0874 217.077 40.0942C219.38 40.0942 219.584 36.3369 220.427 34.5907C220.997 33.4017 222.445 32.3417 222.71 31.4381C223.267 29.5152 222.146 24.9969 223.491 24.066C228.104 23.1012 233.873 23.5429 234.471 29.1347C240.226 29.7666 239.866 23.0944 238.391 19.1061V19.1129ZM282.644 35.3245V107.346H284.682V35.3245C285.592 35.3585 286.184 37.1454 286.523 37.8996C295.764 58.1675 301.858 80.7999 310.848 101.224C311.724 103.215 312.791 106.035 314.571 107.346L286.17 32.7834C284.974 29.0736 291.076 27.0149 289.853 23.0808C289.635 22.3742 287.488 19.7448 287.06 19.7108C284.825 19.5205 288.1 22.4218 286.734 22.7683L279.246 23.7671L281.618 19.011C276.923 21.4434 278.615 25.9345 272.146 26.5256C260.371 27.5992 251.661 21.1852 240.518 19.6972C240.233 26.7091 242.882 24.5077 246.64 25.3978C251.416 26.5324 257.511 29.6919 262.084 30.4053C268.783 31.4516 275.367 29.8889 281.964 29.2163L254.114 108.025C255.86 106.721 257.001 103.874 257.83 101.897C266.385 81.5881 271.888 57.6851 280.762 37.8588C281.19 36.9076 281.441 35.5963 282.644 35.3245ZM165.779 114.14H128.069C127.77 114.14 123.422 112.863 123.143 112.612C119.766 109.541 124.808 102.42 126.201 98.683C134.062 77.6201 140.653 55.9933 149.485 35.3313C150.953 35.8477 149.499 39.0343 149.445 40.3932C148.602 62.5092 149.689 84.9378 150.151 107.02L151.51 108.025V35.3245C153.956 37.6278 155.247 41.7045 156.599 44.8436C164.515 63.2906 169.95 84.5709 178.573 102.366C179.429 104.139 180.197 106.456 182.079 107.346L152.822 30.3102C155.41 27.7826 157.517 30.7994 160.044 31.207C171.758 33.0891 181.78 25.9889 192.923 24.4262L192.95 19.6972C185.972 21.7627 179.116 24.5213 172.043 26.3014C166.907 27.5924 162.184 29.9569 157.938 25.8462C156.531 24.4805 155.791 22.1092 154.88 21.4298C153.087 20.0845 148.256 19.1468 146.455 21.1037C141.665 26.2878 149.214 29.3589 148.684 32.797C137.588 58.5888 130.277 85.9638 119.046 111.66C131.011 139.674 164.984 146.666 182.099 118.584C183.295 116.62 185.537 113.121 186.135 111.063C186.624 109.364 183.628 109.996 182.765 110.417C181.949 110.818 176.208 119.535 174.598 121.275C169.828 126.418 163.36 130.773 156.273 131.82C160.411 126.758 165.439 120.942 165.785 114.161L165.779 114.14ZM207.001 33.3541C203.427 34.5363 206.681 40.135 210.643 37.723C212.695 36.3641 209.467 32.5388 207.001 33.3541ZM223.967 33.3677C222.214 33.9588 221.915 38.1238 225.23 38.1102C230.102 38.0899 228.451 31.8593 223.967 33.3677ZM213 105.308C216.119 105.729 219.971 105.002 223.192 105.308L224.082 106.836C222.166 116.926 220.005 127.981 220.794 138.288C221.534 147.997 228.132 150.62 232.365 158.658L230.34 159.324L233.051 161.702C229.042 161.58 224.232 159.004 223.138 154.914C222.954 154.241 224.143 148.901 222.2 150.837C222.003 151.028 220.209 155.267 220.121 155.899C219.407 160.907 222.084 167.307 221.527 170.84C220.828 175.304 200.58 183.988 195.715 184.81C191.475 173.959 196.49 169.135 205.88 165.106L206.94 169.828L209.956 173.252C209.8 170.677 208.455 168.85 208.543 166.118C208.631 163.387 210.48 162.13 210.303 159.67C205.852 167.035 193.453 164.637 192.277 174.258C191.801 178.165 192.712 182.289 192.977 186.162L195.002 184.13C194.22 186.563 193.697 191.074 197.04 191.598C196.992 189.879 196.925 187.745 198.44 186.542C200.757 184.715 208.346 182.724 211.764 180.842C214.386 179.401 222.716 171.826 223.885 171.921C226.236 172.104 223.817 178.369 223.375 179.544C222.594 181.603 217.457 190.843 215.786 190.884C210.262 188.995 205.737 190.796 200.607 192.114C199.547 192.386 198.351 192.053 197.509 192.257C196.809 192.426 196.449 195.185 194.58 196.265C188.676 199.683 189.036 190.449 187.344 186.678C185.245 181.997 176.99 174.007 172.899 170.548C171.846 169.658 166.064 164.773 165.106 165.779C164.134 168.428 167.892 170.018 167.681 172.125C167.43 174.632 161.641 179.931 161.036 185.822C158.984 205.825 174.958 217.675 193.901 215.29C199.309 214.61 197.685 213.673 199.411 209.256C202.048 212.198 203.352 214.814 201.796 218.762C204.833 218.769 206.389 216.228 208.577 214.692C210.921 220.08 205.098 226.46 201.776 230.639C196.911 236.76 187.215 246.993 180.693 251.002C179.483 251.749 177.642 251.661 177.336 252.727C182.378 252.299 188.01 247.244 191.74 243.895C198.827 237.528 204.167 229.613 210.493 223.042C211.159 222.349 211.159 221.12 212.661 221.48C213.109 221.935 208.081 229.103 207.381 230.122C201.484 238.602 190.015 252.204 181.746 258.163C181.141 258.598 180.19 259.59 179.361 259.216C177.859 257.361 175.169 256.118 175.291 253.414C173.253 253.815 171.078 253.957 171.214 256.417C171.404 259.882 178.267 263.32 177.995 264.584C176.025 267.648 166.648 271.202 166.696 274.68C166.75 278.784 170.528 286.713 172.723 290.321C174.265 292.862 177.574 295.981 178.62 298.013C180.991 302.626 175.943 319.449 175.311 325.788C175.101 327.915 174.387 334.784 175.488 336.136C177.948 339.153 190.782 339.819 194.594 340.465C203.468 341.966 204.555 350.466 210.432 355.936C213.523 355.725 216.173 354.094 219.299 353.476C225.224 352.307 237.943 352.131 240.695 358.905C241.394 360.631 242.651 369.232 242.611 371.312C242.529 375.939 241.177 382.747 239.179 386.932L243.31 388.896C246.708 392.925 236.421 402.07 234.063 404.931C233.615 405.474 232.263 406.296 233.397 406.983C259.488 395.085 289.791 373.153 279.742 340.24C277.697 333.534 269.836 323.424 264.659 318.634C263.911 317.941 263.476 317.037 262.267 317.295C269.666 328.228 276.427 342.102 275.163 355.664C274.144 366.61 266.31 377.012 258.197 383.874C265.094 369.361 261.397 358.524 249.677 348.564C242.278 342.272 233.275 338.827 225.631 333.201C199.255 313.776 193.228 292.319 200.893 260.337C201.307 258.605 204.691 247.136 205.2 246.633C205.533 246.3 206.654 246.123 206.403 247.489C205.696 251.335 205.649 255.35 205.846 259.23C206.348 269.211 208.027 280.34 211.295 289.791C212.165 292.312 213.17 296.233 215.378 297.591C211.41 279.613 209.243 261.356 214.522 243.392C217.036 234.844 221.222 224.163 226.929 217.417C225.373 221.283 223.117 224.857 221.656 228.784C211.261 256.729 222.417 286.347 243.908 305.412L261.581 316.609L250.03 307.437L251.627 305.826L260.208 311.187L259.529 271.779C255.846 276.298 253.543 281.291 247.149 281.495C246.816 281.509 245.213 282.175 245.281 280.945C245.342 279.858 257.137 267.193 259.012 264.115C266.609 251.64 266.018 228.104 260.344 214.916C258.972 211.73 256.831 209.032 255.452 205.873L254.1 206.212C254.086 208.38 255.004 210.405 255.282 212.504C255.377 213.245 256.037 214.841 254.793 214.692L251.729 204.507C249.269 207.816 247.435 211.492 245.159 214.923C244.255 216.282 242.597 217.308 241.931 218.551C240.348 221.507 242.78 226.222 236.795 226.929L236.434 224.211L233.044 224.884C238.235 218.823 248.366 208.19 249.364 200.104C250.438 191.428 249.344 177.146 247.672 168.469C245.043 154.799 240.851 151.476 244.391 136.698C246.443 128.137 242.38 120.126 241.272 111.674C240.769 107.815 239.798 99.0703 239.811 95.4285C239.811 93.2067 243.059 89.3474 243.942 86.65C245.818 80.9358 245.573 71.9535 242.93 66.5248C241.408 63.4061 235.157 57.0057 232.004 55.7011C231.692 55.5721 230.89 55.5245 230.999 56.0273C234.58 59.2071 239.485 62.1967 240.504 67.2382C233.846 62.55 228.526 55.4497 219.448 55.6943C223.681 66.6674 234.804 75.4119 233.03 88.3011C232.29 89.0824 219.706 82.4034 215.82 83.6468C210.045 85.4949 223.919 91.773 224.435 92.3438C226.793 94.9461 221.133 95.1907 219.095 95.1567C213.347 95.0548 205.893 93.0096 204.623 86.4394C203.678 81.5405 209.793 74.583 213.32 71.6546C213.795 71.2605 219.36 66.5927 218.694 69.5483C217.634 74.3112 211.397 83.3139 222.023 82.0501C225.869 76.8184 223.776 72.2525 221.398 66.9936L215.623 55.7895C210.106 53.853 205.717 62.4888 201.361 59.112C200.363 58.3374 201.606 56.3194 200.084 57.0668C195.172 59.4925 190.68 71.2469 190.3 76.5126C189.355 89.6667 199.751 103.507 212.987 105.301L213 105.308ZM254.25 109.88C253.903 109.663 254.365 108.494 253.774 108.712C252.123 110.003 251.804 110.73 252.367 112.795C252.952 114.922 258.897 123.945 260.568 125.691C262.94 128.171 268.797 131.833 271.997 133.287C292.367 142.541 311.941 130.338 318.668 110.417L275.177 110.757C275.02 111.946 276.719 111.395 277.541 111.429C284.954 111.735 292.564 111.416 299.997 111.402C301.607 111.402 303.075 112.156 304.692 112.136C306.309 112.116 314.211 110.41 314.571 110.757C309.781 121.927 300.241 129.061 288.766 132.492L296.586 121.635C297.918 119.1 299.249 116.437 298.95 113.475C287.991 114.039 275.605 114.935 264.645 114.147C262.627 114.005 256.247 113.413 255.473 111.769L256.825 110.084C255.982 110.037 255.017 110.37 254.25 109.887V109.88ZM192.957 165.106L173.932 167.144C181.195 172.947 189.016 179.632 191.604 188.88L192.943 188.554C189.892 181.202 188.995 172.328 192.957 165.106ZM219.448 280.612C217.634 278.832 218.028 284.967 218.076 285.728C219.401 306.248 238.663 322.452 256.152 330.198C251.674 326.318 246.314 323.662 241.877 319.68C230.102 309.128 224.32 295.288 219.455 280.605L219.448 280.612ZM311.86 328.839C308.021 327.304 304.583 324.803 300.676 323.383C292.659 320.475 283.989 320.074 275.856 317.628C270.903 316.14 266.418 313.599 261.588 311.86C265.535 316.82 271.107 320.251 275.197 325.082C280.85 331.768 284.227 340.431 284.696 349.216C291.524 347.313 292.659 337.944 298.957 334.954C296.837 340.526 292.74 345.071 290.485 350.595C286.972 359.19 285.565 370.299 287.468 379.411C288.079 382.332 290.009 385.362 290.512 388.597C292.183 399.346 285.559 407.995 286.034 418.499C276.203 418.309 266.31 418.234 256.478 417.874C217.444 416.447 180.686 416.699 141.685 417.854C132.567 418.125 117.708 420.49 109.629 416.604C104.764 414.259 98.6627 410.339 95.1364 406.303L99.8789 405.277L97.2291 402.464L98.8937 400.195C110.601 395.425 126.805 380.946 138.132 377.61C142.793 376.238 147.732 377.793 152.393 376.924C157.054 376.054 160.798 372.079 164.766 370.272C171.459 367.221 180.679 365.951 187.915 363.525C190.361 362.703 204.759 357.179 205.587 356.038L197.733 343.801C196.014 343.957 198.304 347.144 197.733 347.871C194.275 346.43 190.178 347.531 186.502 347.218C180.808 346.729 175.4 345.092 169.882 343.787C172.709 340.186 169.713 335.328 172.593 331.897L171.588 331.571L145.076 353.293L144.057 351.961C147.997 349.732 151.7 346.05 154.935 342.781C155.75 341.959 155.94 340.546 156.674 339.765C157.931 338.426 160.438 336.823 161.947 335.525C162.544 335.015 164.155 334.193 162.076 334.288C159.052 336.687 155.567 338.698 152.563 341.09C145.252 346.892 138.954 355.732 129.788 358.069C130.305 359.53 130.454 359.265 131.596 358.871C134.456 357.892 137.731 355.616 140.32 353.986C140.843 353.877 140.245 356.574 142.005 356.038C136.562 361.657 128.124 361.82 121.166 364.734C105.24 371.4 99.8314 383.114 88.3419 393.74C82.3764 399.264 74.3589 403.429 68.2778 409.007C65.3154 409.884 70.0784 404.469 70.6559 403.905C77.1446 397.552 86.3647 393.815 93.1116 386.952C98.4181 381.551 100.973 374.743 106.463 369.728C111.953 364.714 119.264 360.95 127.064 360.094C127.186 358.823 124.862 359.442 124.176 359.584C116.24 361.222 109.065 365.054 102.97 370.313C95.4829 376.767 91.7392 386.11 83.9391 392.728C77.7765 397.959 65.9609 402.94 63.1752 410.692C62.5908 412.309 61.2387 416.583 62.1424 417.881C62.7471 418.751 64.9825 418.35 65.2339 419.878L44.8572 420.571L50.6597 421.278L61.8367 420.571C61.8367 421.72 59.5741 421.862 58.7859 421.93C40.964 423.323 22.9382 422.236 5.18427 424.723L0.0136719 425.993H398.163L379.472 423.296C358.851 421.767 344.698 425.627 325.449 415.489C322.976 414.185 311.221 407.234 310.168 405.63C309.726 404.965 309.794 404.326 309.842 403.585L315.271 404.937C311.147 401.33 311.643 397.484 311.88 392.381C312.363 382.122 315.57 371.699 317.112 361.602C318.838 350.323 322.058 336.599 314.931 326.808L314.265 328.167L308.823 325.435L311.874 328.832L311.86 328.839ZM268.375 360.101C268.871 351.567 269.204 343.121 262.274 337.006C263.898 342.945 266.018 348.224 266.942 354.414C267.037 355.052 266.636 362.384 268.382 360.101H268.375Z"/>
</mask>
<path d="M217.41 0L216.01 0.428052C207.83 9.07063 210.031 17.4822 217.084 25.7986C217.933 25.7783 223.844 13.9898 223.899 12.5766C224.062 7.93595 219.428 3.70299 217.41 0ZM238.391 19.1129C234.24 19.3779 228.662 17.3327 224.694 18.481C221.113 19.5205 220.923 26.5732 217.077 26.5596C213.306 26.546 212.932 20.6077 209.426 19.1944C205.098 17.455 199.459 19.1944 195.002 17.6589C195.165 22.2247 193.745 26.8926 198.052 29.8753C200.675 27.3138 200.689 24.4329 204.888 23.8214C215.338 22.2995 208.815 30.086 211.308 31.9341L219.448 29.8889C220.067 32.498 215.888 31.1935 215.358 32.3757C214.923 34.5635 213.619 40.0874 217.077 40.0942C219.38 40.0942 219.584 36.3369 220.427 34.5907C220.997 33.4017 222.445 32.3417 222.71 31.4381C223.267 29.5152 222.146 24.9969 223.491 24.066C228.104 23.1012 233.873 23.5429 234.471 29.1347C240.226 29.7666 239.866 23.0944 238.391 19.1061V19.1129ZM282.644 35.3245V107.346H284.682V35.3245C285.592 35.3585 286.184 37.1454 286.523 37.8996C295.764 58.1675 301.858 80.7999 310.848 101.224C311.724 103.215 312.791 106.035 314.571 107.346L286.17 32.7834C284.974 29.0736 291.076 27.0149 289.853 23.0808C289.635 22.3742 287.488 19.7448 287.06 19.7108C284.825 19.5205 288.1 22.4218 286.734 22.7683L279.246 23.7671L281.618 19.011C276.923 21.4434 278.615 25.9345 272.146 26.5256C260.371 27.5992 251.661 21.1852 240.518 19.6972C240.233 26.7091 242.882 24.5077 246.64 25.3978C251.416 26.5324 257.511 29.6919 262.084 30.4053C268.783 31.4516 275.367 29.8889 281.964 29.2163L254.114 108.025C255.86 106.721 257.001 103.874 257.83 101.897C266.385 81.5881 271.888 57.6851 280.762 37.8588C281.19 36.9076 281.441 35.5963 282.644 35.3245ZM165.779 114.14H128.069C127.77 114.14 123.422 112.863 123.143 112.612C119.766 109.541 124.808 102.42 126.201 98.683C134.062 77.6201 140.653 55.9933 149.485 35.3313C150.953 35.8477 149.499 39.0343 149.445 40.3932C148.602 62.5092 149.689 84.9378 150.151 107.02L151.51 108.025V35.3245C153.956 37.6278 155.247 41.7045 156.599 44.8436C164.515 63.2906 169.95 84.5709 178.573 102.366C179.429 104.139 180.197 106.456 182.079 107.346L152.822 30.3102C155.41 27.7826 157.517 30.7994 160.044 31.207C171.758 33.0891 181.78 25.9889 192.923 24.4262L192.95 19.6972C185.972 21.7627 179.116 24.5213 172.043 26.3014C166.907 27.5924 162.184 29.9569 157.938 25.8462C156.531 24.4805 155.791 22.1092 154.88 21.4298C153.087 20.0845 148.256 19.1468 146.455 21.1037C141.665 26.2878 149.214 29.3589 148.684 32.797C137.588 58.5888 130.277 85.9638 119.046 111.66C131.011 139.674 164.984 146.666 182.099 118.584C183.295 116.62 185.537 113.121 186.135 111.063C186.624 109.364 183.628 109.996 182.765 110.417C181.949 110.818 176.208 119.535 174.598 121.275C169.828 126.418 163.36 130.773 156.273 131.82C160.411 126.758 165.439 120.942 165.785 114.161L165.779 114.14ZM207.001 33.3541C203.427 34.5363 206.681 40.135 210.643 37.723C212.695 36.3641 209.467 32.5388 207.001 33.3541ZM223.967 33.3677C222.214 33.9588 221.915 38.1238 225.23 38.1102C230.102 38.0899 228.451 31.8593 223.967 33.3677ZM213 105.308C216.119 105.729 219.971 105.002 223.192 105.308L224.082 106.836C222.166 116.926 220.005 127.981 220.794 138.288C221.534 147.997 228.132 150.62 232.365 158.658L230.34 159.324L233.051 161.702C229.042 161.58 224.232 159.004 223.138 154.914C222.954 154.241 224.143 148.901 222.2 150.837C222.003 151.028 220.209 155.267 220.121 155.899C219.407 160.907 222.084 167.307 221.527 170.84C220.828 175.304 200.58 183.988 195.715 184.81C191.475 173.959 196.49 169.135 205.88 165.106L206.94 169.828L209.956 173.252C209.8 170.677 208.455 168.85 208.543 166.118C208.631 163.387 210.48 162.13 210.303 159.67C205.852 167.035 193.453 164.637 192.277 174.258C191.801 178.165 192.712 182.289 192.977 186.162L195.002 184.13C194.22 186.563 193.697 191.074 197.04 191.598C196.992 189.879 196.925 187.745 198.44 186.542C200.757 184.715 208.346 182.724 211.764 180.842C214.386 179.401 222.716 171.826 223.885 171.921C226.236 172.104 223.817 178.369 223.375 179.544C222.594 181.603 217.457 190.843 215.786 190.884C210.262 188.995 205.737 190.796 200.607 192.114C199.547 192.386 198.351 192.053 197.509 192.257C196.809 192.426 196.449 195.185 194.58 196.265C188.676 199.683 189.036 190.449 187.344 186.678C185.245 181.997 176.99 174.007 172.899 170.548C171.846 169.658 166.064 164.773 165.106 165.779C164.134 168.428 167.892 170.018 167.681 172.125C167.43 174.632 161.641 179.931 161.036 185.822C158.984 205.825 174.958 217.675 193.901 215.29C199.309 214.61 197.685 213.673 199.411 209.256C202.048 212.198 203.352 214.814 201.796 218.762C204.833 218.769 206.389 216.228 208.577 214.692C210.921 220.08 205.098 226.46 201.776 230.639C196.911 236.76 187.215 246.993 180.693 251.002C179.483 251.749 177.642 251.661 177.336 252.727C182.378 252.299 188.01 247.244 191.74 243.895C198.827 237.528 204.167 229.613 210.493 223.042C211.159 222.349 211.159 221.12 212.661 221.48C213.109 221.935 208.081 229.103 207.381 230.122C201.484 238.602 190.015 252.204 181.746 258.163C181.141 258.598 180.19 259.59 179.361 259.216C177.859 257.361 175.169 256.118 175.291 253.414C173.253 253.815 171.078 253.957 171.214 256.417C171.404 259.882 178.267 263.32 177.995 264.584C176.025 267.648 166.648 271.202 166.696 274.68C166.75 278.784 170.528 286.713 172.723 290.321C174.265 292.862 177.574 295.981 178.62 298.013C180.991 302.626 175.943 319.449 175.311 325.788C175.101 327.915 174.387 334.784 175.488 336.136C177.948 339.153 190.782 339.819 194.594 340.465C203.468 341.966 204.555 350.466 210.432 355.936C213.523 355.725 216.173 354.094 219.299 353.476C225.224 352.307 237.943 352.131 240.695 358.905C241.394 360.631 242.651 369.232 242.611 371.312C242.529 375.939 241.177 382.747 239.179 386.932L243.31 388.896C246.708 392.925 236.421 402.07 234.063 404.931C233.615 405.474 232.263 406.296 233.397 406.983C259.488 395.085 289.791 373.153 279.742 340.24C277.697 333.534 269.836 323.424 264.659 318.634C263.911 317.941 263.476 317.037 262.267 317.295C269.666 328.228 276.427 342.102 275.163 355.664C274.144 366.61 266.31 377.012 258.197 383.874C265.094 369.361 261.397 358.524 249.677 348.564C242.278 342.272 233.275 338.827 225.631 333.201C199.255 313.776 193.228 292.319 200.893 260.337C201.307 258.605 204.691 247.136 205.2 246.633C205.533 246.3 206.654 246.123 206.403 247.489C205.696 251.335 205.649 255.35 205.846 259.23C206.348 269.211 208.027 280.34 211.295 289.791C212.165 292.312 213.17 296.233 215.378 297.591C211.41 279.613 209.243 261.356 214.522 243.392C217.036 234.844 221.222 224.163 226.929 217.417C225.373 221.283 223.117 224.857 221.656 228.784C211.261 256.729 222.417 286.347 243.908 305.412L261.581 316.609L250.03 307.437L251.627 305.826L260.208 311.187L259.529 271.779C255.846 276.298 253.543 281.291 247.149 281.495C246.816 281.509 245.213 282.175 245.281 280.945C245.342 279.858 257.137 267.193 259.012 264.115C266.609 251.64 266.018 228.104 260.344 214.916C258.972 211.73 256.831 209.032 255.452 205.873L254.1 206.212C254.086 208.38 255.004 210.405 255.282 212.504C255.377 213.245 256.037 214.841 254.793 214.692L251.729 204.507C249.269 207.816 247.435 211.492 245.159 214.923C244.255 216.282 242.597 217.308 241.931 218.551C240.348 221.507 242.78 226.222 236.795 226.929L236.434 224.211L233.044 224.884C238.235 218.823 248.366 208.19 249.364 200.104C250.438 191.428 249.344 177.146 247.672 168.469C245.043 154.799 240.851 151.476 244.391 136.698C246.443 128.137 242.38 120.126 241.272 111.674C240.769 107.815 239.798 99.0703 239.811 95.4285C239.811 93.2067 243.059 89.3474 243.942 86.65C245.818 80.9358 245.573 71.9535 242.93 66.5248C241.408 63.4061 235.157 57.0057 232.004 55.7011C231.692 55.5721 230.89 55.5245 230.999 56.0273C234.58 59.2071 239.485 62.1967 240.504 67.2382C233.846 62.55 228.526 55.4497 219.448 55.6943C223.681 66.6674 234.804 75.4119 233.03 88.3011C232.29 89.0824 219.706 82.4034 215.82 83.6468C210.045 85.4949 223.919 91.773 224.435 92.3438C226.793 94.9461 221.133 95.1907 219.095 95.1567C213.347 95.0548 205.893 93.0096 204.623 86.4394C203.678 81.5405 209.793 74.583 213.32 71.6546C213.795 71.2605 219.36 66.5927 218.694 69.5483C217.634 74.3112 211.397 83.3139 222.023 82.0501C225.869 76.8184 223.776 72.2525 221.398 66.9936L215.623 55.7895C210.106 53.853 205.717 62.4888 201.361 59.112C200.363 58.3374 201.606 56.3194 200.084 57.0668C195.172 59.4925 190.68 71.2469 190.3 76.5126C189.355 89.6667 199.751 103.507 212.987 105.301L213 105.308ZM254.25 109.88C253.903 109.663 254.365 108.494 253.774 108.712C252.123 110.003 251.804 110.73 252.367 112.795C252.952 114.922 258.897 123.945 260.568 125.691C262.94 128.171 268.797 131.833 271.997 133.287C292.367 142.541 311.941 130.338 318.668 110.417L275.177 110.757C275.02 111.946 276.719 111.395 277.541 111.429C284.954 111.735 292.564 111.416 299.997 111.402C301.607 111.402 303.075 112.156 304.692 112.136C306.309 112.116 314.211 110.41 314.571 110.757C309.781 121.927 300.241 129.061 288.766 132.492L296.586 121.635C297.918 119.1 299.249 116.437 298.95 113.475C287.991 114.039 275.605 114.935 264.645 114.147C262.627 114.005 256.247 113.413 255.473 111.769L256.825 110.084C255.982 110.037 255.017 110.37 254.25 109.887V109.88ZM192.957 165.106L173.932 167.144C181.195 172.947 189.016 179.632 191.604 188.88L192.943 188.554C189.892 181.202 188.995 172.328 192.957 165.106ZM219.448 280.612C217.634 278.832 218.028 284.967 218.076 285.728C219.401 306.248 238.663 322.452 256.152 330.198C251.674 326.318 246.314 323.662 241.877 319.68C230.102 309.128 224.32 295.288 219.455 280.605L219.448 280.612ZM311.86 328.839C308.021 327.304 304.583 324.803 300.676 323.383C292.659 320.475 283.989 320.074 275.856 317.628C270.903 316.14 266.418 313.599 261.588 311.86C265.535 316.82 271.107 320.251 275.197 325.082C280.85 331.768 284.227 340.431 284.696 349.216C291.524 347.313 292.659 337.944 298.957 334.954C296.837 340.526 292.74 345.071 290.485 350.595C286.972 359.19 285.565 370.299 287.468 379.411C288.079 382.332 290.009 385.362 290.512 388.597C292.183 399.346 285.559 407.995 286.034 418.499C276.203 418.309 266.31 418.234 256.478 417.874C217.444 416.447 180.686 416.699 141.685 417.854C132.567 418.125 117.708 420.49 109.629 416.604C104.764 414.259 98.6627 410.339 95.1364 406.303L99.8789 405.277L97.2291 402.464L98.8937 400.195C110.601 395.425 126.805 380.946 138.132 377.61C142.793 376.238 147.732 377.793 152.393 376.924C157.054 376.054 160.798 372.079 164.766 370.272C171.459 367.221 180.679 365.951 187.915 363.525C190.361 362.703 204.759 357.179 205.587 356.038L197.733 343.801C196.014 343.957 198.304 347.144 197.733 347.871C194.275 346.43 190.178 347.531 186.502 347.218C180.808 346.729 175.4 345.092 169.882 343.787C172.709 340.186 169.713 335.328 172.593 331.897L171.588 331.571L145.076 353.293L144.057 351.961C147.997 349.732 151.7 346.05 154.935 342.781C155.75 341.959 155.94 340.546 156.674 339.765C157.931 338.426 160.438 336.823 161.947 335.525C162.544 335.015 164.155 334.193 162.076 334.288C159.052 336.687 155.567 338.698 152.563 341.09C145.252 346.892 138.954 355.732 129.788 358.069C130.305 359.53 130.454 359.265 131.596 358.871C134.456 357.892 137.731 355.616 140.32 353.986C140.843 353.877 140.245 356.574 142.005 356.038C136.562 361.657 128.124 361.82 121.166 364.734C105.24 371.4 99.8314 383.114 88.3419 393.74C82.3764 399.264 74.3589 403.429 68.2778 409.007C65.3154 409.884 70.0784 404.469 70.6559 403.905C77.1446 397.552 86.3647 393.815 93.1116 386.952C98.4181 381.551 100.973 374.743 106.463 369.728C111.953 364.714 119.264 360.95 127.064 360.094C127.186 358.823 124.862 359.442 124.176 359.584C116.24 361.222 109.065 365.054 102.97 370.313C95.4829 376.767 91.7392 386.11 83.9391 392.728C77.7765 397.959 65.9609 402.94 63.1752 410.692C62.5908 412.309 61.2387 416.583 62.1424 417.881C62.7471 418.751 64.9825 418.35 65.2339 419.878L44.8572 420.571L50.6597 421.278L61.8367 420.571C61.8367 421.72 59.5741 421.862 58.7859 421.93C40.964 423.323 22.9382 422.236 5.18427 424.723L0.0136719 425.993H398.163L379.472 423.296C358.851 421.767 344.698 425.627 325.449 415.489C322.976 414.185 311.221 407.234 310.168 405.63C309.726 404.965 309.794 404.326 309.842 403.585L315.271 404.937C311.147 401.33 311.643 397.484 311.88 392.381C312.363 382.122 315.57 371.699 317.112 361.602C318.838 350.323 322.058 336.599 314.931 326.808L314.265 328.167L308.823 325.435L311.874 328.832L311.86 328.839ZM268.375 360.101C268.871 351.567 269.204 343.121 262.274 337.006C263.898 342.945 266.018 348.224 266.942 354.414C267.037 355.052 266.636 362.384 268.382 360.101H268.375Z" stroke="#413B3B" stroke-width="2" mask="url(#path-1-inside-1_143_810)"/>
<mask id="path-2-inside-2_143_810" fill="white">
<path d="M213 105.308C199.764 103.521 189.369 89.6737 190.313 76.5196C190.694 71.2538 195.185 59.4993 200.097 57.0737C201.619 56.3263 200.376 58.3443 201.375 59.1188C205.723 62.4957 210.119 53.8599 215.636 55.7963L221.412 67.0005C223.79 72.2594 225.882 76.8253 222.037 82.0571C211.41 83.3276 217.647 74.3181 218.707 69.5552C219.366 66.5996 213.808 71.2674 213.333 71.6615C209.807 74.5899 203.691 81.5475 204.636 86.4463C205.9 93.0166 213.36 95.0617 219.108 95.1637C221.147 95.1976 226.806 94.953 224.449 92.3507C223.932 91.78 210.051 85.5019 215.833 83.6538C219.72 82.4104 232.303 89.0894 233.044 88.308C234.817 75.4188 223.694 66.6743 219.461 55.7012C228.539 55.4566 233.859 62.5636 240.518 67.2451C239.505 62.2035 234.593 59.2072 231.012 56.0341C230.903 55.5313 231.705 55.5789 232.018 55.708C235.17 57.0057 241.421 63.4062 242.943 66.5316C245.586 71.9536 245.831 80.936 243.956 86.657C243.072 89.3544 239.831 93.2136 239.825 95.4355C239.818 99.0773 240.783 107.815 241.285 111.681C242.393 120.133 246.456 128.144 244.404 136.705C240.864 151.483 245.05 154.806 247.686 168.476C249.357 177.153 250.451 191.435 249.378 200.112C248.379 208.19 238.242 218.83 233.057 224.891L236.448 224.218L236.808 226.936C242.794 226.236 240.361 221.521 241.945 218.559C242.61 217.315 244.268 216.282 245.172 214.93C247.455 211.499 249.289 207.823 251.742 204.514L254.806 214.699C256.05 214.856 255.398 213.252 255.296 212.512C255.017 210.412 254.1 208.38 254.113 206.22L255.466 205.88C256.838 209.04 258.985 211.737 260.358 214.924C266.038 228.112 266.629 251.641 259.026 264.123C257.151 267.2 245.355 279.872 245.294 280.953C245.226 282.176 246.837 281.51 247.163 281.503C253.556 281.292 255.853 276.298 259.542 271.787L260.222 311.195L251.64 305.834L250.044 307.444L261.594 316.617L243.922 305.42C222.431 286.361 211.274 256.737 221.67 228.791C223.131 224.864 225.38 221.29 226.942 217.424C221.242 224.178 217.049 234.852 214.535 243.399C209.256 261.357 211.424 279.621 215.392 297.599C213.183 296.24 212.185 292.313 211.308 289.799C208.04 280.348 206.355 269.225 205.859 259.237C205.662 255.358 205.709 251.342 206.416 247.496C206.667 246.131 205.546 246.307 205.213 246.64C204.704 247.15 201.32 258.612 200.906 260.345C193.242 292.333 199.268 313.784 225.644 333.209C233.288 338.835 242.291 342.28 249.69 348.571C261.411 358.532 265.107 369.369 258.211 383.882C266.33 377.02 274.164 366.618 275.176 355.672C276.44 342.103 269.68 328.235 262.28 317.303C263.497 317.038 263.932 317.949 264.672 318.642C269.843 323.432 277.704 333.542 279.756 340.248C289.812 373.161 259.502 395.093 233.411 406.991C232.283 406.304 233.628 405.482 234.076 404.939C236.434 402.078 246.721 392.933 243.324 388.904L239.193 386.94C241.19 382.755 242.542 375.94 242.624 371.319C242.658 369.24 241.408 360.638 240.708 358.913C237.956 352.139 225.237 352.315 219.312 353.484C216.187 354.095 213.537 355.733 210.445 355.943C204.568 350.481 203.481 341.974 194.607 340.472C190.796 339.827 177.961 339.161 175.501 336.144C174.4 334.792 175.114 327.923 175.324 325.796C175.956 319.457 181.005 302.627 178.633 298.02C177.587 295.989 174.278 292.87 172.736 290.329C170.548 286.721 166.77 278.792 166.709 274.688C166.661 271.216 176.038 267.663 178.008 264.591C178.28 263.328 171.418 259.89 171.227 256.424C171.091 253.965 173.272 253.829 175.304 253.421C175.182 256.125 177.879 257.376 179.374 259.224C180.203 259.597 181.154 258.605 181.759 258.171C190.028 252.212 201.497 238.609 207.394 230.13C208.101 229.117 213.122 221.942 212.674 221.487C211.172 221.127 211.172 222.357 210.506 223.05C204.181 229.613 198.84 237.536 191.754 243.902C188.023 247.252 182.391 252.307 177.349 252.735C177.655 251.668 179.496 251.75 180.706 251.009C187.228 247 196.924 236.768 201.789 230.646C205.112 226.467 210.934 220.087 208.59 214.699C206.402 216.242 204.847 218.776 201.809 218.769C203.365 214.822 202.061 212.206 199.425 209.264C197.692 213.68 199.323 214.618 193.914 215.297C174.971 217.682 158.997 205.833 161.049 185.83C161.654 179.939 167.45 174.632 167.694 172.132C167.905 170.019 164.147 168.436 165.119 165.786C166.077 164.787 171.859 169.665 172.912 170.555C177.003 174.014 185.258 182.004 187.357 186.686C189.049 190.457 188.689 199.69 194.594 196.273C196.462 195.192 196.822 192.427 197.522 192.264C198.365 192.06 199.56 192.393 200.62 192.121C205.75 190.796 210.275 189.003 215.799 190.891C217.471 190.851 222.607 181.603 223.389 179.551C223.837 178.376 226.256 172.105 223.898 171.928C222.723 171.84 214.393 179.409 211.777 180.849C208.359 182.731 200.77 184.722 198.453 186.55C196.938 187.752 197.006 189.886 197.053 191.605C193.71 191.082 194.234 186.563 195.015 184.138L192.99 186.169C192.725 182.303 191.815 178.179 192.29 174.265C193.466 164.644 205.866 167.043 210.316 159.677C210.493 162.137 208.645 163.258 208.556 166.125C208.468 168.993 209.813 170.691 209.97 173.26L206.953 169.835L205.893 165.113C196.503 169.135 191.495 173.966 195.728 184.817C200.593 184.002 220.841 175.312 221.541 170.848C222.098 167.308 219.421 160.914 220.134 155.907C220.222 155.275 222.023 151.035 222.213 150.845C224.163 148.908 222.974 154.249 223.151 154.921C224.245 159.012 229.062 161.58 233.064 161.709L230.353 159.331L232.378 158.665C228.145 150.627 221.547 148.005 220.807 138.295C220.025 127.995 222.186 116.94 224.095 106.843L223.205 105.315C219.985 105.009 216.132 105.736 213.014 105.315L213 105.308ZM167.13 198.393C167.626 196.116 165.928 193.249 166.091 191.238C166.288 188.839 166.356 186.91 166.485 184.498C166.593 182.453 169.44 180.041 168.496 177.336L163.346 189.234L167.137 198.399L167.13 198.393ZM201.789 193.636C199.73 193.303 200.709 194.16 200.417 195.287C199.017 200.709 201.952 206.227 205.859 209.943C204.616 204.501 201.544 199.371 201.782 193.636H201.789ZM227.601 211.982C221.948 213.408 214.515 213.218 209.949 209.264C210.241 214.971 222.635 215.766 226.073 214.183C227.031 213.741 227.853 213.177 227.601 211.982ZM241.19 295.554C238.54 288.175 234.158 281.632 231.658 274.178C227.316 261.208 226.073 246.335 228.451 232.868C229.083 229.301 231.264 225.231 231.352 221.501C226.684 232.392 223.192 244.412 224.299 256.404C225.515 269.538 233.71 284.955 241.19 295.561V295.554ZM180.651 286.64C181.501 286.11 183.94 276.523 184.674 274.702C187.262 268.328 191.291 262.607 193.629 256.146C188.859 257.715 186.128 263.131 182.316 265.549C178.661 267.866 173.34 268.131 170.154 271.753C169.868 273.22 171.044 273.988 172.246 274.477L172.579 271.773C172.742 271.569 173.388 272.12 173.599 272.446C174.693 274.124 178.097 286.273 178.735 286.687L180.645 286.64H180.651ZM197.033 332.924C194.675 323.941 191.06 316.087 189.64 306.69C189.287 304.332 190.415 300.432 188.214 298.965L180.774 329.119C181.161 330.383 196.258 333.657 197.04 332.93L197.033 332.924ZM226.249 345.826L203.155 326.809L213.448 347.083C217.742 347.593 222.057 346.642 226.249 345.826ZM249.357 376.409C251.715 375.056 254.256 369.41 253.821 366.855C253.468 364.81 246.673 355.284 245.281 356.711C248.291 363.146 251.81 369.043 249.357 376.409Z"/>
</mask>
<path d="M213 105.308C199.764 103.521 189.369 89.6737 190.313 76.5196C190.694 71.2538 195.185 59.4993 200.097 57.0737C201.619 56.3263 200.376 58.3443 201.375 59.1188C205.723 62.4957 210.119 53.8599 215.636 55.7963L221.412 67.0005C223.79 72.2594 225.882 76.8253 222.037 82.0571C211.41 83.3276 217.647 74.3181 218.707 69.5552C219.366 66.5996 213.808 71.2674 213.333 71.6615C209.807 74.5899 203.691 81.5475 204.636 86.4463C205.9 93.0166 213.36 95.0617 219.108 95.1637C221.147 95.1976 226.806 94.953 224.449 92.3507C223.932 91.78 210.051 85.5019 215.833 83.6538C219.72 82.4104 232.303 89.0894 233.044 88.308C234.817 75.4188 223.694 66.6743 219.461 55.7012C228.539 55.4566 233.859 62.5636 240.518 67.2451C239.505 62.2035 234.593 59.2072 231.012 56.0341C230.903 55.5313 231.705 55.5789 232.018 55.708C235.17 57.0057 241.421 63.4062 242.943 66.5316C245.586 71.9536 245.831 80.936 243.956 86.657C243.072 89.3544 239.831 93.2136 239.825 95.4355C239.818 99.0773 240.783 107.815 241.285 111.681C242.393 120.133 246.456 128.144 244.404 136.705C240.864 151.483 245.05 154.806 247.686 168.476C249.357 177.153 250.451 191.435 249.378 200.112C248.379 208.19 238.242 218.83 233.057 224.891L236.448 224.218L236.808 226.936C242.794 226.236 240.361 221.521 241.945 218.559C242.61 217.315 244.268 216.282 245.172 214.93C247.455 211.499 249.289 207.823 251.742 204.514L254.806 214.699C256.05 214.856 255.398 213.252 255.296 212.512C255.017 210.412 254.1 208.38 254.113 206.22L255.466 205.88C256.838 209.04 258.985 211.737 260.358 214.924C266.038 228.112 266.629 251.641 259.026 264.123C257.151 267.2 245.355 279.872 245.294 280.953C245.226 282.176 246.837 281.51 247.163 281.503C253.556 281.292 255.853 276.298 259.542 271.787L260.222 311.195L251.64 305.834L250.044 307.444L261.594 316.617L243.922 305.42C222.431 286.361 211.274 256.737 221.67 228.791C223.131 224.864 225.38 221.29 226.942 217.424C221.242 224.178 217.049 234.852 214.535 243.399C209.256 261.357 211.424 279.621 215.392 297.599C213.183 296.24 212.185 292.313 211.308 289.799C208.04 280.348 206.355 269.225 205.859 259.237C205.662 255.358 205.709 251.342 206.416 247.496C206.667 246.131 205.546 246.307 205.213 246.64C204.704 247.15 201.32 258.612 200.906 260.345C193.242 292.333 199.268 313.784 225.644 333.209C233.288 338.835 242.291 342.28 249.69 348.571C261.411 358.532 265.107 369.369 258.211 383.882C266.33 377.02 274.164 366.618 275.176 355.672C276.44 342.103 269.68 328.235 262.28 317.303C263.497 317.038 263.932 317.949 264.672 318.642C269.843 323.432 277.704 333.542 279.756 340.248C289.812 373.161 259.502 395.093 233.411 406.991C232.283 406.304 233.628 405.482 234.076 404.939C236.434 402.078 246.721 392.933 243.324 388.904L239.193 386.94C241.19 382.755 242.542 375.94 242.624 371.319C242.658 369.24 241.408 360.638 240.708 358.913C237.956 352.139 225.237 352.315 219.312 353.484C216.187 354.095 213.537 355.733 210.445 355.943C204.568 350.481 203.481 341.974 194.607 340.472C190.796 339.827 177.961 339.161 175.501 336.144C174.4 334.792 175.114 327.923 175.324 325.796C175.956 319.457 181.005 302.627 178.633 298.02C177.587 295.989 174.278 292.87 172.736 290.329C170.548 286.721 166.77 278.792 166.709 274.688C166.661 271.216 176.038 267.663 178.008 264.591C178.28 263.328 171.418 259.89 171.227 256.424C171.091 253.965 173.272 253.829 175.304 253.421C175.182 256.125 177.879 257.376 179.374 259.224C180.203 259.597 181.154 258.605 181.759 258.171C190.028 252.212 201.497 238.609 207.394 230.13C208.101 229.117 213.122 221.942 212.674 221.487C211.172 221.127 211.172 222.357 210.506 223.05C204.181 229.613 198.84 237.536 191.754 243.902C188.023 247.252 182.391 252.307 177.349 252.735C177.655 251.668 179.496 251.75 180.706 251.009C187.228 247 196.924 236.768 201.789 230.646C205.112 226.467 210.934 220.087 208.59 214.699C206.402 216.242 204.847 218.776 201.809 218.769C203.365 214.822 202.061 212.206 199.425 209.264C197.692 213.68 199.323 214.618 193.914 215.297C174.971 217.682 158.997 205.833 161.049 185.83C161.654 179.939 167.45 174.632 167.694 172.132C167.905 170.019 164.147 168.436 165.119 165.786C166.077 164.787 171.859 169.665 172.912 170.555C177.003 174.014 185.258 182.004 187.357 186.686C189.049 190.457 188.689 199.69 194.594 196.273C196.462 195.192 196.822 192.427 197.522 192.264C198.365 192.06 199.56 192.393 200.62 192.121C205.75 190.796 210.275 189.003 215.799 190.891C217.471 190.851 222.607 181.603 223.389 179.551C223.837 178.376 226.256 172.105 223.898 171.928C222.723 171.84 214.393 179.409 211.777 180.849C208.359 182.731 200.77 184.722 198.453 186.55C196.938 187.752 197.006 189.886 197.053 191.605C193.71 191.082 194.234 186.563 195.015 184.138L192.99 186.169C192.725 182.303 191.815 178.179 192.29 174.265C193.466 164.644 205.866 167.043 210.316 159.677C210.493 162.137 208.645 163.258 208.556 166.125C208.468 168.993 209.813 170.691 209.97 173.26L206.953 169.835L205.893 165.113C196.503 169.135 191.495 173.966 195.728 184.817C200.593 184.002 220.841 175.312 221.541 170.848C222.098 167.308 219.421 160.914 220.134 155.907C220.222 155.275 222.023 151.035 222.213 150.845C224.163 148.908 222.974 154.249 223.151 154.921C224.245 159.012 229.062 161.58 233.064 161.709L230.353 159.331L232.378 158.665C228.145 150.627 221.547 148.005 220.807 138.295C220.025 127.995 222.186 116.94 224.095 106.843L223.205 105.315C219.985 105.009 216.132 105.736 213.014 105.315L213 105.308ZM167.13 198.393C167.626 196.116 165.928 193.249 166.091 191.238C166.288 188.839 166.356 186.91 166.485 184.498C166.593 182.453 169.44 180.041 168.496 177.336L163.346 189.234L167.137 198.399L167.13 198.393ZM201.789 193.636C199.73 193.303 200.709 194.16 200.417 195.287C199.017 200.709 201.952 206.227 205.859 209.943C204.616 204.501 201.544 199.371 201.782 193.636H201.789ZM227.601 211.982C221.948 213.408 214.515 213.218 209.949 209.264C210.241 214.971 222.635 215.766 226.073 214.183C227.031 213.741 227.853 213.177 227.601 211.982ZM241.19 295.554C238.54 288.175 234.158 281.632 231.658 274.178C227.316 261.208 226.073 246.335 228.451 232.868C229.083 229.301 231.264 225.231 231.352 221.501C226.684 232.392 223.192 244.412 224.299 256.404C225.515 269.538 233.71 284.955 241.19 295.561V295.554ZM180.651 286.64C181.501 286.11 183.94 276.523 184.674 274.702C187.262 268.328 191.291 262.607 193.629 256.146C188.859 257.715 186.128 263.131 182.316 265.549C178.661 267.866 173.34 268.131 170.154 271.753C169.868 273.22 171.044 273.988 172.246 274.477L172.579 271.773C172.742 271.569 173.388 272.12 173.599 272.446C174.693 274.124 178.097 286.273 178.735 286.687L180.645 286.64H180.651ZM197.033 332.924C194.675 323.941 191.06 316.087 189.64 306.69C189.287 304.332 190.415 300.432 188.214 298.965L180.774 329.119C181.161 330.383 196.258 333.657 197.04 332.93L197.033 332.924ZM226.249 345.826L203.155 326.809L213.448 347.083C217.742 347.593 222.057 346.642 226.249 345.826ZM249.357 376.409C251.715 375.056 254.256 369.41 253.821 366.855C253.468 364.81 246.673 355.284 245.281 356.711C248.291 363.146 251.81 369.043 249.357 376.409Z" stroke="#413B3B" stroke-width="2" mask="url(#path-2-inside-2_143_810)"/>
<path d="M263.23 313.033C264.986 313.74 266.712 314.526 268.462 315.302C270.806 316.341 273.189 317.36 275.698 318.113C279.798 319.346 284.031 320.062 288.205 320.828C292.391 321.597 296.527 322.418 300.492 323.859C302.406 324.555 304.211 325.518 306.041 326.514C307.86 327.504 309.708 328.529 311.66 329.31L311.869 329.394L312.069 329.293L312.083 329.286L312.67 328.993L312.231 328.505L310.946 327.074L314.027 328.62L314.479 328.847L314.7 328.393L314.991 327.798C318.078 332.429 318.954 337.918 318.83 343.643C318.7 349.665 317.472 355.863 316.604 361.533C315.836 366.565 314.654 371.67 313.596 376.837C312.606 381.67 311.727 386.544 311.421 391.395L311.367 392.364C311.25 394.882 311.059 397.194 311.434 399.314C311.728 400.984 312.373 402.538 313.645 404.026L309.949 403.107L309.373 402.963L309.33 403.555C309.278 404.27 309.188 405.084 309.737 405.913C309.917 406.186 310.275 406.513 310.697 406.856C311.138 407.212 311.704 407.629 312.354 408.081C313.653 408.986 315.308 410.05 317.001 411.103C320.385 413.206 323.953 415.277 325.201 415.938L325.202 415.939C334.905 421.048 343.327 422.63 351.9 423.126C356.178 423.374 360.499 423.352 365.021 423.363C369.542 423.375 374.275 423.42 379.407 423.8L391.185 425.5H4.12988L5.26172 425.221C14.0976 423.984 23.0107 423.636 31.9551 423.423C40.8985 423.21 49.8822 423.132 58.8105 422.435C59.194 422.405 60.0074 422.35 60.7275 422.146C61.0862 422.044 61.4644 421.893 61.7627 421.659C62.0736 421.415 62.3203 421.059 62.3232 420.581V420.484L65.2373 420.385L65.8086 420.365L65.7129 419.802C65.53 418.719 64.618 418.361 63.9482 418.16C63.5674 418.046 63.2861 417.985 63.002 417.882C62.7303 417.783 62.5996 417.689 62.5391 417.602L62.4912 417.522C62.386 417.315 62.3188 416.964 62.3262 416.451C62.3343 415.888 62.4303 415.216 62.5762 414.515C62.8675 413.115 63.3437 411.667 63.6318 410.869V410.868C64.9669 407.153 68.4949 404.047 72.5654 401.18C73.8324 400.288 75.1391 399.428 76.4355 398.583C74.253 400.109 72.1613 401.724 70.292 403.554C69.9788 403.86 68.6233 405.379 67.7119 406.722C67.4824 407.06 67.2748 407.396 67.1172 407.706C66.9652 408.005 66.8365 408.325 66.8076 408.616C66.7928 408.766 66.7999 408.945 66.877 409.119C66.9603 409.307 67.1075 409.448 67.2949 409.528C67.621 409.668 68.0227 409.607 68.4062 409.493L68.5166 409.46L68.6025 409.382C71.6132 406.62 75.1082 404.204 78.624 401.771C81.9093 399.497 85.2137 397.209 88.0967 394.633L88.668 394.113C91.5574 391.438 94.0619 388.698 96.4365 385.996C98.8163 383.289 101.053 380.634 103.436 378.098C108.186 373.039 113.466 368.499 121.346 365.202C124.796 363.757 128.558 363.013 132.285 361.885C135.969 360.77 139.54 359.294 142.351 356.392L141.844 355.567C141.516 355.668 141.42 355.59 141.389 355.563C141.314 355.497 141.235 355.349 141.172 355.072C141.157 355.008 141.145 354.942 141.133 354.874L141.033 354.25C141.01 354.132 140.971 353.962 140.887 353.819C140.841 353.742 140.764 353.641 140.638 353.569C140.5 353.492 140.349 353.474 140.21 353.501L140.118 353.52L140.039 353.569C137.575 355.121 134.606 357.169 131.946 358.21L131.419 358.404C131.09 358.518 130.924 358.589 130.74 358.647C130.664 358.671 130.617 358.679 130.592 358.683C130.581 358.669 130.563 358.649 130.543 358.615C130.512 358.563 130.479 358.496 130.441 358.411C134.904 357.137 138.679 354.376 142.189 351.259C144.015 349.637 145.786 347.906 147.541 346.231C149.301 344.551 151.052 342.923 152.86 341.487C154.345 340.309 155.951 339.221 157.579 338.117C158.139 337.738 158.7 337.354 159.26 336.967C159.14 337.056 159.02 337.146 158.899 337.236C157.932 337.964 156.958 338.723 156.296 339.429C155.858 339.896 155.591 340.534 155.36 341.062C155.113 341.627 154.895 342.098 154.565 342.437C151.322 345.714 147.673 349.344 143.797 351.532L143.297 351.815L143.646 352.272L144.665 353.603L144.979 354.014L145.379 353.686L171.679 332.137L171.766 332.164C170.628 333.919 170.673 335.938 170.704 337.791C170.74 339.913 170.763 341.842 169.476 343.485L168.993 344.1L169.754 344.28C175.224 345.575 180.704 347.236 186.446 347.723C188.325 347.882 190.338 347.683 192.202 347.628C194.103 347.572 195.901 347.662 197.527 348.339L197.882 348.486L198.116 348.182C198.289 347.956 198.317 347.688 198.311 347.482C198.304 347.268 198.256 347.04 198.198 346.824C198.088 346.413 197.891 345.882 197.763 345.476C197.626 345.041 197.556 344.712 197.568 344.497L204.912 355.939C204.787 356.019 204.63 356.116 204.437 356.222C203.974 356.475 203.346 356.781 202.598 357.125C201.103 357.812 199.158 358.632 197.156 359.444C193.15 361.07 188.95 362.652 187.742 363.058C184.15 364.265 180.068 365.182 176.006 366.188C171.961 367.189 167.941 368.277 164.545 369.823C162.518 370.748 160.498 372.24 158.501 373.548C156.473 374.876 154.442 376.037 152.288 376.439C150.099 376.847 147.769 376.682 145.324 376.575C142.908 376.47 140.395 376.425 137.977 377.137C132.225 378.834 125.275 383.339 118.364 387.958C111.411 392.606 104.485 397.378 98.6914 399.738L98.5605 399.792L98.4766 399.905L96.8125 402.175L96.5664 402.511L96.8516 402.814L98.8936 404.982L95.0166 405.82L94.1885 406L94.7461 406.639C98.111 410.49 103.743 414.207 108.467 416.6L109.398 417.061C113.555 419.06 119.398 419.433 125.266 419.294C128.211 419.224 131.186 419.023 133.987 418.824C136.443 418.65 138.761 418.477 140.82 418.391L141.687 418.36C180.679 417.206 217.419 416.954 256.446 418.38C266.284 418.74 276.187 418.816 286.011 419.006L286.544 419.016L286.52 418.484C286.286 413.331 287.793 408.63 289.188 403.784C290.576 398.965 291.846 394.02 290.992 388.526C290.731 386.845 290.1 385.228 289.479 383.702C288.929 382.349 288.391 381.078 288.068 379.842L287.943 379.315C286.064 370.314 287.46 359.307 290.934 350.791C292.042 348.076 293.606 345.595 295.183 343.064C296.751 340.545 298.331 337.976 299.411 335.139L299.854 333.976L298.729 334.509C295.425 336.077 293.491 339.316 291.595 342.227C289.782 345.01 288 347.51 285.14 348.55C284.538 339.881 281.152 331.373 275.565 324.766C273.49 322.312 271.043 320.218 268.653 318.143C266.753 316.493 264.888 314.853 263.23 313.033ZM116.893 362.309C112.945 364.026 109.313 366.439 106.111 369.366C103.204 372.025 101.163 375.028 99.2031 378.006C97.3584 380.808 95.589 383.58 93.2227 386.107L92.7412 386.609C89.4615 389.944 85.5828 392.538 81.6797 395.089C82.6024 394.433 83.4693 393.777 84.249 393.115C88.2028 389.761 91.122 385.721 93.9648 381.757C96.8184 377.778 99.5926 373.88 103.283 370.698V370.697C107.367 367.173 111.937 364.3 116.893 362.309ZM294.113 352.35C291.733 356.062 290.26 361.21 290.067 366.303C289.875 371.391 290.96 376.508 293.794 380.113L294.893 381.511L294.684 379.745L293.283 367.912L295.03 352.677L294.113 352.35Z" stroke="#413B3B"/>
<path d="M192.418 23.9728C186.945 24.8105 181.715 26.939 176.536 28.6154C171.192 30.3455 165.852 31.6181 160.117 30.6935C159.565 30.6044 159.015 30.3687 158.432 30.0734C157.873 29.7907 157.244 29.4303 156.64 29.1769C156.02 28.917 155.343 28.7302 154.622 28.8097C153.89 28.8905 153.174 29.2385 152.465 29.9327L152.23 30.1613L152.347 30.4679L180.944 105.766C180.737 105.507 180.545 105.222 180.365 104.914C179.843 104.023 179.466 103.062 179.016 102.128V102.127L178.219 100.454C174.278 92.0408 170.996 82.9003 167.784 73.6652C164.362 63.8235 161.018 53.8701 157.052 44.6261C156.397 43.0985 155.715 41.2386 154.916 39.5353C154.11 37.8165 153.141 36.1532 151.845 34.9396L151.003 34.1515V107.013L150.639 106.743C150.173 84.7226 149.099 62.4069 149.938 40.3927C149.949 40.1113 150.035 39.7068 150.158 39.1993C150.276 38.7131 150.422 38.1489 150.519 37.6144C150.614 37.0866 150.674 36.5252 150.589 36.0421C150.5 35.5359 150.234 35.0482 149.646 34.84L149.203 34.6837L149.019 35.1144C140.182 55.7855 133.577 77.4686 125.726 98.4874C125.387 99.3916 124.825 100.509 124.203 101.762C123.588 103.001 122.923 104.357 122.407 105.697C121.894 107.033 121.513 108.392 121.492 109.637C121.472 110.896 121.821 112.072 122.8 112.962L122.801 112.963C122.875 113.03 122.966 113.075 123.014 113.099C123.076 113.129 123.15 113.162 123.229 113.193C123.387 113.257 123.59 113.331 123.819 113.409C124.279 113.567 124.864 113.753 125.446 113.929C126.029 114.105 126.615 114.274 127.074 114.4C127.303 114.462 127.505 114.514 127.66 114.551C127.737 114.569 127.807 114.585 127.865 114.597C127.908 114.605 127.989 114.62 128.062 114.62H165.242C164.974 117.705 163.72 120.605 162.019 123.352C160.222 126.252 157.956 128.942 155.879 131.484L155.062 132.483L156.339 132.294C163.581 131.226 170.139 126.789 174.957 121.594C175.384 121.135 176.063 120.24 176.836 119.178C177.616 118.107 178.512 116.838 179.38 115.616C180.25 114.392 181.09 113.214 181.764 112.319C182.101 111.871 182.392 111.501 182.62 111.232C182.735 111.097 182.829 110.993 182.901 110.921C182.977 110.846 183.002 110.834 182.986 110.842C183.356 110.664 184.238 110.423 184.949 110.425C185.319 110.426 185.534 110.493 185.625 110.563C185.656 110.587 185.668 110.606 185.675 110.633C185.681 110.659 185.688 110.712 185.672 110.802L185.647 110.904C185.37 111.87 184.69 113.214 183.905 114.592C183.126 115.96 182.272 117.314 181.666 118.303L181.665 118.304C173.2 132.187 160.616 137.352 148.7 135.643C136.82 133.939 125.525 125.389 119.584 111.639C125.166 98.8361 129.784 85.6214 134.379 72.4132C138.999 59.13 143.596 45.8536 149.136 32.9738L149.161 32.9161L149.171 32.8527C149.333 31.8018 148.869 30.8304 148.298 29.9581C148.008 29.5156 147.671 29.0716 147.342 28.6359C147.008 28.1951 146.68 27.7596 146.385 27.3136C145.792 26.4175 145.375 25.5361 145.353 24.6056C145.33 23.695 145.684 22.6499 146.815 21.422H146.816C147.549 20.6257 148.994 20.3513 150.616 20.506C152.115 20.6489 153.578 21.1419 154.414 21.6974L154.573 21.8097C154.727 21.9263 154.905 22.1407 155.117 22.4689C155.326 22.7922 155.538 23.1782 155.779 23.6095C156.249 24.449 156.819 25.4463 157.583 26.1847C159.834 28.3632 162.233 28.8265 164.7 28.5763C165.92 28.4526 167.157 28.1555 168.396 27.8146C169.65 27.4691 170.878 27.0874 172.158 26.7657C175.715 25.8739 179.213 24.7354 182.685 23.5646C185.946 22.4646 189.18 21.3395 192.438 20.3517L192.418 23.9728Z" stroke="#413B3B"/>
<path d="M253.615 109.622C253.625 109.717 253.651 109.891 253.749 110.054V110.157L253.983 110.304C254.496 110.626 255.054 110.66 255.528 110.642C255.599 110.639 255.671 110.631 255.742 110.626L255.082 111.45L254.888 111.693L255.02 111.975C255.168 112.292 255.431 112.543 255.723 112.745C256.018 112.948 256.377 113.123 256.767 113.276C257.547 113.581 258.515 113.821 259.499 114.008C260.979 114.29 262.542 114.463 263.66 114.563L264.609 114.639C275.444 115.418 287.665 114.558 298.485 113.994C298.59 116.59 297.415 118.979 296.156 121.369L288.359 132.194L287.501 133.386L288.909 132.964C300.501 129.493 310.177 122.281 315.03 110.947L315.033 110.939L317.961 110.915C314.57 120.46 308.185 128.123 300.215 132.342C292.07 136.654 282.246 137.385 272.203 132.826C270.633 132.112 268.392 130.847 266.244 129.449C264.091 128.046 262.074 126.536 260.93 125.339V125.338C260.133 124.506 258.254 121.856 256.48 119.108C255.6 117.743 254.754 116.37 254.095 115.208C253.508 114.175 253.092 113.349 252.912 112.85L252.85 112.656C252.57 111.644 252.547 111.074 252.708 110.625C252.837 110.268 253.104 109.927 253.608 109.488C253.61 109.534 253.611 109.58 253.615 109.622ZM309.012 110.986C308.223 111.123 307.451 111.257 306.768 111.367C305.784 111.525 305.034 111.626 304.688 111.629C303.975 111.635 303.264 111.467 302.477 111.279C302.137 111.197 301.781 111.115 301.416 111.045L309.012 110.986Z" stroke="#413B3B"/>
<path d="M286.948 20.2056C286.959 20.2127 286.972 20.2211 286.987 20.2329C287.063 20.2912 287.166 20.383 287.291 20.5073C287.539 20.7539 287.842 21.0943 288.145 21.4614C288.446 21.8279 288.74 22.2129 288.97 22.5454C289.213 22.898 289.346 23.1366 289.376 23.2319V23.231C289.894 24.899 288.897 26.1825 287.638 27.6968C287.037 28.4187 286.381 29.1942 285.965 30.0337C285.537 30.8962 285.346 31.8568 285.694 32.937L285.698 32.9497L285.703 32.9614L313.02 104.676C312.949 104.554 312.879 104.429 312.812 104.302C312.518 103.754 312.253 103.187 312.006 102.63L311.306 101.023C306.82 90.8315 303.056 80.0865 299.252 69.3374C295.688 59.2666 292.089 49.1928 287.838 39.604L286.979 37.6929C286.831 37.366 286.57 36.6658 286.254 36.0991C286.091 35.8075 285.893 35.5102 285.655 35.2778C285.417 35.0458 285.099 34.8396 284.701 34.8247L284.183 34.8062V106.846H283.144V34.6997L282.534 34.8374C281.742 35.0164 281.281 35.5447 280.976 36.0942C280.825 36.365 280.706 36.653 280.603 36.9175C280.494 37.1925 280.406 37.4307 280.306 37.6538V37.6548C275.856 47.5964 272.256 58.5539 268.703 69.5435C265.147 80.5427 261.64 91.5734 257.37 101.704H257.369C256.951 102.697 256.469 103.877 255.876 104.973C255.748 105.209 255.615 105.438 255.479 105.659L282.436 29.3833L282.699 28.6392L281.914 28.7192C280.255 28.8884 278.598 29.1128 276.95 29.3374C275.3 29.5623 273.658 29.7875 272.014 29.9585C268.726 30.3005 265.453 30.4252 262.161 29.9116C259.935 29.5643 257.316 28.6164 254.615 27.5923C251.939 26.5776 249.184 25.4884 246.756 24.9116H246.755C245.761 24.6763 244.844 24.6468 244.076 24.6187C243.279 24.5894 242.7 24.5595 242.248 24.3794C241.851 24.221 241.525 23.9321 241.3 23.2622C241.089 22.6356 240.974 21.6943 241.001 20.2739C246.29 21.059 251.029 22.9316 255.939 24.5444C260.999 26.2062 266.2 27.5702 272.192 27.0239C273.871 26.8706 275.063 26.4598 275.973 25.8618C276.881 25.2644 277.468 24.5056 277.97 23.731C278.693 22.6135 279.243 21.4875 280.307 20.519L278.799 23.5444L278.379 24.3872L279.312 24.2632L286.801 23.2642L286.829 23.2603L286.857 23.2534C287.141 23.1815 287.392 23.0131 287.512 22.7183C287.617 22.4595 287.582 22.192 287.532 21.9956C287.435 21.6104 287.184 21.1502 287.02 20.8169C286.928 20.6327 286.855 20.4736 286.807 20.3374C286.789 20.286 286.777 20.2424 286.769 20.2065C286.814 20.2023 286.873 20.2016 286.948 20.2056Z" stroke="#413B3B"/>
<path d="M195.513 18.3411C197.664 18.9226 200.021 18.8758 202.267 18.8538C204.792 18.829 207.183 18.8379 209.239 19.6643L209.24 19.6653C210.005 19.9716 210.621 20.5329 211.179 21.2502C211.742 21.9751 212.214 22.8126 212.727 23.6633C213.706 25.29 214.873 27.0577 217.075 27.0657C218.215 27.0696 219.073 26.5398 219.753 25.7922C220.418 25.0612 220.941 24.0901 221.426 23.1506C221.923 22.1875 222.383 21.2518 222.938 20.4827C223.488 19.7194 224.09 19.1839 224.833 18.968V18.967C226.697 18.4234 228.983 18.6284 231.401 18.9651C233.634 19.2758 235.99 19.7008 238.046 19.635C238.689 21.5303 239.046 23.9096 238.652 25.7551C238.445 26.7273 238.04 27.506 237.407 28.01C236.844 28.4585 236.045 28.7319 234.911 28.6741C234.708 27.3839 234.229 26.3446 233.531 25.5315C232.763 24.6358 231.756 24.0429 230.643 23.676C228.43 22.9472 225.735 23.0926 223.389 23.5833L223.289 23.6038L223.205 23.6624C222.692 24.019 222.485 24.6593 222.389 25.2698C222.288 25.9042 222.286 26.657 222.307 27.4026C222.328 28.1711 222.373 28.9134 222.378 29.6184C222.383 30.3226 222.347 30.9016 222.229 31.3049L222.229 31.3069C222.188 31.447 222.091 31.626 221.922 31.8538C221.756 32.0781 221.546 32.3165 221.311 32.5823C220.915 33.0285 220.436 33.5574 220.106 34.1321L219.976 34.3801C219.744 34.8607 219.563 35.4645 219.392 36.0559C219.215 36.6638 219.045 37.2727 218.832 37.8274C218.618 38.3845 218.379 38.8377 218.089 39.1467C217.813 39.4401 217.496 39.602 217.078 39.6008H217.076C216.37 39.6007 215.965 39.3328 215.705 38.9309C215.421 38.4915 215.278 37.8401 215.254 37.0461C215.206 35.5003 215.604 33.6915 215.83 32.5637C215.846 32.5458 215.876 32.519 215.937 32.4885C216.039 32.4369 216.19 32.3918 216.399 32.3528C216.606 32.3142 216.841 32.2865 217.102 32.259C217.356 32.2322 217.637 32.2051 217.907 32.1663C218.426 32.0917 219.037 31.9603 219.469 31.5979C219.699 31.4048 219.873 31.1496 219.957 30.8254C220.039 30.5089 220.025 30.1584 219.934 29.7786L219.816 29.2874L219.326 29.4104L211.45 31.3879C211.201 31.0777 211.136 30.5573 211.22 29.7297C211.267 29.262 211.352 28.7692 211.431 28.2336C211.508 27.7105 211.578 27.1573 211.581 26.6233C211.588 25.5518 211.323 24.4433 210.208 23.7659C209.153 23.1253 207.449 22.9497 204.815 23.3333C203.708 23.4945 202.852 23.809 202.151 24.2473C201.452 24.6852 200.932 25.2317 200.481 25.8196C200.043 26.3916 199.639 27.0482 199.223 27.6594C198.866 28.1831 198.477 28.7081 197.997 29.2209C196.26 27.8767 195.652 26.2098 195.47 24.3196C195.371 23.3014 195.398 22.2266 195.44 21.0999C195.475 20.2049 195.518 19.2748 195.513 18.3411Z" stroke="#413B3B"/>
<path d="M217.171 0.595703C217.66 1.43896 218.263 2.30014 218.89 3.16797C219.611 4.16699 220.365 5.17362 221.053 6.21289C222.434 8.29917 223.475 10.4044 223.399 12.5586V12.5596C223.399 12.5847 223.387 12.6657 223.343 12.8223C223.301 12.9692 223.24 13.155 223.158 13.377C222.995 13.8207 222.761 14.3867 222.476 15.0342C221.905 16.3278 221.139 17.9262 220.347 19.4834C219.554 21.0413 218.738 22.5503 218.071 23.667C217.737 24.2269 217.446 24.6775 217.218 24.9844C217.191 25.0204 217.164 25.0524 217.14 25.083C213.83 21.0918 211.715 17.1354 211.332 13.1875C210.942 9.16777 212.34 5.07271 216.285 0.866211L217.171 0.595703Z" stroke="#413B3B"/>
<path d="M192.085 165.702C188.62 172.761 189.467 181.158 192.263 188.204L191.95 188.28C189.306 179.501 182.048 173.039 175.188 167.512L192.085 165.702Z" stroke="#413B3B"/>
<path d="M224.125 33.8407C225.133 33.5016 225.934 33.6117 226.509 33.913C227.091 34.2184 227.478 34.7402 227.626 35.2948C227.773 35.8487 227.679 36.4114 227.334 36.8329C226.992 37.2508 226.341 37.6066 225.228 37.6112C224.51 37.6141 224.038 37.3937 223.734 37.0995C223.424 36.7989 223.245 36.3776 223.194 35.912C223.144 35.4446 223.227 34.9614 223.41 34.5731C223.595 34.1809 223.855 33.933 224.126 33.8417L224.125 33.8407Z" stroke="#413B3B"/>
<path d="M207.157 33.8285C207.63 33.673 208.166 33.7298 208.704 33.9603C209.243 34.1912 209.751 34.5847 210.135 35.0424C210.522 35.5048 210.75 35.9923 210.789 36.3978C210.825 36.7699 210.709 37.0745 210.371 37.3021C209.491 37.8362 208.686 37.9112 208.021 37.7435C207.342 37.5726 206.774 37.1403 206.404 36.6068C206.032 36.0686 205.889 35.471 205.991 34.9808C206.087 34.5201 206.412 34.0759 207.157 33.8285Z" stroke="#413B3B"/>
<path d="M188.486 299.913C188.931 300.536 189.09 301.422 189.117 302.498C189.135 303.206 189.096 303.937 189.073 304.672C189.054 305.301 189.046 305.936 189.108 306.513L189.14 306.757C189.856 311.499 191.125 315.843 192.503 320.11C193.831 324.222 195.253 328.246 196.404 332.524C196.329 332.524 196.244 332.525 196.149 332.521C195.685 332.499 195.048 332.428 194.289 332.316C192.774 332.094 190.815 331.716 188.863 331.275C186.911 330.834 184.978 330.333 183.515 329.865C182.781 329.631 182.179 329.41 181.756 329.214C181.557 329.122 181.413 329.04 181.315 328.975L188.486 299.913Z" stroke="#413B3B"/>
<path d="M192.762 257.037C191.654 259.841 190.25 262.523 188.809 265.22C187.191 268.246 185.524 271.296 184.218 274.512C184.021 274.995 183.722 275.964 183.379 277.118C183.031 278.289 182.633 279.663 182.229 281.01C181.825 282.355 181.421 283.649 181.067 284.637C180.89 285.133 180.729 285.54 180.59 285.835C180.527 285.97 180.472 286.071 180.427 286.144L179.001 286.179C178.958 286.093 178.905 285.978 178.845 285.833C178.694 285.473 178.508 284.971 178.296 284.362C177.872 283.146 177.355 281.543 176.82 279.891C176.287 278.243 175.737 276.547 175.252 275.159C175.009 274.465 174.781 273.842 174.578 273.337C174.379 272.844 174.19 272.428 174.024 272.172C173.878 271.947 173.618 271.687 173.374 271.507C173.253 271.418 173.1 271.322 172.938 271.27C172.809 271.228 172.445 271.149 172.196 271.46L172.107 271.571L172.09 271.711L171.84 273.736C171.512 273.562 171.228 273.366 171.017 273.14C170.731 272.835 170.574 272.47 170.634 271.975C172.126 270.332 174.109 269.417 176.234 268.63C178.368 267.841 180.7 267.167 182.59 265.971H182.591C184.569 264.718 186.267 262.687 187.985 260.873C189.462 259.314 190.973 257.89 192.762 257.037Z" stroke="#413B3B"/>
<path d="M229.474 227.549C228.887 229.303 228.256 231.094 227.958 232.774C225.565 246.326 226.817 261.284 231.184 274.331C232.446 278.098 234.183 281.629 235.921 285.116C236.939 287.158 237.954 289.187 238.887 291.248C232.276 281.023 225.856 267.787 224.797 256.351C223.895 246.586 226.078 236.773 229.474 227.549Z" stroke="#413B3B"/>
<path d="M225.114 345.538C221.329 346.281 217.539 347.008 213.771 346.614L204.684 328.714L225.114 345.538Z" stroke="#413B3B"/>
<path d="M246.086 357.237C246.292 357.357 246.542 357.538 246.827 357.784C247.629 358.477 248.596 359.568 249.547 360.788C250.494 362.003 251.409 363.325 252.107 364.467C252.457 365.038 252.749 365.558 252.962 365.993C253.181 366.44 253.298 366.759 253.329 366.939C253.423 367.484 253.362 368.242 253.155 369.123C252.951 369.995 252.612 370.951 252.186 371.875C251.759 372.799 251.25 373.68 250.711 374.406C250.569 374.597 250.426 374.775 250.284 374.939C251.765 368.37 248.762 362.874 246.086 357.237Z" stroke="#413B3B"/>
<path d="M165.979 184.464C165.85 186.886 165.783 188.801 165.587 191.19V191.191C165.54 191.767 165.627 192.38 165.76 192.985C165.892 193.588 166.08 194.228 166.247 194.841C166.274 194.941 166.3 195.041 166.326 195.14L163.882 189.231L165.988 184.367L165.979 184.464Z" stroke="#413B3B"/>
<path d="M210.788 210.532C215.376 213.645 221.94 213.788 227.124 212.608C227.089 212.78 227.013 212.919 226.909 213.041C226.745 213.233 226.503 213.402 226.194 213.566L225.863 213.728C225.095 214.082 223.755 214.326 222.126 214.384C220.513 214.442 218.671 214.315 216.93 213.966C215.182 213.616 213.569 213.05 212.389 212.249C211.661 211.755 211.114 211.185 210.788 210.532Z" stroke="#413B3B"/>
<path d="M201.277 194.075C201.24 196.865 201.94 199.502 202.792 202.057C203.49 204.15 204.277 206.162 204.885 208.202C201.758 204.65 199.732 199.964 200.907 195.412C201.001 195.05 200.99 194.719 200.97 194.467C200.958 194.314 200.949 194.256 200.941 194.146C200.939 194.116 200.941 194.091 200.94 194.07C201.011 194.062 201.118 194.062 201.277 194.075Z" stroke="#413B3B"/>
<path d="M292.284 367.857L292.277 367.915L292.284 367.974L293.446 377.798C291.639 374.606 290.909 370.51 291.066 366.341C291.217 362.338 292.185 358.323 293.75 355.062L292.284 367.857Z" stroke="#413B3B"/>
<path d="M218.888 280.814C218.917 280.829 218.96 280.861 219.022 280.915C223.882 295.558 229.698 309.451 241.537 320.06C243.785 322.077 246.263 323.755 248.715 325.4C249.864 326.171 251.006 326.935 252.123 327.725C244.765 323.938 237.378 318.731 231.409 312.414C224.517 305.12 219.54 296.374 218.643 286.648L218.568 285.703C218.544 285.313 218.437 283.627 218.556 282.265C218.585 281.927 218.628 281.619 218.686 281.364C218.745 281.1 218.813 280.927 218.875 280.831C218.879 280.825 218.884 280.819 218.888 280.814Z" stroke="#413B3B"/>
<path d="M263.262 338.677C268.587 344.444 268.341 352.007 267.878 359.915C267.863 359.932 267.85 359.947 267.837 359.96C267.781 359.835 267.722 359.642 267.671 359.377C267.612 359.072 267.568 358.707 267.536 358.31C267.472 357.516 267.459 356.627 267.455 355.887C267.453 355.526 267.454 355.184 267.452 354.93C267.451 354.691 267.447 354.463 267.429 354.34C266.595 348.757 264.784 343.86 263.262 338.677Z" stroke="#413B3B"/>
</svg>
