<svg width="399" height="426" viewBox="0 0 399 426" fill="none" xmlns="http://www.w3.org/2000/svg">
<g clip-path="url(#clip0_183_806)">
<path d="M263.172 312.2C263.771 312.429 264.365 312.669 264.956 312.916C267.025 313.78 269.058 314.73 271.121 315.612C272.89 316.369 274.681 317.075 276.538 317.633C276.792 317.709 277.047 317.784 277.303 317.856C277.558 317.929 277.813 318 278.069 318.069C278.582 318.207 279.096 318.338 279.611 318.464C281.158 318.84 282.718 319.164 284.284 319.466C287.938 320.171 291.624 320.758 295.242 321.606C297.051 322.031 298.843 322.52 300.605 323.123C300.857 323.209 301.108 323.298 301.358 323.389C302.335 323.744 303.283 324.166 304.215 324.624C306.078 325.54 307.879 326.599 309.726 327.544C310.649 328.016 311.583 328.461 312.543 328.845L312.557 328.837L309.506 325.44L314.947 328.171L315.613 326.813H315.614C316.06 327.425 316.465 328.052 316.832 328.693C317.383 329.655 317.85 330.648 318.242 331.667C318.7 332.855 319.056 334.078 319.325 335.328C319.364 335.507 319.4 335.686 319.436 335.866C319.506 336.226 319.569 336.587 319.626 336.95C319.654 337.132 319.681 337.314 319.706 337.496C319.756 337.862 319.801 338.229 319.839 338.598C319.877 338.966 319.909 339.336 319.936 339.708C319.962 340.079 319.983 340.452 319.999 340.826C320.007 341.013 320.013 341.201 320.019 341.389C320.061 342.89 320.023 344.409 319.927 345.934C319.855 347.077 319.751 348.224 319.624 349.368C319.412 351.276 319.138 353.177 318.846 355.048C318.612 356.544 318.366 358.021 318.133 359.466C318.016 360.188 317.903 360.903 317.795 361.607C317.602 362.869 317.384 364.137 317.147 365.408C317.029 366.044 316.907 366.681 316.781 367.318C316.152 370.507 315.442 373.718 314.782 376.937C314.518 378.224 314.263 379.513 314.024 380.803C313.607 383.059 313.24 385.316 312.972 387.568C312.933 387.89 312.898 388.212 312.863 388.533C312.795 389.177 312.735 389.819 312.685 390.462C312.634 391.104 312.593 391.746 312.562 392.388C312.488 393.982 312.39 395.454 312.414 396.834C312.424 397.386 312.453 397.923 312.512 398.448C312.541 398.711 312.578 398.97 312.623 399.227C312.849 400.508 313.288 401.716 314.089 402.883C314.169 403 314.253 403.116 314.341 403.231C314.691 403.695 315.101 404.152 315.581 404.604C315.701 404.718 315.825 404.831 315.954 404.943L315.952 404.942L315.953 404.943L310.524 403.592C310.482 404.24 310.426 404.81 310.708 405.388C310.728 405.429 310.75 405.47 310.773 405.512C310.797 405.553 310.823 405.595 310.851 405.637C310.883 405.687 310.927 405.742 310.98 405.802C311.087 405.922 311.233 406.063 311.413 406.22C311.683 406.455 312.031 406.728 312.44 407.03C312.577 407.131 312.72 407.235 312.869 407.342C313.616 407.876 314.517 408.481 315.497 409.117C316.281 409.626 317.114 410.153 317.959 410.679C321.338 412.78 324.895 414.844 326.132 415.496C329.14 417.08 332.023 418.322 334.826 419.297C335.387 419.492 335.944 419.676 336.499 419.85C338.163 420.372 339.8 420.803 341.422 421.159C341.692 421.219 341.962 421.276 342.231 421.331C343.578 421.607 344.915 421.833 346.247 422.018C346.78 422.092 347.313 422.159 347.845 422.221C348.376 422.282 348.907 422.338 349.438 422.388C349.704 422.413 349.97 422.437 350.236 422.459C352.628 422.66 355.022 422.758 357.451 422.808C358.531 422.829 359.618 422.841 360.714 422.849C364.551 422.874 368.507 422.838 372.703 422.944C373.303 422.959 373.908 422.977 374.518 422.999C376.347 423.064 378.223 423.159 380.156 423.303L398.848 426H0.691406L5.8623 424.729C6.97195 424.574 8.08268 424.433 9.19434 424.304C9.7501 424.239 10.3061 424.178 10.8623 424.119C11.4184 424.061 11.9747 424.006 12.5312 423.953C28.1191 422.476 43.8695 423.155 59.4639 421.937C60.2274 421.871 62.3753 421.736 62.5088 420.683L62.5156 420.578L51.3389 421.285L45.5352 420.578L65.9121 419.885C65.6607 418.357 63.4261 418.758 62.8213 417.888C61.9176 416.59 63.2691 412.315 63.8535 410.698C66.6394 402.946 78.4555 397.965 84.6182 392.734C92.4183 386.116 96.1623 376.773 103.649 370.319C109.745 365.06 116.919 361.228 124.855 359.59C125.198 359.519 125.951 359.328 126.603 359.314C126.806 359.31 127 359.324 127.169 359.363C127.236 359.379 127.299 359.398 127.357 359.423C127.416 359.448 127.469 359.478 127.516 359.513C127.563 359.548 127.604 359.588 127.638 359.634C127.722 359.749 127.763 359.901 127.744 360.1C127.5 360.126 127.256 360.156 127.014 360.188C126.528 360.253 126.045 360.329 125.564 360.416C124.843 360.546 124.127 360.7 123.417 360.877C122.944 360.995 122.474 361.123 122.007 361.261C121.773 361.33 121.541 361.402 121.309 361.476C119.686 361.992 118.104 362.625 116.577 363.357C116.359 363.462 116.142 363.569 115.926 363.678C114.631 364.33 113.379 365.053 112.178 365.837C111.777 366.098 111.382 366.366 110.993 366.641C110.604 366.915 110.221 367.195 109.845 367.481C109.656 367.625 109.469 367.769 109.284 367.915C108.914 368.207 108.55 368.505 108.193 368.809C108.015 368.96 107.838 369.113 107.663 369.268C107.488 369.422 107.314 369.578 107.143 369.734C106.971 369.891 106.803 370.049 106.637 370.209C106.471 370.369 106.307 370.531 106.146 370.694C104.217 372.654 102.65 374.839 101.146 377.078C100.144 378.571 99.1693 380.088 98.1338 381.58C97.7454 382.14 97.3477 382.695 96.9375 383.245C96.6641 383.612 96.3852 383.976 96.0986 384.336C95.3822 385.236 94.6201 386.114 93.791 386.958C93.1584 387.601 92.5038 388.217 91.832 388.811C91.6082 389.008 91.3828 389.204 91.1553 389.396C89.7896 390.554 88.3599 391.626 86.9004 392.651C86.657 392.822 86.4129 392.992 86.168 393.161C83.2308 395.183 80.1969 397.043 77.3418 399.044C77.104 399.211 76.868 399.379 76.6328 399.548C74.9858 400.73 73.4068 401.968 71.9512 403.323C71.7432 403.517 71.5377 403.713 71.335 403.911C71.2989 403.946 71.2464 404.001 71.1807 404.071C70.6537 404.635 69.2657 406.236 68.5068 407.484C68.4595 407.562 68.4151 407.639 68.373 407.714C68.0567 408.276 67.8991 408.741 68.0537 408.965C68.064 408.98 68.0758 408.993 68.0889 409.006C68.1543 409.07 68.255 409.105 68.3975 409.108C68.5403 409.111 68.7246 409.082 68.9561 409.014C75.0372 403.436 83.0549 399.27 89.0205 393.746C100.51 383.12 105.919 371.406 121.846 364.74C128.804 361.826 137.241 361.662 142.684 356.044C142.217 356.186 141.918 356.099 141.718 355.898C141.188 355.368 141.366 354.032 141.046 353.989C141.032 353.987 141.016 353.988 141 353.991C140.353 354.399 139.663 354.847 138.947 355.305C138.231 355.763 137.489 356.231 136.739 356.679C135.802 357.238 134.851 357.766 133.921 358.202C133.363 358.464 132.812 358.693 132.276 358.877C131.991 358.976 131.767 359.066 131.584 359.123C131.402 359.18 131.26 359.205 131.138 359.172C131.046 359.147 130.965 359.089 130.886 358.987C130.755 358.819 130.629 358.531 130.468 358.075C139.634 355.738 145.932 346.898 153.243 341.096C156.247 338.704 159.732 336.692 162.756 334.293C162.886 334.287 163.002 334.285 163.104 334.286C163.309 334.288 163.46 334.302 163.567 334.328C163.595 334.335 163.619 334.342 163.641 334.35C163.683 334.365 163.716 334.383 163.739 334.403C163.751 334.414 163.761 334.424 163.769 334.436C163.927 334.682 163.038 335.18 162.628 335.53C161.685 336.341 160.352 337.272 159.178 338.183C158.591 338.638 158.043 339.088 157.604 339.517C157.517 339.602 157.433 339.687 157.354 339.771C157.263 339.868 157.18 339.976 157.103 340.091C157.025 340.206 156.955 340.328 156.888 340.456C156.654 340.902 156.468 341.411 156.232 341.88C156.098 342.148 155.946 342.403 155.761 342.626C155.715 342.682 155.666 342.735 155.615 342.786C155.211 343.195 154.799 343.61 154.381 344.028C153.962 344.446 153.536 344.866 153.104 345.286C152.673 345.706 152.235 346.126 151.791 346.54C151.569 346.747 151.345 346.954 151.12 347.158C149.32 348.795 147.428 350.331 145.474 351.532C145.229 351.683 144.984 351.827 144.737 351.967L145.756 353.299L172.269 331.576L173.273 331.902C173.139 332.063 173.017 332.227 172.906 332.394C172.575 332.894 172.349 333.42 172.196 333.965C171.856 335.175 171.876 336.475 171.898 337.783C171.903 338.045 171.907 338.307 171.909 338.569C171.918 339.878 171.859 341.178 171.373 342.389C171.203 342.812 170.981 343.225 170.691 343.623C170.65 343.68 170.607 343.737 170.562 343.793C172.632 344.282 174.686 344.818 176.745 345.322C177.088 345.406 177.432 345.49 177.775 345.572C178.463 345.736 179.151 345.896 179.841 346.047C180.186 346.122 180.531 346.196 180.877 346.268C181.569 346.41 182.263 346.544 182.96 346.665C183.657 346.786 184.357 346.895 185.061 346.989C185.764 347.083 186.471 347.163 187.183 347.224C187.297 347.233 187.413 347.242 187.528 347.249C189.958 347.399 192.554 346.993 195.018 347.149C195.252 347.164 195.485 347.185 195.717 347.211C195.833 347.224 195.949 347.239 196.064 347.255C196.41 347.303 196.752 347.366 197.09 347.447C197.315 347.501 197.538 347.564 197.759 347.635C197.98 347.706 198.198 347.787 198.414 347.877C198.432 347.854 198.447 347.829 198.459 347.802C198.488 347.738 198.502 347.662 198.506 347.576C198.551 346.52 196.874 343.946 198.414 343.807L206.269 356.044C206.256 356.062 206.239 356.081 206.22 356.101C204.993 357.356 191.004 362.722 188.596 363.531C184.526 364.896 179.827 365.894 175.305 367.05C173.797 367.435 172.309 367.838 170.87 368.277C170.39 368.424 169.916 368.575 169.448 368.73C168.981 368.886 168.52 369.046 168.066 369.212C167.16 369.543 166.283 369.897 165.446 370.278C165.322 370.335 165.199 370.393 165.075 370.453C164.828 370.574 164.582 370.703 164.336 370.839C163.721 371.177 163.109 371.557 162.495 371.957C162.249 372.117 162.003 372.281 161.757 372.446C159.91 373.687 158.035 375.042 156.013 375.969C155.878 376.03 155.743 376.091 155.606 376.148C154.789 376.495 153.947 376.767 153.073 376.93C152.928 376.957 152.782 376.982 152.636 377.005C148.689 377.615 144.556 376.618 140.572 377.229C140.277 377.274 139.983 377.327 139.689 377.392C139.396 377.456 139.104 377.53 138.812 377.616C138.459 377.72 138.1 377.836 137.736 377.961C137.373 378.086 137.006 378.222 136.634 378.367C135.89 378.658 135.129 378.986 134.354 379.349C134.161 379.439 133.966 379.532 133.771 379.627C131.229 380.857 128.54 382.426 125.783 384.159C125.359 384.426 124.933 384.697 124.506 384.971C119.381 388.256 114.064 392.008 109.051 395.129C108.215 395.649 107.388 396.152 106.571 396.632C104.122 398.071 101.768 399.307 99.5732 400.201L97.9082 402.471L100.559 405.283L95.8154 406.31C96.0358 406.562 96.2663 406.813 96.5059 407.064C96.9851 407.566 97.5011 408.065 98.0459 408.558C98.1823 408.681 98.3201 408.804 98.46 408.927C101.952 411.986 106.508 414.778 110.309 416.61C110.435 416.671 110.563 416.73 110.692 416.788C111.081 416.961 111.483 417.122 111.899 417.269C112.454 417.465 113.033 417.638 113.632 417.791C113.931 417.868 114.236 417.939 114.545 418.006C115.781 418.273 117.093 418.463 118.456 418.592C118.797 418.624 119.141 418.652 119.487 418.677C120.527 418.751 121.593 418.794 122.673 418.812C129.514 418.921 136.952 418.021 142.365 417.86C163.085 417.247 183.172 416.888 203.303 416.9C211.592 416.906 219.889 416.974 228.24 417.113C229.433 417.133 230.628 417.154 231.823 417.177C235.41 417.245 239.007 417.327 242.62 417.423C243.824 417.455 245.03 417.488 246.238 417.523C249.861 417.628 253.501 417.747 257.16 417.881C266.992 418.241 276.884 418.315 286.715 418.505C286.24 408.001 292.865 399.352 291.194 388.604C290.691 385.368 288.761 382.338 288.15 379.417C286.247 370.305 287.654 359.196 291.167 350.601C293.352 345.249 297.265 340.816 299.435 335.479C299.505 335.306 299.573 335.133 299.64 334.959C299.541 335.006 299.444 335.055 299.349 335.104C299.157 335.204 298.97 335.31 298.787 335.421C298.149 335.81 297.566 336.267 297.024 336.775C296.87 336.921 296.719 337.07 296.57 337.223C296.274 337.529 295.99 337.849 295.715 338.182C295.165 338.846 294.654 339.556 294.16 340.284C293.666 341.013 293.189 341.76 292.708 342.498C292.347 343.052 291.984 343.601 291.609 344.134C291.36 344.489 291.105 344.837 290.843 345.175C290.58 345.512 290.311 345.839 290.03 346.152C289.75 346.465 289.46 346.764 289.156 347.046C288.852 347.328 288.536 347.592 288.203 347.836C287.871 348.08 287.523 348.302 287.157 348.501C286.883 348.65 286.599 348.786 286.303 348.906C286.007 349.027 285.699 349.132 285.379 349.222C284.91 340.437 281.532 331.773 275.879 325.087C271.789 320.256 266.217 316.825 262.27 311.865H262.271L263.172 312.2ZM214.533 55.5049C214.781 55.4999 215.031 55.5129 215.283 55.5459C215.367 55.5569 215.452 55.5694 215.536 55.585C215.705 55.6161 215.876 55.6567 216.047 55.707C216.132 55.7322 216.219 55.7598 216.305 55.79L216.306 55.792C216.31 55.7935 216.314 55.7954 216.318 55.7969L222.095 67.002C224.473 72.2608 226.565 76.8268 222.72 82.0586C222.055 82.138 221.457 82.1771 220.919 82.1797C220.516 82.1817 220.146 82.1627 219.809 82.125C219.358 82.0747 218.965 81.9907 218.622 81.876C218.278 81.7607 217.985 81.6146 217.738 81.4414C214.709 79.3413 218.562 73.2006 219.375 69.5498C219.479 69.0881 219.431 68.8118 219.274 68.6768C219.26 68.6647 219.245 68.6544 219.229 68.6445C219.141 68.5935 219.028 68.5744 218.895 68.583C217.805 68.6536 215.391 70.54 214.41 71.3379C214.214 71.4976 214.075 71.6138 214.016 71.6631C210.49 74.5916 204.374 81.5485 205.318 86.4473C205.91 89.5247 207.862 91.6086 210.36 92.9658C211.359 93.5072 212.444 93.9336 213.564 94.2598C213.939 94.3687 214.317 94.4663 214.697 94.5537C215.458 94.7286 216.226 94.8615 216.987 94.958C217.178 94.9821 217.367 95.0038 217.557 95.0234C218.313 95.1019 219.058 95.1455 219.776 95.1582C219.903 95.1603 220.045 95.1607 220.197 95.1602C222.489 95.1518 227.326 94.7853 225.116 92.3457C224.6 91.7749 210.726 85.4966 216.501 83.6484C216.805 83.5513 217.161 83.5019 217.562 83.4941C217.962 83.4864 218.405 83.52 218.882 83.5869C219.073 83.6137 219.269 83.6455 219.47 83.6826C220.072 83.7939 220.717 83.9496 221.388 84.1367C221.611 84.1991 221.838 84.265 222.066 84.334C222.523 84.4718 222.989 84.6219 223.459 84.7803C223.694 84.8596 223.93 84.9404 224.167 85.0234C225.821 85.6042 227.493 86.2658 228.966 86.8457C230.439 87.4254 231.713 87.9238 232.575 88.1807C232.945 88.2909 233.239 88.3567 233.439 88.3652C233.573 88.3708 233.665 88.3513 233.711 88.3027C235.485 75.4134 224.362 66.6686 220.129 55.6953C220.413 55.6877 220.693 55.687 220.97 55.6934C221.246 55.6998 221.519 55.7135 221.789 55.7334C222.059 55.7533 222.325 55.7798 222.588 55.8125C222.719 55.8288 222.85 55.8468 222.979 55.8662C224.019 56.0219 225.009 56.2755 225.959 56.6084C226.315 56.7332 226.665 56.8687 227.011 57.0146C227.932 57.4041 228.816 57.8657 229.675 58.3799C229.889 58.5083 230.102 58.6397 230.313 58.7744C230.525 58.9092 230.735 59.047 230.943 59.1875C230.983 59.2144 231.023 59.2424 231.062 59.2695C231.23 59.3834 231.397 59.4981 231.562 59.6152C231.774 59.7647 231.985 59.9161 232.194 60.0703C235.247 62.3195 238.069 65.041 241.184 67.2334C241.152 67.0778 241.117 66.9242 241.078 66.7725C239.861 62.0108 235.15 59.1086 231.681 56.0283C231.626 55.7771 231.799 55.6628 232.024 55.6279C232.081 55.6191 232.141 55.6159 232.202 55.6162C232.323 55.6168 232.446 55.6328 232.549 55.6582C232.6 55.6708 232.647 55.6861 232.686 55.7021C232.69 55.704 232.695 55.7061 232.699 55.708L232.701 55.709C235.853 57.007 242.104 63.4068 243.626 66.5322C246.269 71.9543 246.514 80.9371 244.639 86.6582C243.755 89.3555 240.514 93.2145 240.508 95.4365C240.501 99.0783 241.466 107.816 241.968 111.683C243.076 120.135 247.139 128.146 245.087 136.707C241.547 151.485 245.733 154.808 248.369 168.479C250.04 177.156 251.135 191.438 250.062 200.115C249.9 201.418 249.5 202.787 248.923 204.193C248.829 204.422 248.731 204.652 248.628 204.882C246.495 209.651 242.447 214.78 238.739 219.128C236.946 221.231 235.233 223.154 233.854 224.763C233.819 224.803 233.784 224.842 233.75 224.882L237.115 224.215L237.116 224.224L237.131 224.222L237.489 226.93C243.458 226.217 241.031 221.509 242.612 218.555C243.278 217.312 244.937 216.286 245.841 214.927C247.975 211.71 249.719 208.278 251.956 205.135C252.105 204.925 252.257 204.717 252.41 204.511H252.411L252.416 204.528C252.419 204.525 252.422 204.521 252.425 204.518L255.483 214.685L255.487 214.696C255.616 214.711 255.724 214.705 255.814 214.685C256.582 214.508 256.049 213.169 255.964 212.508C255.686 210.409 254.767 208.383 254.781 206.215L256.134 205.876C256.135 205.879 256.136 205.882 256.138 205.885L256.149 205.883C257.521 209.043 259.668 211.741 261.041 214.928C264.68 223.376 266.231 236.069 264.876 247.382C264.843 247.658 264.808 247.933 264.771 248.208C264.735 248.482 264.696 248.755 264.656 249.027C264.536 249.844 264.401 250.652 264.249 251.449C264.097 252.246 263.93 253.033 263.745 253.806C263.622 254.321 263.492 254.83 263.354 255.333C262.46 258.601 261.253 261.592 259.709 264.127C257.834 267.204 246.042 279.873 245.978 280.957C245.952 281.413 246.16 281.606 246.447 281.669C246.492 281.678 246.539 281.685 246.587 281.688L246.746 281.691C247.18 281.677 247.663 281.507 247.83 281.5C254.224 281.296 256.528 276.302 260.211 271.783V271.809C260.216 271.803 260.221 271.797 260.226 271.791L260.905 311.2L260.889 311.189L260.89 311.192L252.322 305.839L250.728 307.449L262.277 316.622L262.253 316.606L262.263 316.614L244.59 305.417C242.239 303.332 240.012 301.121 237.923 298.799C220.915 279.893 213.079 253.677 222.337 228.788C223.707 225.107 225.775 221.735 227.311 218.143L227.588 217.471C227.526 217.545 227.465 217.621 227.403 217.696C221.817 224.462 217.699 234.967 215.218 243.402C214.906 244.462 214.621 245.523 214.36 246.584C210.201 263.515 212.34 280.686 216.074 297.604C216.069 297.6 216.064 297.596 216.059 297.593C216.059 297.594 216.059 297.595 216.06 297.596L216.058 297.595L216.059 297.596C213.851 296.238 212.846 292.317 211.976 289.796C208.708 280.345 207.028 269.215 206.526 259.234C206.329 255.354 206.377 251.339 207.084 247.493C207.192 246.905 207.046 246.602 206.817 246.476C206.751 246.441 206.679 246.422 206.604 246.413C206.337 246.383 206.041 246.498 205.896 246.644C205.527 247.013 203.647 253.14 202.483 257.142C202.042 258.66 201.702 259.873 201.588 260.35C201.468 260.849 201.352 261.346 201.239 261.841C194.118 293.007 200.363 314.092 226.327 333.214C229.194 335.324 232.251 337.127 235.344 338.889C236.374 339.476 237.409 340.059 238.441 340.646C242.573 342.997 246.674 345.431 250.373 348.576C260.714 357.364 264.807 366.834 260.893 378.908C260.717 379.451 260.526 379.999 260.317 380.553C259.989 381.425 259.62 382.31 259.21 383.21C259.113 383.423 259.012 383.637 258.91 383.852C259.406 383.431 259.902 382.999 260.395 382.553C267.944 375.716 274.889 365.932 275.845 355.67C277.109 342.108 270.347 328.233 262.948 317.3C263.099 317.268 263.239 317.253 263.368 317.255C263.501 317.256 263.623 317.275 263.736 317.306C264.413 317.479 264.798 318.125 265.355 318.647C270.526 323.438 278.387 333.547 280.439 340.253C284.682 354.138 281.74 366.07 274.962 376.117C274.621 376.622 274.27 377.121 273.911 377.616C269.815 383.26 264.515 388.288 258.642 392.713C257.875 393.291 257.099 393.859 256.313 394.416C249.247 399.433 241.501 403.619 234.094 406.997C234.089 406.994 234.085 406.991 234.08 406.988L234.079 406.989L234.078 406.988V406.989C232.945 406.302 234.296 405.48 234.744 404.938C237.065 402.121 247.07 393.215 244.141 389.095C244.094 389.029 244.044 388.965 243.991 388.902L239.876 386.946V386.945L239.86 386.938C241.858 382.754 243.21 375.945 243.292 371.318C243.332 369.238 242.075 360.638 241.376 358.911C240.688 357.217 239.377 355.958 237.705 355.04C237.652 355.011 237.597 354.983 237.543 354.954C237.496 354.929 237.45 354.904 237.402 354.88C237.188 354.77 236.968 354.667 236.743 354.567C235.507 354.022 234.123 353.63 232.677 353.36C231.625 353.164 230.541 353.034 229.456 352.956C228.913 352.917 228.371 352.892 227.832 352.878C225.947 352.83 224.112 352.928 222.502 353.109C222.042 353.161 221.6 353.219 221.181 353.283C220.762 353.347 220.365 353.416 219.995 353.489C219.362 353.613 218.748 353.78 218.146 353.968C217.634 354.127 217.13 354.302 216.631 354.48C214.82 355.128 213.06 355.817 211.128 355.948H211.127C211.124 355.946 211.121 355.943 211.118 355.94C211.117 355.941 211.115 355.941 211.113 355.941C210.929 355.77 210.75 355.597 210.575 355.42C206.107 350.904 204.448 344.654 199.176 341.788C199.094 341.744 199.011 341.699 198.927 341.656C198.821 341.602 198.714 341.55 198.605 341.499C198.064 341.243 197.485 341.022 196.864 340.839C196.74 340.802 196.614 340.767 196.486 340.733C196.103 340.633 195.705 340.548 195.289 340.478C194.098 340.276 192.026 340.073 189.664 339.796C188.247 339.63 186.727 339.437 185.229 339.203C184.73 339.125 184.233 339.042 183.744 338.954C183.011 338.822 182.294 338.679 181.609 338.521C180.697 338.312 179.842 338.079 179.083 337.816C178.704 337.685 178.348 337.547 178.021 337.4C177.777 337.291 177.548 337.176 177.338 337.058C177.333 337.055 177.327 337.053 177.322 337.05C176.83 336.773 176.437 336.472 176.168 336.142C175.067 334.789 175.781 327.92 175.991 325.793C176.623 319.454 181.672 302.631 179.301 298.018C178.255 295.986 174.945 292.867 173.403 290.326C171.208 286.718 167.43 278.789 167.376 274.685C167.328 271.207 176.706 267.652 178.676 264.588C178.946 263.324 172.085 259.886 171.895 256.421C171.759 253.961 173.934 253.819 175.972 253.418C175.972 253.421 175.971 253.424 175.971 253.427C175.976 253.426 175.981 253.426 175.986 253.425C175.88 255.791 177.931 257.044 179.447 258.559C179.662 258.773 179.865 258.994 180.051 259.223C180.152 259.267 180.254 259.292 180.357 259.3C181.103 259.354 181.897 258.548 182.427 258.167C190.696 252.208 202.164 238.606 208.062 230.126C208.751 229.123 213.633 222.162 213.359 221.51C213.356 221.501 213.35 221.494 213.345 221.487C213.162 221.444 213.001 221.425 212.859 221.426C212.256 221.428 211.986 221.789 211.743 222.208C211.668 222.338 211.592 222.472 211.513 222.604C211.418 222.763 211.317 222.92 211.188 223.054C210.991 223.259 210.794 223.465 210.599 223.673C210.403 223.881 210.207 224.09 210.013 224.3C209.625 224.72 209.24 225.145 208.857 225.573C208.475 226.002 208.095 226.434 207.717 226.869C207.338 227.305 206.962 227.744 206.587 228.186C205.182 229.838 203.792 231.525 202.385 233.209C199.283 236.922 196.093 240.622 192.437 243.906C191.776 244.499 191.056 245.144 190.291 245.809C189.704 246.318 189.091 246.838 188.457 247.353C188.165 247.59 187.868 247.827 187.567 248.061C187.267 248.294 186.963 248.525 186.656 248.752C185.734 249.432 184.784 250.076 183.821 250.64C183.661 250.734 183.499 250.825 183.338 250.915C181.567 251.898 179.764 252.592 178.031 252.739V252.738C178.032 252.735 178.033 252.732 178.034 252.729C178.028 252.729 178.022 252.731 178.017 252.731C178.323 251.665 180.163 251.753 181.373 251.006C187.895 246.997 197.592 236.764 202.457 230.643C205.727 226.529 211.42 220.283 209.361 214.949C209.33 214.869 209.297 214.789 209.263 214.709C208.993 214.9 208.732 215.106 208.478 215.32C206.93 216.622 205.591 218.233 203.565 218.663C203.312 218.717 203.048 218.752 202.771 218.766C202.68 218.77 202.586 218.773 202.491 218.772L202.493 218.765C202.488 218.765 202.483 218.766 202.478 218.766V218.765L202.477 218.766C203.935 215.064 202.881 212.534 200.57 209.808L200.104 209.274C199.241 211.478 199.215 212.815 198.73 213.686C198.67 213.794 198.602 213.896 198.524 213.991C197.982 214.657 196.963 215.004 194.597 215.301C192.82 215.524 191.07 215.622 189.358 215.601C187.647 215.579 185.974 215.437 184.353 215.181C183.542 215.052 182.744 214.895 181.96 214.71C180.392 214.339 178.881 213.856 177.439 213.266C176.719 212.97 176.015 212.647 175.331 212.299L175.317 212.292C166.193 207.645 160.433 198.327 161.716 185.825C162.321 179.934 168.11 174.635 168.361 172.128C168.572 170.021 164.814 168.43 165.786 165.781C166.116 165.436 167.015 165.786 168.097 166.431C168.361 166.588 168.635 166.765 168.915 166.952C168.952 166.977 168.991 167.001 169.028 167.026C170.913 168.295 173.001 170.057 173.594 170.558C177.685 174.017 185.94 182.006 188.039 186.688C189.282 189.458 189.418 195.174 191.741 196.661C191.788 196.691 191.837 196.719 191.886 196.746C191.935 196.772 191.984 196.797 192.035 196.819C192.196 196.89 192.366 196.943 192.546 196.976C192.726 197.008 192.917 197.02 193.118 197.01C193.724 196.979 194.43 196.749 195.261 196.269C197.13 195.189 197.49 192.429 198.189 192.26C198.4 192.209 198.633 192.191 198.88 192.189C199.25 192.187 199.654 192.22 200.063 192.228C200.473 192.235 200.891 192.219 201.288 192.117C204.975 191.17 208.35 189.973 212.008 190.076C212.485 190.09 212.967 190.125 213.455 190.187C213.618 190.207 213.781 190.23 213.945 190.256C214.765 190.387 215.604 190.591 216.467 190.886C218.138 190.845 223.274 181.606 224.056 179.547C224.476 178.429 226.687 172.704 224.876 171.992C224.787 171.959 224.688 171.939 224.58 171.931C224.544 171.928 224.5 171.933 224.45 171.944C222.891 172.309 214.995 179.456 212.46 180.852C210.11 182.146 205.788 183.491 202.563 184.8C201.977 185.038 201.427 185.275 200.932 185.51C200.189 185.862 199.57 186.21 199.136 186.553C198.094 187.379 197.801 188.646 197.734 189.916C197.704 190.493 197.721 191.071 197.735 191.608C197.631 191.592 197.53 191.572 197.433 191.548C197.239 191.5 197.059 191.437 196.894 191.36C196.89 191.359 196.887 191.356 196.884 191.354C196.882 191.354 196.88 191.354 196.879 191.354C194.49 190.255 194.969 186.376 195.672 184.165L193.672 186.172C193.671 186.165 193.67 186.159 193.67 186.152L193.658 186.165C193.393 182.292 192.482 178.168 192.958 174.261C194.134 164.64 206.532 167.037 210.983 159.673C210.984 159.682 210.985 159.69 210.985 159.699C210.989 159.693 210.994 159.686 210.998 159.68C211.004 159.756 211.008 159.832 211.01 159.906C211.016 160.167 210.997 160.412 210.962 160.646C210.875 161.231 210.678 161.748 210.446 162.261C210.147 162.943 209.789 163.612 209.537 164.386C209.376 164.899 209.259 165.467 209.238 166.128C209.216 166.845 209.284 167.488 209.4 168.091C209.408 168.128 209.416 168.165 209.424 168.202C209.594 169.002 209.844 169.75 210.075 170.511C210.345 171.376 210.591 172.252 210.652 173.263L210.637 173.244C210.637 173.248 210.637 173.251 210.638 173.255L210.636 173.253L210.637 173.255L207.621 169.831L206.562 165.12C197.184 169.14 192.182 173.97 196.405 184.809C196.555 184.783 196.719 184.753 196.896 184.713C202.507 183.452 221.531 175.167 222.208 170.843C222.765 167.31 220.088 160.909 220.802 155.901C220.89 155.269 222.682 151.035 222.881 150.84C223.154 150.568 223.365 150.439 223.527 150.421C223.564 150.417 223.597 150.419 223.629 150.426C223.644 150.429 223.659 150.434 223.674 150.439C223.677 150.441 223.679 150.442 223.682 150.443C223.685 150.445 223.688 150.445 223.691 150.446C224.448 150.749 223.69 154.378 223.834 154.924C224.723 158.246 228.066 160.563 231.435 161.386C231.82 161.479 232.205 161.553 232.588 161.606C232.717 161.624 232.845 161.64 232.973 161.653C233.228 161.68 233.482 161.697 233.732 161.705L231.021 159.326L231.743 159.089L233.046 158.66C228.813 150.622 222.215 147.999 221.475 138.29C220.686 127.983 222.847 116.928 224.763 106.838L223.876 105.315C220.658 105.012 216.811 105.737 213.696 105.316L213.683 105.31H213.681L213.68 105.309C213.06 105.225 212.447 105.116 211.841 104.98C210.424 104.664 209.046 104.211 207.718 103.638C206.2 102.982 204.748 102.169 203.377 101.224C203.126 101.05 202.878 100.871 202.633 100.689C195.164 95.1631 190.322 85.6727 190.98 76.5137C191.361 71.2478 195.853 59.4931 200.765 57.0674C201.003 56.9506 201.173 56.9013 201.295 56.9043C201.346 56.9055 201.388 56.9171 201.424 56.9355C201.873 57.1317 201.272 58.5107 202.058 59.1201C202.328 59.3299 202.598 59.4928 202.869 59.6152C202.934 59.6443 202.999 59.6709 203.064 59.6953C203.269 59.7721 203.474 59.8263 203.68 59.8604C203.817 59.883 203.954 59.8969 204.091 59.9023C207.317 60.0297 210.653 55.5824 214.533 55.5049ZM263.275 337.3C263.38 337.397 263.484 337.494 263.585 337.592C263.686 337.69 263.786 337.788 263.884 337.887C264.08 338.084 264.269 338.284 264.451 338.486C264.542 338.587 264.632 338.689 264.72 338.791C264.896 338.995 265.065 339.201 265.229 339.409C265.473 339.721 265.704 340.038 265.922 340.359C266.067 340.574 266.206 340.79 266.34 341.008C266.673 341.552 266.971 342.108 267.237 342.674C267.876 344.033 268.33 345.452 268.646 346.916C268.856 347.892 269.003 348.888 269.104 349.899C269.155 350.405 269.194 350.915 269.223 351.429C269.294 352.711 269.301 354.014 269.272 355.33C269.238 356.909 269.151 358.506 269.058 360.106H269.064C268.873 360.356 268.708 360.491 268.564 360.532C268.457 360.563 268.362 360.54 268.278 360.474C267.454 359.823 267.701 354.937 267.624 354.42C266.7 348.23 264.58 342.951 262.956 337.012L263.275 337.3ZM218.757 285.732C218.713 285.042 218.386 279.937 219.676 280.313C219.809 280.352 219.959 280.449 220.129 280.615L220.136 280.609C220.288 281.068 220.442 281.526 220.596 281.983C221.828 285.641 223.127 289.24 224.572 292.744C224.753 293.182 224.936 293.619 225.121 294.054C225.492 294.924 225.873 295.787 226.265 296.644C227.244 298.785 228.291 300.884 229.428 302.931C231.132 306 233.035 308.952 235.201 311.755C235.635 312.316 236.079 312.87 236.534 313.419C236.837 313.784 237.146 314.147 237.459 314.507C237.616 314.687 237.773 314.866 237.933 315.045C238.729 315.938 239.557 316.813 240.42 317.669C240.938 318.182 241.468 318.689 242.011 319.188C242.192 319.355 242.375 319.521 242.559 319.686C242.697 319.81 242.837 319.933 242.978 320.055C243.679 320.664 244.402 321.243 245.14 321.802C247.205 323.366 249.382 324.767 251.52 326.22C251.825 326.427 252.129 326.636 252.433 326.847C253.039 327.267 253.641 327.694 254.234 328.133C254.531 328.352 254.825 328.575 255.117 328.801C255.701 329.252 256.274 329.718 256.834 330.203C256.096 329.876 255.355 329.533 254.612 329.177C237.751 321.081 220.026 305.387 218.757 285.732ZM193.638 165.108C192.4 167.365 191.636 169.784 191.265 172.267C191.228 172.515 191.194 172.763 191.165 173.013C191.106 173.512 191.062 174.013 191.033 174.516C191.004 175.018 190.991 175.522 190.991 176.026C190.991 176.531 191.005 177.037 191.032 177.542C191.046 177.794 191.063 178.047 191.083 178.299C191.124 178.804 191.177 179.308 191.243 179.812C191.375 180.817 191.557 181.818 191.782 182.808C191.895 183.302 192.018 183.794 192.152 184.282C192.219 184.526 192.29 184.769 192.362 185.012C192.507 185.496 192.661 185.977 192.825 186.452C193.071 187.165 193.338 187.868 193.624 188.557L192.285 188.883L192.284 188.882V188.883C189.696 179.635 181.875 172.95 174.612 167.146L193.638 165.108ZM193.604 24.4268C193.429 24.4512 193.256 24.4768 193.082 24.5039C191.867 24.6934 190.665 24.9467 189.473 25.2441C189.132 25.3292 188.792 25.4179 188.452 25.5098C187.773 25.6934 187.097 25.8891 186.423 26.0947C186.086 26.1976 185.749 26.3032 185.413 26.4102C184.74 26.6242 184.069 26.8458 183.399 27.0713C182.73 27.2966 182.061 27.5253 181.393 27.7549C180.055 28.2142 178.719 28.6746 177.378 29.1084C177.043 29.2168 176.708 29.3241 176.372 29.4287C175.7 29.638 175.027 29.8386 174.352 30.0273C172.495 30.5463 170.622 30.9742 168.719 31.2373C167.853 31.3569 166.982 31.4427 166.103 31.4873C165.575 31.5141 165.044 31.5257 164.511 31.5215C163.954 31.517 163.394 31.4947 162.831 31.4531C162.135 31.4018 161.432 31.3208 160.724 31.207C158.908 30.9139 157.308 29.274 155.592 29.3125C155.219 29.3209 154.84 29.4083 154.452 29.6064C154.142 29.7651 153.826 29.9945 153.502 30.3105L182.76 107.348C182.701 107.32 182.643 107.29 182.586 107.26C180.829 106.313 180.082 104.085 179.253 102.367C170.63 84.5721 165.195 63.2917 157.279 44.8447C155.927 41.7057 154.636 37.6286 152.19 35.3252V108.026L152.189 108.025V108.026L150.831 107.021C150.369 84.939 149.282 62.5098 150.125 40.3936C150.178 39.0769 151.544 36.0451 150.294 35.3877L150.165 35.332C149.613 36.6232 149.07 37.9184 148.535 39.2168C145.323 47.0082 142.395 54.9217 139.566 62.877C139.095 64.2028 138.626 65.5297 138.159 66.8574C136.292 72.1689 134.455 77.493 132.594 82.8057C131.663 85.4618 130.726 88.1152 129.776 90.7627C128.827 93.4102 127.863 96.0517 126.881 98.6846C126.837 98.8014 126.791 98.9217 126.74 99.0449C126.69 99.1679 126.636 99.2939 126.58 99.4229C125.848 101.101 124.638 103.262 123.76 105.405C123.557 105.9 123.371 106.393 123.214 106.88C123.109 107.204 123.017 107.526 122.939 107.843C122.901 108.001 122.866 108.158 122.835 108.313C122.773 108.624 122.728 108.929 122.703 109.227C122.672 109.599 122.67 109.959 122.706 110.304C122.72 110.441 122.74 110.577 122.767 110.709C122.806 110.908 122.859 111.101 122.928 111.287C123.088 111.721 123.33 112.117 123.671 112.467C123.72 112.517 123.771 112.566 123.823 112.614C123.859 112.646 123.957 112.693 124.103 112.752C124.687 112.988 126.036 113.408 127.133 113.725C127.407 113.804 127.666 113.877 127.893 113.938C128.12 114 128.315 114.052 128.463 114.087C128.611 114.122 128.712 114.142 128.749 114.142H166.46L166.466 114.163C166.444 114.587 166.404 115.007 166.348 115.423C166.035 117.713 165.21 119.89 164.1 121.964C163.797 122.529 163.473 123.087 163.132 123.637C161.769 125.838 160.139 127.917 158.536 129.888L156.953 131.822C164.04 130.775 170.508 126.42 175.278 121.277C176.888 119.537 182.629 110.821 183.445 110.419C183.877 110.208 184.842 109.944 185.638 109.946C185.787 109.947 185.931 109.956 186.063 109.978C186.196 109.999 186.318 110.031 186.425 110.077C186.496 110.108 186.561 110.144 186.617 110.188C186.702 110.252 186.768 110.333 186.812 110.43C186.84 110.494 186.859 110.566 186.866 110.646C186.87 110.686 186.87 110.728 186.868 110.772C186.863 110.861 186.846 110.958 186.815 111.064C186.778 111.193 186.735 111.328 186.686 111.467C186.586 111.745 186.464 112.043 186.324 112.354C186.254 112.51 186.18 112.67 186.102 112.832C185.945 113.156 185.773 113.491 185.592 113.831C184.684 115.531 183.528 117.358 182.78 118.586C182.513 119.025 182.241 119.455 181.966 119.877C181.277 120.931 180.563 121.932 179.827 122.881C179.091 123.83 178.332 124.726 177.554 125.571C177.087 126.078 176.612 126.566 176.131 127.036C175.97 127.193 175.809 127.347 175.647 127.5C174.676 128.416 173.678 129.259 172.658 130.029C172.318 130.286 171.976 130.534 171.631 130.775C170.941 131.257 170.242 131.708 169.535 132.127C169.358 132.232 169.181 132.335 169.003 132.436C167.225 133.444 165.398 134.258 163.54 134.884C162.239 135.322 160.924 135.668 159.6 135.925C157.708 136.291 155.799 136.474 153.891 136.48C140.15 136.527 126.456 127.42 119.726 111.662C130.957 85.9655 138.268 58.59 149.364 32.7979C149.894 29.3598 142.345 26.2885 147.135 21.1045C147.923 20.2483 149.291 19.9456 150.73 19.9893C151.142 20.0017 151.559 20.0423 151.971 20.1064C152.588 20.2026 153.191 20.3512 153.741 20.5361C154.108 20.6594 154.451 20.7987 154.758 20.9492C155.065 21.0997 155.337 21.2616 155.561 21.4297C155.618 21.4722 155.674 21.522 155.729 21.5771C156.566 22.4027 157.299 24.5664 158.618 25.8467C159.016 26.232 159.419 26.5601 159.825 26.8379C160.096 27.0231 160.369 27.1861 160.644 27.3281C161.33 27.6831 162.028 27.9091 162.737 28.0342C162.879 28.0592 163.021 28.0795 163.164 28.0967C163.592 28.1483 164.024 28.1666 164.46 28.1562C167.076 28.0941 169.835 27.0279 172.724 26.3018C179.797 24.5216 186.653 21.7628 193.631 19.6973L193.604 24.4268ZM254.555 108.688C254.642 108.678 254.697 108.712 254.73 108.773C254.742 108.794 254.752 108.818 254.759 108.845C254.837 109.134 254.693 109.733 254.932 109.882V109.889C254.98 109.919 255.029 109.946 255.078 109.97C255.72 110.283 256.48 110.108 257.186 110.084C257.294 110.08 257.401 110.08 257.507 110.086L256.155 111.771C256.276 112.027 256.534 112.259 256.891 112.467C256.962 112.508 257.037 112.549 257.116 112.589C257.511 112.787 257.996 112.963 258.535 113.118C258.859 113.211 259.202 113.296 259.556 113.375C261.206 113.742 263.094 113.958 264.386 114.073C264.755 114.106 265.075 114.131 265.327 114.148C266.012 114.198 266.703 114.241 267.398 114.277C277.83 114.826 289.358 114.005 299.632 113.477C299.641 113.569 299.65 113.662 299.656 113.754C299.675 114.03 299.68 114.303 299.672 114.574C299.669 114.664 299.665 114.754 299.66 114.844C299.649 115.024 299.633 115.202 299.612 115.38C299.581 115.646 299.538 115.909 299.485 116.171C299.415 116.52 299.328 116.865 299.226 117.207C299.175 117.378 299.12 117.548 299.062 117.717C298.889 118.224 298.688 118.724 298.468 119.218C298.101 120.04 297.685 120.845 297.269 121.637L289.448 132.494C300.923 129.063 310.464 121.929 315.254 110.759C315.22 110.726 315.12 110.711 314.965 110.712C314.913 110.712 314.855 110.714 314.792 110.718C314.031 110.758 312.453 111.021 310.786 111.311C309.397 111.552 307.946 111.811 306.856 111.974C306.638 112.006 306.435 112.035 306.249 112.059C305.878 112.106 305.577 112.135 305.375 112.138H305.374C303.858 112.156 302.473 111.495 300.979 111.412C300.88 111.407 300.78 111.403 300.68 111.403C296.963 111.41 293.203 111.494 289.444 111.537C288.035 111.553 286.626 111.564 285.22 111.562H285.219C282.875 111.561 280.539 111.526 278.223 111.431C278.017 111.422 277.757 111.45 277.485 111.479C276.668 111.563 275.742 111.651 275.859 110.759L319.351 110.419L319.026 111.347C318.915 111.654 318.8 111.96 318.683 112.264C318.448 112.871 318.201 113.47 317.942 114.061C317.813 114.356 317.68 114.649 317.545 114.94C316.598 116.978 315.507 118.91 314.291 120.72C313.77 121.495 313.226 122.249 312.659 122.978C312.282 123.463 311.894 123.938 311.497 124.402C310.902 125.099 310.285 125.77 309.648 126.415C308.375 127.705 307.022 128.888 305.6 129.955C305.125 130.311 304.643 130.654 304.153 130.983C303.174 131.642 302.166 132.247 301.131 132.795C299.578 133.617 297.966 134.311 296.304 134.865C295.75 135.05 295.19 135.219 294.625 135.372C292.648 135.909 290.606 136.25 288.518 136.379C287.19 136.461 285.844 136.453 284.481 136.358C280.639 136.09 276.674 135.104 272.679 133.289C269.479 131.835 263.622 128.173 261.25 125.693C259.579 123.947 253.634 114.924 253.049 112.797C252.486 110.732 252.805 110.005 254.456 108.714C254.493 108.7 254.526 108.692 254.555 108.688ZM279.929 23.7666L287.416 22.7686C288.697 22.4437 285.899 19.8735 287.385 19.71C287.484 19.699 287.602 19.699 287.742 19.7109C287.796 19.7152 287.876 19.7603 287.977 19.8369C288.127 19.9518 288.321 20.1376 288.536 20.3652C288.751 20.593 288.986 20.8624 289.218 21.1436C289.372 21.331 289.525 21.5237 289.669 21.7129C290.101 22.2803 290.453 22.816 290.535 23.0811C290.592 23.2654 290.634 23.4456 290.661 23.6221C290.679 23.7399 290.69 23.8561 290.695 23.9707C290.701 24.0852 290.7 24.1981 290.693 24.3096C290.69 24.3653 290.686 24.4206 290.68 24.4756C290.585 25.3557 290.146 26.1465 289.593 26.9023C289.454 27.0912 289.308 27.2775 289.159 27.4629C288.488 28.2977 287.743 29.1062 287.25 29.9668C287.195 30.0624 287.144 30.1588 287.096 30.2559C286.927 30.5954 286.802 30.9441 286.74 31.3066C286.722 31.4103 286.71 31.5151 286.703 31.6211C286.689 31.833 286.697 32.0498 286.73 32.2725C286.756 32.4396 286.796 32.6102 286.853 32.7842L315.254 107.348C315.198 107.307 315.143 107.265 315.089 107.221C313.407 105.862 312.379 103.154 311.53 101.226C302.54 80.8012 296.446 58.1685 287.205 37.9004C286.877 37.1697 286.311 35.4692 285.448 35.333L285.364 35.3252V107.348H283.326V35.3252C283.101 35.3761 282.909 35.4635 282.743 35.5781C282.632 35.6547 282.533 35.7436 282.443 35.8418C282.399 35.8907 282.356 35.9418 282.315 35.9951C282.153 36.2088 282.025 36.4548 281.911 36.7109C281.854 36.8392 281.801 36.9699 281.75 37.1006C281.648 37.3615 281.551 37.6216 281.444 37.8594C278.949 43.4355 276.72 49.3343 274.614 55.3848C273.445 58.7461 272.313 62.1543 271.195 65.5801C269.183 71.7466 267.216 77.9702 265.149 84.0801C264.002 87.4745 262.823 90.8339 261.59 94.1289C261.096 95.4471 260.595 96.7551 260.082 98.0508C259.826 98.6984 259.567 99.3431 259.306 99.9844C259.044 100.626 258.779 101.264 258.512 101.898C258.201 102.64 257.847 103.504 257.433 104.362C257.295 104.649 257.15 104.934 256.998 105.215C256.846 105.495 256.687 105.771 256.521 106.036C256.27 106.434 256.003 106.809 255.716 107.146C255.429 107.483 255.123 107.782 254.796 108.026L282.646 29.2168C280.997 29.3849 279.349 29.6083 277.699 29.833C276.874 29.9454 276.049 30.058 275.224 30.1641C272.953 30.4556 270.678 30.6974 268.394 30.7471C268.186 30.7516 267.978 30.7546 267.771 30.7559C267.563 30.7571 267.355 30.7571 267.146 30.7549C265.691 30.7391 264.231 30.6351 262.766 30.4062C258.193 29.6928 252.097 26.5331 247.321 25.3984C243.563 24.5084 240.914 26.7092 241.199 19.6973H241.2C242.245 19.8368 243.268 20.0195 244.274 20.2354C244.61 20.3073 244.943 20.383 245.275 20.4619C248.594 21.2512 251.743 22.37 254.889 23.4395C255.832 23.7603 256.776 24.0772 257.724 24.3789C258.987 24.7812 260.258 25.1575 261.548 25.4834C262.193 25.6464 262.842 25.7968 263.498 25.9316C264.153 26.0664 264.815 26.1846 265.483 26.2852C265.818 26.3354 266.154 26.3813 266.492 26.4219C266.83 26.4624 267.17 26.4982 267.512 26.5283C269.223 26.6788 270.988 26.6941 272.828 26.5264C279.297 25.9352 277.605 21.4442 282.3 19.0117H282.301L279.929 23.7666ZM195.683 17.6592C198.19 18.523 201.071 18.3504 203.883 18.3438C204.507 18.3423 205.128 18.3489 205.741 18.377C205.895 18.384 206.048 18.3924 206.2 18.4023C206.809 18.442 207.408 18.5063 207.992 18.6084C208.138 18.6339 208.283 18.6619 208.428 18.6924C208.716 18.7533 209.001 18.824 209.281 18.9072C209.561 18.9904 209.837 19.0857 210.107 19.1943C210.162 19.2165 210.216 19.2403 210.27 19.2646C210.536 19.386 210.784 19.5335 211.017 19.7031C211.109 19.7708 211.2 19.8417 211.288 19.916C211.553 20.1392 211.797 20.391 212.026 20.6621C212.18 20.8431 212.326 21.0326 212.468 21.2285C212.962 21.9136 213.394 22.6749 213.833 23.4023C213.958 23.6102 214.085 23.8148 214.213 24.0146C214.405 24.3145 214.602 24.6026 214.809 24.8701C214.878 24.9593 214.947 25.0466 215.019 25.1309C215.376 25.5521 215.767 25.9076 216.215 26.1592C216.394 26.2598 216.583 26.3437 216.782 26.4082C216.882 26.4405 216.984 26.4679 217.09 26.4902C217.195 26.5125 217.304 26.5303 217.415 26.542C217.526 26.5536 217.64 26.5582 217.758 26.5586C217.818 26.5588 217.877 26.5588 217.936 26.5557C221.611 26.3549 221.85 19.5049 225.375 18.4814C226.615 18.1226 228.013 18.0759 229.475 18.1729C231.814 18.3279 234.318 18.8508 236.607 19.0547C237.466 19.1311 238.294 19.163 239.072 19.1133V19.1064L239.208 19.4883C239.733 21.0429 240.079 22.931 239.983 24.626C239.959 25.0499 239.908 25.4619 239.824 25.8535C239.713 26.3754 239.545 26.8608 239.311 27.291C239.194 27.5061 239.061 27.7077 238.909 27.8926C238.834 27.9849 238.754 28.0733 238.669 28.1572C238.626 28.1993 238.583 28.2404 238.538 28.2803C238.449 28.3596 238.355 28.4339 238.256 28.5039C238.206 28.539 238.155 28.5728 238.104 28.6055C237.792 28.8009 237.438 28.9515 237.034 29.0488C236.9 29.0813 236.76 29.1086 236.614 29.1289C236.323 29.1696 236.01 29.1845 235.674 29.1729C235.506 29.1671 235.332 29.1545 235.152 29.1348C234.629 24.2424 230.147 23.2922 225.944 23.7773C225.644 23.812 225.346 23.8549 225.05 23.9033C224.754 23.9517 224.461 24.0061 224.173 24.0664C224.089 24.1245 224.014 24.1967 223.948 24.2812C223.784 24.4931 223.673 24.7832 223.601 25.1279C223.586 25.1968 223.573 25.2678 223.562 25.3408C223.538 25.487 223.521 25.6411 223.508 25.8018C223.482 26.1227 223.474 26.4695 223.477 26.8301C223.48 27.3715 223.506 27.9441 223.528 28.5068C223.573 29.6316 223.6 30.7175 223.392 31.4385C223.309 31.7209 223.11 32.0189 222.859 32.3311C222.809 32.3933 222.757 32.4561 222.703 32.5195C222.272 33.0281 221.738 33.5732 221.359 34.1514C221.312 34.2237 221.268 34.2968 221.226 34.3701C221.184 34.4433 221.144 34.5166 221.108 34.5908C221.003 34.8091 220.908 35.0593 220.817 35.3291C220.727 35.5989 220.64 35.8886 220.553 36.1875C220.422 36.6358 220.291 37.1043 220.14 37.5547C219.963 38.08 219.76 38.5811 219.501 38.9971C219.242 39.413 218.928 39.7438 218.529 39.9297C218.472 39.9564 218.413 39.9804 218.353 40.001C218.232 40.0418 218.104 40.0697 217.968 40.084C217.9 40.0911 217.83 40.0947 217.759 40.0947L217.758 40.0938V40.0947C214.3 40.0878 215.604 34.5638 216.039 32.376C216.553 31.2312 220.49 32.4192 220.173 30.123C220.163 30.0489 220.148 29.9712 220.129 29.8896L211.989 31.9346C211.784 31.7822 211.64 31.5889 211.543 31.3643C210.569 29.1205 214.257 23.7008 208.082 23.627C207.731 23.6228 207.348 23.636 206.93 23.668C206.512 23.7 206.059 23.7509 205.569 23.8223C205.176 23.8796 204.819 23.9567 204.493 24.0518C204.276 24.1151 204.073 24.1861 203.882 24.2646C203.691 24.3433 203.511 24.4289 203.343 24.5215C203.259 24.5676 203.178 24.6156 203.099 24.665C202.782 24.8631 202.505 25.0873 202.253 25.3311C201.875 25.6965 201.555 26.1072 201.247 26.5469C200.939 26.9868 200.644 27.4554 200.317 27.9355C200.209 28.0953 200.096 28.2563 199.979 28.418C199.743 28.7419 199.487 29.0685 199.196 29.3926C199.051 29.5545 198.897 29.7159 198.733 29.876C194.426 26.8932 195.846 22.2251 195.683 17.6592ZM208.391 33.2422C208.551 33.2417 208.711 33.2563 208.871 33.2852C208.951 33.2996 209.031 33.3177 209.11 33.3389C209.348 33.4022 209.583 33.4939 209.81 33.6094C209.885 33.648 209.96 33.6898 210.033 33.7334C210.254 33.8639 210.464 34.0155 210.66 34.1826C210.791 34.2939 210.915 34.4119 211.03 34.5352C211.204 34.7202 211.359 34.917 211.491 35.1191C211.535 35.1867 211.577 35.2547 211.616 35.3232C211.694 35.4599 211.761 35.5981 211.814 35.7363C212.03 36.2899 212.046 36.8426 211.768 37.2822C211.663 37.4472 211.517 37.5962 211.324 37.7236C210.829 38.0251 210.345 38.2019 209.884 38.2773C209.826 38.2868 209.769 38.2944 209.712 38.3008C209.541 38.3198 209.373 38.3247 209.21 38.3174C206.382 38.1911 204.778 34.3151 207.682 33.3545C207.913 33.278 208.151 33.2429 208.391 33.2422ZM226.014 33.1328C226.193 33.1337 226.365 33.1481 226.529 33.1748C226.803 33.2193 227.056 33.2977 227.287 33.4033C227.333 33.4245 227.379 33.4465 227.423 33.4697C227.512 33.5163 227.596 33.5676 227.678 33.6221C227.759 33.6765 227.837 33.7344 227.91 33.7959C228.057 33.9187 228.189 34.0544 228.304 34.2002C228.361 34.2732 228.414 34.3493 228.463 34.4268C228.561 34.5817 228.643 34.7444 228.707 34.9121C228.739 34.9957 228.765 35.0806 228.788 35.166C228.891 35.5519 228.9 35.9527 228.808 36.3301C228.735 36.6234 228.602 36.9029 228.4 37.1494C228.17 37.431 227.852 37.6695 227.44 37.8389C227.337 37.8813 227.228 37.9199 227.113 37.9531C226.883 38.0195 226.629 38.0661 226.35 38.0908C226.21 38.1032 226.064 38.1097 225.911 38.1104C225.808 38.1108 225.708 38.1071 225.611 38.0996C222.616 37.8675 222.95 33.9408 224.648 33.3682C225.069 33.2269 225.464 33.1536 225.831 33.1367C225.893 33.1339 225.954 33.1325 226.014 33.1328ZM218.092 0C218.218 0.231374 218.354 0.464713 218.499 0.700195C219.512 2.34908 220.938 4.09792 222.154 5.93652C222.415 6.3305 222.666 6.72874 222.901 7.13086C223.058 7.39895 223.208 7.66879 223.35 7.94043C223.491 8.21199 223.622 8.4857 223.744 8.76074C223.988 9.31095 224.19 9.86785 224.334 10.4316C224.37 10.5725 224.403 10.7138 224.432 10.8555C224.518 11.2808 224.57 11.7099 224.582 12.1426C224.586 12.2869 224.585 12.432 224.58 12.5771C224.578 12.6213 224.571 12.6756 224.559 12.7393C224.507 12.9944 224.369 13.4006 224.167 13.915C223.813 14.8151 223.261 16.0461 222.624 17.376C221.168 20.4165 219.272 23.975 218.3 25.2832C218.178 25.4467 218.071 25.5753 217.981 25.6631C217.892 25.7507 217.819 25.7974 217.766 25.7988H217.765C210.712 17.4824 208.511 9.07036 216.691 0.427734L218.092 0Z" fill="url(#paint0_linear_183_806)"/>
</g>
<defs>
<linearGradient id="paint0_linear_183_806" x1="199.77" y1="0" x2="199.77" y2="206.69" gradientUnits="userSpaceOnUse">
<stop stop-color="white"/>
<stop offset="1" stop-color="white" stop-opacity="0"/>
</linearGradient>
<clipPath id="clip0_183_806">
<rect width="399" height="426" fill="white"/>
</clipPath>
</defs>
</svg>
